<svg id="behance" xmlns="http://www.w3.org/2000/svg" width="36" height="28" viewBox="0 0 36 28">
  <g id="Group_583" data-name="Group 583" transform="translate(-215 -763)">
    <rect id="Rectangle_257" data-name="Rectangle 257" width="36" height="28" transform="translate(215 763)" fill="none"/>
    <g id="behance-2" data-name="behance" transform="translate(218 768)">
      <path id="Icon_awesome-behance" data-name="Icon awesome-behance" d="M12.073,13.722a3.949,3.949,0,0,0,2.519-3.851C14.592,6.2,11.855,5.3,8.7,5.3H0V23.745H8.94c3.351,0,6.5-1.608,6.5-5.355a4.444,4.444,0,0,0-3.367-4.668ZM4.054,8.45h3.8c1.462,0,2.779.411,2.779,2.108,0,1.566-1.025,2.2-2.472,2.2H4.054V8.45ZM8.389,20.612H4.054V15.533H8.472c1.785,0,2.914.744,2.914,2.633,0,1.863-1.348,2.446-3,2.446ZM27.045,8.086H19.567V6.27h7.478V8.086Zm2.93,9.175c0-3.95-2.311-7.244-6.5-7.244a6.711,6.711,0,0,0-6.833,7.067c0,4.158,2.618,7.01,6.833,7.01a5.953,5.953,0,0,0,6.25-4.491H26.488a3.038,3.038,0,0,1-2.9,1.743c-2.149,0-3.279-1.259-3.279-3.4h9.633C29.959,17.729,29.975,17.495,29.975,17.26Zm-9.659-1.624a2.866,2.866,0,0,1,3.044-2.852c1.842,0,2.769,1.082,2.925,2.852Z" transform="translate(0 -5.302)" fill="#272727"/>
    </g>
  </g>
</svg>
