<svg xmlns="http://www.w3.org/2000/svg" xmlns:xlink="http://www.w3.org/1999/xlink" width="856" height="383.502" viewBox="0 0 856 383.502"><defs><filter id="a" x="114.001" y="37.5" width="496.999" height="182" filterUnits="userSpaceOnUse"><feOffset dy="3" input="SourceAlpha"/><feGaussianBlur stdDeviation="3" result="b"/><feFlood flood-color="#eedfdd"/><feComposite operator="in" in2="b"/><feComposite in="SourceGraphic"/></filter><linearGradient id="c" x1="0.5" x2="0.5" y2="1" gradientUnits="objectBoundingBox"><stop offset="0" stop-color="#d65e5e"/><stop offset="0.927" stop-color="#d55e5e"/><stop offset="1" stop-color="#f67a4c"/></linearGradient><filter id="d" x="357" y="264.502" width="386" height="119" filterUnits="userSpaceOnUse"><feOffset dy="3" input="SourceAlpha"/><feGaussianBlur stdDeviation="3" result="e"/><feFlood flood-color="#eedfdd"/><feComposite operator="in" in2="e"/><feComposite in="SourceGraphic"/></filter></defs><rect width="856" height="382" fill="none"/><g transform="translate(123 10.5)"><g transform="translate(0.45 40.945)"><g transform="translate(0.001 -7.468)"><g transform="matrix(1, 0, 0, 1, -123.45, -43.98)" filter="url(#a)"><g transform="translate(123 43.5)" fill="#fff"><path d="M 474.0003051757812 163.4997863769531 L 5.000409603118896 163.4997863769531 C 2.519351005554199 163.4997863769531 0.5008803606033325 161.48095703125 0.5008803606033325 158.9994354248047 L 0.5008803606033325 20.31031227111816 C 0.5008803606033325 17.82878303527832 2.519351005554199 15.80990123748779 5.000409603118896 15.80990123748779 L 225.0115203857422 15.80990123748779 L 225.3109436035156 15.80990123748779 L 225.4522857666016 15.54595947265625 L 233.2115936279297 1.05900502204895 L 240.9708862304688 15.54595947265625 L 241.1122283935547 15.80990123748779 L 241.4116516113281 15.80990123748779 L 474.0003051757812 15.80990123748779 C 476.4813537597656 15.80990123748779 478.4998168945312 17.82878303527832 478.4998168945312 20.31031227111816 L 478.4998168945312 158.9994354248047 C 478.4998168945312 161.48095703125 476.4813537597656 163.4997863769531 474.0003051757812 163.4997863769531 Z" stroke="none"/><path d="M 474.0003051757812 162.9997863769531 C 476.2056579589844 162.9997863769531 477.9998168945312 161.2052612304688 477.9998168945312 158.9994354248047 L 477.9998168945312 20.31031227111816 C 477.9998168945312 18.10448837280273 476.2056579589844 16.30990028381348 474.0003051757812 16.30990028381348 L 240.8128204345703 16.30990028381348 L 233.2115936279297 2.11799168586731 L 225.6103515625 16.30990028381348 L 5.000409603118896 16.30990028381348 C 2.795056819915771 16.30990028381348 1.000880360603333 18.10448837280273 1.000880360603333 20.31031227111816 L 1.000880360603333 158.9994354248047 C 1.000880360603333 161.2052612304688 2.795056819915771 162.9997863769531 5.000409603118896 162.9997863769531 L 474.0003051757812 162.9997863769531 M 474.0003051757812 163.9997863769531 L 5.000409603118896 163.9997863769531 C 2.239233255386353 163.9997863769531 0.0008803639211691916 161.7614898681641 0.0008803639211691916 158.9994354248047 L 0.0008803639211691916 20.31031227111816 C 0.0008803639211691916 17.5490779876709 2.239233255386353 15.30990123748779 5.000409603118896 15.30990123748779 L 225.0115203857422 15.30990123748779 L 233.2115936279297 1.846493069024291e-05 L 241.4116516113281 15.30990123748779 L 474.0003051757812 15.30990123748779 C 476.7615356445312 15.30990123748779 478.9998168945312 17.5490779876709 478.9998168945312 20.31031227111816 L 478.9998168945312 158.9994354248047 C 478.9998168945312 161.7614898681641 476.7615356445312 163.9997863769531 474.0003051757812 163.9997863769531 Z" stroke="none" fill="#decfd3"/></g></g><g transform="translate(17.291 32.86)"><g transform="translate(0 42.06)"><text transform="translate(0.259 17.604)" fill="#756262" font-size="16" font-family="CarmenSans-Regular, Carmen Sans"><tspan x="0" y="0">MON</tspan></text><text transform="translate(9.259 36.604)" fill="#b2a9ac" font-size="20" font-family="CarmenSans-SemiBold, Carmen Sans" font-weight="600"><tspan x="-12.94" y="22">31</tspan></text></g><g transform="translate(68.006 42.06)"><text transform="translate(0.253 17.604)" fill="#756262" font-size="16" font-family="CarmenSans-Regular, Carmen Sans"><tspan x="0" y="0">TUE</tspan></text><text transform="translate(4.253 36.604)" fill="#b2a9ac" font-size="20" font-family="CarmenSans-SemiBold, Carmen Sans" font-weight="600"><tspan x="-6.47" y="22">1</tspan></text></g><g transform="translate(136.012 42.06)"><text transform="translate(0.246 17.604)" fill="#756262" font-size="16" font-family="CarmenSans-Regular, Carmen Sans"><tspan x="0" y="0">WED</tspan></text><text transform="translate(7.246 36.604)" fill="#b2a9ac" font-size="20" font-family="CarmenSans-SemiBold, Carmen Sans" font-weight="600"><tspan x="-6.47" y="22">2</tspan></text></g><g transform="translate(204.018 42.06)"><text transform="translate(0.24 17.604)" fill="#756262" font-size="16" font-family="CarmenSans-Regular, Carmen Sans"><tspan x="0" y="0">THU</tspan></text><g transform="translate(0 32.525)"><circle cx="20" cy="20" r="20" transform="translate(0.24 0.078)" fill="url(#c)"/><text transform="translate(19.74 27.578)" fill="#fffcfc" font-size="20" font-family="CarmenSans-SemiBold, Carmen Sans" font-weight="600"><tspan x="-6.47" y="0">3</tspan></text></g></g><g transform="translate(272.025 42.06)"><text transform="translate(0.234 17.604)" fill="#756262" font-size="16" font-family="CarmenSans-Regular, Carmen Sans"><tspan x="0" y="0">FRI</tspan></text><text transform="translate(0.234 36.604)" fill="#744d4d" font-size="20" font-family="CarmenSans-SemiBold, Carmen Sans" font-weight="600"><tspan x="-6.47" y="22">4</tspan></text></g><g transform="translate(340.031 42.06)"><text transform="translate(0.228 17.604)" fill="#756262" font-size="16" font-family="CarmenSans-Regular, Carmen Sans"><tspan x="0" y="0">SAT</tspan></text><text transform="translate(3.228 36.604)" fill="#744d4d" font-size="20" font-family="CarmenSans-SemiBold, Carmen Sans" font-weight="600"><tspan x="-6.47" y="22">5</tspan></text></g><g transform="translate(409.515 42.06)"><text transform="translate(-0.257 17.604)" fill="#756262" font-size="16" font-family="CarmenSans-Regular, Carmen Sans"><tspan x="0" y="0">SUN</tspan></text><text transform="translate(4.743 36.604)" fill="#744d4d" font-size="20" font-family="CarmenSans-SemiBold, Carmen Sans" font-weight="600"><tspan x="-6.47" y="22">6</tspan></text></g><g transform="translate(0.172 0)"><text transform="translate(173.087 18.664)" fill="#756262" font-size="16" font-family="CarmenSans-Medium, Carmen Sans" font-weight="500"><tspan x="0" y="0">August 2023</tspan></text><path d="M15.517,18.567l9.366-9.359a1.769,1.769,0,0,0-2.506-2.5l-10.612,10.6a1.766,1.766,0,0,0-.052,2.439L22.37,30.432a1.769,1.769,0,0,0,2.506-2.5Z" transform="translate(-11.251 -6.194)" fill="#ef9a7a"/><path d="M21.136,18.567,11.77,9.209a1.769,1.769,0,0,1,2.506-2.5l10.612,10.6a1.766,1.766,0,0,1,.052,2.439L14.283,30.432a1.769,1.769,0,0,1-2.506-2.5Z" transform="translate(420.023 -6.194)" fill="#ef9a7a"/></g></g></g><text transform="translate(-0.45 -40.945)" fill="#744d4d" font-size="20" font-family="CarmenSans-SemiBold, Carmen Sans" font-weight="600"><tspan x="0" y="22">Appointment for </tspan><tspan y="22" fill="#f38e61" text-decoration="underline">August 3rd</tspan><tspan y="22" xml:space="preserve"> around </tspan><tspan y="22" fill="#f38e61" text-decoration="underline">3:30pm</tspan><tspan y="22" xml:space="preserve"> for $65.</tspan></text></g><g transform="translate(0.45 231.965)"><g transform="translate(0 0)"><text transform="translate(-0.45 0.035)" fill="#744d4d" font-size="20" font-family="CarmenSans-SemiBold, Carmen Sans" font-weight="600"><tspan x="0" y="22">Appointment for </tspan><tspan y="22" fill="#f38e61" text-decoration="underline">August 3rd</tspan><tspan y="22" xml:space="preserve"> around </tspan><tspan y="22" fill="#f38e61" text-decoration="underline">3:30pm</tspan><tspan y="22" xml:space="preserve"> for $65.</tspan></text></g><g transform="translate(242.969 27.685)"><g transform="translate(-0.42 0.352)"><g transform="matrix(1, 0, 0, 1, -366, -270.5)" filter="url(#d)"><g transform="translate(366 270.5)" fill="#fff"><path d="M 362.9996948242188 100.4998092651367 L 5.000424861907959 100.4998092651367 C 2.518879175186157 100.4998092651367 0.5000155568122864 98.48135375976562 0.5000155568122864 96.00031280517578 L 0.5000155568122864 18.86308288574219 C 0.5000155568122864 16.38158226013184 2.518879175186157 14.36271858215332 5.000424861907959 14.36271858215332 L 173.8898773193359 14.36271858215332 L 174.2017364501953 14.36271858215332 L 174.3389282226562 14.08267307281494 L 180.6804046630859 1.136690735816956 L 187.0211486816406 14.08262825012207 L 187.1583404541016 14.36271858215332 L 187.4701995849609 14.36271858215332 L 362.9996948242188 14.36271858215332 C 365.4812316894531 14.36271858215332 367.5000915527344 16.38158226013184 367.5000915527344 18.86308288574219 L 367.5000915527344 96.00031280517578 C 367.5000915527344 98.48135375976562 365.4812316894531 100.4998092651367 362.9996948242188 100.4998092651367 Z" stroke="none"/><path d="M 362.9996948242188 99.99980926513672 C 365.2055053710938 99.99980926513672 367.0000915527344 98.20562744140625 367.0000915527344 96.00031280517578 L 367.0000915527344 18.86308288574219 C 367.0000915527344 16.65726470947266 365.2055053710938 14.86271858215332 362.9996948242188 14.86271858215332 L 186.8464660644531 14.86271858215332 L 180.6803894042969 2.273319482803345 L 174.5135650634766 14.86271858215332 L 5.000424861907959 14.86271858215332 C 2.794606447219849 14.86271858215332 1.000015616416931 16.65726470947266 1.000015616416931 18.86308288574219 L 1.000015616416931 96.00031280517578 C 1.000015616416931 98.20562744140625 2.794606447219849 99.99980926513672 5.000424861907959 99.99980926513672 L 362.9996948242188 99.99980926513672 M 362.9996948242188 100.9998092651367 L 5.000424861907959 100.9998092651367 C 2.238288402557373 100.9998092651367 1.558061012474354e-05 98.76148986816406 1.558061012474354e-05 96.00031280517578 L 1.558061012474354e-05 18.86308288574219 C 1.558061012474354e-05 16.10099220275879 2.238288402557373 13.86271858215332 5.000424861907959 13.86271858215332 L 173.8898773193359 13.86271858215332 L 180.680419921875 -8.273037565231789e-06 L 187.4701995849609 13.86271858215332 L 362.9996948242188 13.86271858215332 C 365.7618408203125 13.86271858215332 368.0000915527344 16.10099220275879 368.0000915527344 18.86308288574219 L 368.0000915527344 96.00031280517578 C 368.0000915527344 98.76148986816406 365.7618408203125 100.9998092651367 362.9996948242188 100.9998092651367 Z" stroke="none" fill="#decfd3"/></g></g></g><g transform="translate(16.58 29.352)"><g transform="translate(51.189)"><g transform="translate(-0.188)" fill="#fffcfc" stroke="#decfd3" stroke-width="1"><path d="M0,0H34a6,6,0,0,1,6,6V45a9,9,0,0,1-9,9H0a0,0,0,0,1,0,0V0A0,0,0,0,1,0,0Z" stroke="none"/><path d="M.5.5H34A5.5,5.5,0,0,1,39.5,6V45A8.5,8.5,0,0,1,31,53.5H.5a0,0,0,0,1,0,0V.5A0,0,0,0,1,.5.5Z" fill="none"/></g><path d="M9.865,13.761.486,4.382a1.648,1.648,0,0,1,0-2.338L2.045.486a1.648,1.648,0,0,1,2.338,0L11.03,7.134,17.678.486a1.648,1.648,0,0,1,2.338,0l1.558,1.558a1.648,1.648,0,0,1,0,2.338L12.2,13.761a1.64,1.64,0,0,1-2.331,0Z" transform="translate(8.588 20.828)" fill="#ef9a7a"/></g><g fill="none" stroke="#decfd3" stroke-width="2"><rect width="93" height="54" rx="7" stroke="none"/><rect x="1" y="1" width="91" height="52" rx="6" fill="none"/></g><text transform="translate(19 14)" fill="#756262" font-size="16" font-family="CarmenSans-Medium, Carmen Sans" font-weight="500"><tspan x="0" y="18">1</tspan></text></g><g transform="translate(134.91 29.779)"><g transform="translate(59.499)"><g fill="#fffcfc" stroke="#decfd3" stroke-width="1"><path d="M0,0H35.192a6,6,0,0,1,6,6V44.942a9,9,0,0,1-9,9H0a0,0,0,0,1,0,0V0A0,0,0,0,1,0,0Z" stroke="none"/><path d="M.5.5H35.192a5.5,5.5,0,0,1,5.5,5.5V44.942a8.5,8.5,0,0,1-8.5,8.5H.5a0,0,0,0,1,0,0V.5A0,0,0,0,1,.5.5Z" fill="none"/></g><path d="M9.865,13.761.486,4.382a1.648,1.648,0,0,1,0-2.338L2.045.486a1.648,1.648,0,0,1,2.338,0L11.03,7.134,17.678.486a1.648,1.648,0,0,1,2.338,0l1.558,1.558a1.648,1.648,0,0,1,0,2.338L12.2,13.761a1.64,1.64,0,0,1-2.331,0Z" transform="translate(9.758 20.828)" fill="#ef9a7a"/></g><g fill="none" stroke="#decfd3" stroke-width="2"><rect width="101.671" height="53.942" rx="7" stroke="none"/><rect x="1" y="1" width="99.671" height="51.942" rx="6" fill="none"/></g><text transform="translate(19.671 13.572)" fill="#756262" font-size="16" font-family="CarmenSans-Medium, Carmen Sans" font-weight="500"><tspan x="0" y="18">30</tspan></text></g><text transform="translate(123.179 61.922)" fill="#744d4d" font-size="16" font-family="CarmenSans-SemiBold, Carmen Sans" font-weight="600"><tspan x="-2.048" y="0">:</tspan></text><g transform="translate(249.331 29.779)"><g transform="translate(59.499)"><g fill="#fffcfc" stroke="#decfd3" stroke-width="1"><path d="M0,0H35.192a6,6,0,0,1,6,6V44.942a9,9,0,0,1-9,9H0a0,0,0,0,1,0,0V0A0,0,0,0,1,0,0Z" stroke="none"/><path d="M.5.5H35.192a5.5,5.5,0,0,1,5.5,5.5V44.942a8.5,8.5,0,0,1-8.5,8.5H.5a0,0,0,0,1,0,0V.5A0,0,0,0,1,.5.5Z" fill="none"/></g><path d="M9.865,13.761.486,4.382a1.648,1.648,0,0,1,0-2.338L2.045.486a1.648,1.648,0,0,1,2.338,0L11.03,7.134,17.678.486a1.648,1.648,0,0,1,2.338,0l1.558,1.558a1.648,1.648,0,0,1,0,2.338L12.2,13.761a1.64,1.64,0,0,1-2.331,0Z" transform="translate(9.758 20.828)" fill="#ef9a7a"/></g><g fill="none" stroke="#decfd3" stroke-width="2"><rect width="101.671" height="53.942" rx="7" stroke="none"/><rect x="1" y="1" width="99.671" height="51.942" rx="6" fill="none"/></g><text transform="translate(19.615 14.711)" fill="#756262" font-size="16" font-family="CarmenSans-Medium, Carmen Sans" font-weight="500"><tspan x="0" y="18">PM</tspan></text></g></g></g></g></svg>