<svg xmlns="http://www.w3.org/2000/svg" xmlns:xlink="http://www.w3.org/1999/xlink" width="829" height="1353" viewBox="0 0 829 1353"><defs><filter id="a" x="36" y="328.421" width="32" height="28.44" filterUnits="userSpaceOnUse"><feOffset dy="3" input="SourceAlpha"/><feGaussianBlur stdDeviation="3" result="b"/><feFlood flood-opacity="0.161"/><feComposite operator="in" in2="b"/><feComposite in="SourceGraphic"/></filter><filter id="c" x="225" y="330.641" width="24" height="24" filterUnits="userSpaceOnUse"><feOffset dy="3" input="SourceAlpha"/><feGaussianBlur stdDeviation="3" result="d"/><feFlood flood-opacity="0.161"/><feComposite operator="in" in2="d"/><feComposite in="SourceGraphic"/></filter><filter id="e" x="0" y="0" width="829" height="1353" filterUnits="userSpaceOnUse"><feOffset dy="3" input="SourceAlpha"/><feGaussianBlur stdDeviation="3" result="f"/><feFlood flood-color="#bc8383" flood-opacity="0.529"/><feComposite operator="in" in2="f"/><feComposite in="SourceGraphic"/></filter><filter id="g" x="32" y="445" width="251" height="60" filterUnits="userSpaceOnUse"><feOffset dy="3" input="SourceAlpha"/><feGaussianBlur stdDeviation="3" result="h"/><feFlood flood-color="#fff" flood-opacity="0.09"/><feComposite operator="in" in2="h"/><feComposite in="SourceGraphic"/></filter><filter id="i" x="289" y="445" width="251" height="60" filterUnits="userSpaceOnUse"><feOffset dy="3" input="SourceAlpha"/><feGaussianBlur stdDeviation="3" result="j"/><feFlood flood-color="#fff" flood-opacity="0.09"/><feComposite operator="in" in2="j"/><feComposite in="SourceGraphic"/></filter><filter id="k" x="546" y="445" width="251" height="60" filterUnits="userSpaceOnUse"><feOffset dy="3" input="SourceAlpha"/><feGaussianBlur stdDeviation="3" result="l"/><feFlood flood-color="#fff" flood-opacity="0.09"/><feComposite operator="in" in2="l"/><feComposite in="SourceGraphic"/></filter><filter id="m" x="32" y="1202" width="765" height="67" filterUnits="userSpaceOnUse"><feOffset dy="3" input="SourceAlpha"/><feGaussianBlur stdDeviation="3" result="n"/><feFlood flood-color="#fff" flood-opacity="0.09"/><feComposite operator="in" in2="n"/><feComposite in="SourceGraphic"/></filter></defs><g transform="translate(9 6)"><g transform="matrix(1, 0, 0, 1, -9, -6)" filter="url(#a)"><path d="M4.755,14.812l-4.55-4.55a.7.7,0,0,1,0-.99l.99-.99a.7.7,0,0,1,.99,0L5.25,11.347l6.565-6.565a.7.7,0,0,1,.99,0l.99.99a.7.7,0,0,1,0,.99l-8.05,8.05A.7.7,0,0,1,4.755,14.812Z" transform="translate(45 329.84)" fill="#fff"/></g><g transform="translate(-453 -138.359)"><circle cx="12" cy="12" r="12" transform="translate(669 460)" fill="#d65e5e"/><g transform="matrix(1, 0, 0, 1, 444, 132.36)" filter="url(#c)"><circle cx="3" cy="3" r="3" transform="translate(234 336.64)" fill="#fff"/></g></g><g transform="translate(-545 -152)"><g transform="matrix(1, 0, 0, 1, 536, 146)" filter="url(#e)"><rect width="811" height="1335" rx="12" transform="translate(9 6)" fill="#fff"/></g><g transform="translate(545 399)"><rect width="811" height="77" fill="#d65e5e"/><text transform="translate(32 12.717)" fill="#fff" font-size="32" font-family="CarmenSans-ExtraBold, Carmen Sans" font-weight="800"><tspan x="0" y="36">Sign Up to Continue</tspan></text></g><g transform="translate(0 -187)"><g transform="translate(0 -138.886)"><g transform="translate(577 1760.886)"><path d="M13.989,14.135,20,8.129a1.135,1.135,0,0,0-1.608-1.6l-6.81,6.806a1.133,1.133,0,0,0-.033,1.565l6.839,6.853a1.135,1.135,0,1,0,1.608-1.6Z" transform="translate(-11.251 -1.08)" fill="#744d4d"/><text transform="translate(20.749 18)" fill="#744d4d" font-size="16" font-family="CarmenSans-Medium, Carmen Sans" font-weight="500"><tspan x="0" y="0">Back to vet selection</tspan></text></g><text transform="translate(1267 1778.886)" fill="#ff7272" font-size="16" font-family="CarmenSans-Medium, Carmen Sans" font-weight="500"><tspan x="0" y="0">Cancel</tspan></text></g><text transform="translate(577 705)" fill="#756262" font-size="16" font-family="CarmenSans-Medium, Carmen Sans" font-weight="500"><tspan x="0" y="0">Do you have an account? </tspan><tspan y="0" fill="#f38e61" font-family="CarmenSans-Bold, Carmen Sans" font-weight="700" text-decoration="underline">Login</tspan></text><text transform="translate(577 763)" fill="#744d4d" font-size="20" font-family="CarmenSans-SemiBold, Carmen Sans" font-weight="600"><tspan x="0" y="0">Sign up with</tspan></text><line x2="747" transform="translate(577.5 725)" fill="none" stroke="#decfd3" stroke-width="1"/><g transform="translate(0 30)"><g transform="translate(577 754)"><g transform="matrix(1, 0, 0, 1, -41, -451)" filter="url(#g)"><g transform="translate(41 451)" fill="#fff" stroke="#b2a9ac" stroke-width="1"><rect width="233" height="42" rx="7" stroke="none"/><rect x="0.5" y="0.5" width="232" height="41" rx="6.5" fill="none"/></g></g><path d="M18.694,10.285c0,5.42-3.712,9.278-9.194,9.278a9.5,9.5,0,0,1,0-19,9.136,9.136,0,0,1,6.37,2.486L13.285,5.535C9.9,2.271,3.612,4.723,3.612,10.063a5.951,5.951,0,0,0,5.888,6,5.137,5.137,0,0,0,5.394-4.095H9.5V8.7h9.044A8.328,8.328,0,0,1,18.694,10.285Z" transform="translate(107 10.438)" fill="#b2a9ac"/></g><g transform="translate(834 754)"><g transform="matrix(1, 0, 0, 1, -298, -451)" filter="url(#i)"><g transform="translate(298 451)" fill="#fff" stroke="#b2a9ac" stroke-width="1"><rect width="233" height="42" rx="7" stroke="none"/><rect x="0.5" y="0.5" width="232" height="41" rx="6.5" fill="none"/></g></g><path d="M13.445,13.3l.657-4.28H10V6.245a2.14,2.14,0,0,1,2.413-2.312h1.867V.289A22.767,22.767,0,0,0,10.961,0C7.579,0,5.369,2.05,5.369,5.761V9.023H1.609V13.3H5.369V23.649H10V13.3Z" transform="translate(109.023 9.176)" fill="#b2a9ac"/></g><g transform="translate(1091 754)"><g transform="matrix(1, 0, 0, 1, -555, -451)" filter="url(#k)"><g transform="translate(555 451)" fill="#fff" stroke="#b2a9ac" stroke-width="1"><rect width="233" height="42" rx="7" stroke="none"/><rect x="0.5" y="0.5" width="232" height="41" rx="6.5" fill="none"/></g></g><path d="M17.2,14.973a5.018,5.018,0,0,1,2.688-4.558,5.775,5.775,0,0,0-4.553-2.4c-1.908-.151-3.994,1.113-4.757,1.113-.806,0-2.655-1.059-4.107-1.059-3,.048-6.187,2.392-6.187,7.16A13.4,13.4,0,0,0,1.055,19.6c.688,1.973,3.171,6.81,5.762,6.73,1.355-.032,2.311-.962,4.074-.962,1.709,0,2.6.962,4.107.962,2.612-.038,4.859-4.435,5.515-6.413a5.328,5.328,0,0,1-3.317-4.94ZM14.155,6.147a5.063,5.063,0,0,0,1.29-3.9A5.7,5.7,0,0,0,11.8,4.126a5.142,5.142,0,0,0-1.376,3.865,4.514,4.514,0,0,0,3.736-1.844Z" transform="translate(106.269 6.712)" fill="#b2a9ac"/></g></g><text transform="translate(577 868)" fill="#756262" font-size="16" font-family="CarmenSans-Medium, Carmen Sans" font-weight="500"><tspan x="0" y="0">Or continue with</tspan></text><g transform="translate(0 27)"><g transform="translate(577 869)"><text fill="#d65e5e" font-size="16" font-family="CarmenSans-Medium, Carmen Sans" font-weight="500"><tspan x="0" y="18">First Name</tspan></text><g transform="translate(0 31)" fill="none" stroke="#decfd3" stroke-width="2"><rect width="365" height="55" rx="7" stroke="none"/><rect x="1" y="1" width="363" height="53" rx="6" fill="none"/></g></g><g transform="translate(960 869)"><text fill="#d65e5e" font-size="16" font-family="CarmenSans-Medium, Carmen Sans" font-weight="500"><tspan x="0" y="18">Last Name</tspan></text><g transform="translate(0 31)" fill="none" stroke="#decfd3" stroke-width="2"><rect width="365" height="55" rx="7" stroke="none"/><rect x="1" y="1" width="363" height="53" rx="6" fill="none"/></g></g><g transform="translate(577 971)"><text fill="#d65e5e" font-size="16" font-family="CarmenSans-Medium, Carmen Sans" font-weight="500"><tspan x="0" y="18">Email Address</tspan></text><g transform="translate(0 31)" fill="none" stroke="#decfd3" stroke-width="2"><rect width="747" height="55" rx="7" stroke="none"/><rect x="1" y="1" width="745" height="53" rx="6" fill="none"/></g></g><text transform="translate(577 1182)" fill="#b2a9ac" font-size="14" font-family="CarmenSans-Regular, Carmen Sans"><tspan x="0" y="0">Must be at least 7 characters, 1 Upper case, 1 lowercase and 1 number</tspan></text><g transform="translate(577 1073)"><text fill="#d65e5e" font-size="16" font-family="CarmenSans-Medium, Carmen Sans" font-weight="500"><tspan x="0" y="18">Password</tspan></text><g transform="translate(0 31)" fill="none" stroke="#decfd3" stroke-width="2"><rect width="747" height="55" rx="7" stroke="none"/><rect x="1" y="1" width="745" height="53" rx="6" fill="none"/></g></g><path d="M16.228,9.54a6.336,6.336,0,0,1,6.356,6.306,6.066,6.066,0,0,1-.455,2.308l3.711,3.68a14.911,14.911,0,0,0,4.36-5.988A15.052,15.052,0,0,0,11.157,7.269L13.9,10A6.284,6.284,0,0,1,16.228,9.54ZM3.522,6.1l2.9,2.875.586.58A14.84,14.84,0,0,0,2.25,15.846a15.074,15.074,0,0,0,19.541,8.4l.536.53,3.724,3.68,1.615-1.6L5.132,4.5Zm7.023,6.967,1.971,1.952a3.573,3.573,0,0,0-.1.817,3.792,3.792,0,0,0,3.811,3.78,3.585,3.585,0,0,0,.823-.1l1.971,1.952a6.323,6.323,0,0,1-9.15-5.638A6.23,6.23,0,0,1,10.546,13.07Zm5.476-.979,4,3.973.025-.2a3.792,3.792,0,0,0-3.811-3.78Z" transform="translate(1274.801 1116.5)" fill="#f38e61"/></g><g transform="translate(0 15)"><g transform="translate(960 1260)"><text fill="#d65e5e" font-size="16" font-family="CarmenSans-Medium, Carmen Sans" font-weight="500"><tspan x="0" y="18">Postal Code</tspan></text><g transform="translate(0 31)" fill="none" stroke="#decfd3" stroke-width="2"><rect width="365" height="55" rx="7" stroke="none"/><rect x="1" y="1" width="363" height="53" rx="6" fill="none"/></g></g><g transform="translate(577 1260)"><text fill="#d65e5e" font-size="16" font-family="CarmenSans-Medium, Carmen Sans" font-weight="500"><tspan x="0" y="18">Province</tspan></text></g></g><text transform="translate(577 1255)" fill="#756262" font-size="16" font-family="CarmenSans-Medium, Carmen Sans" font-weight="500"><tspan x="0" y="0">Enter your location so vets are able to send a prescription to your nearest location</tspan></text><g transform="translate(577 1306)"><g transform="translate(320)" fill="#fffcfc" stroke="#decfd3" stroke-width="1"><path d="M0,0H35A10,10,0,0,1,45,10V46a9,9,0,0,1-9,9H0a0,0,0,0,1,0,0V0A0,0,0,0,1,0,0Z" stroke="none"/><path d="M.5.5H35A9.5,9.5,0,0,1,44.5,10V46A8.5,8.5,0,0,1,36,54.5H.5a0,0,0,0,1,0,0V.5A0,0,0,0,1,.5.5Z" fill="none"/></g><g fill="none" stroke="#decfd3" stroke-width="2"><rect width="365" height="55" rx="7" stroke="none"/><rect x="1" y="1" width="363" height="53" rx="6" fill="none"/></g><text transform="translate(20 15)" fill="#756262" font-size="16" font-family="CarmenSans-Medium, Carmen Sans" font-weight="500"><tspan x="0" y="18">Ontario</tspan></text><path d="M10.058,14.031.5,4.468a1.681,1.681,0,0,1,0-2.384L2.085.5A1.681,1.681,0,0,1,4.468.5l6.778,6.778L18.025.5a1.681,1.681,0,0,1,2.384,0L22,2.085a1.681,1.681,0,0,1,0,2.384l-9.562,9.562a1.672,1.672,0,0,1-2.377,0Z" transform="translate(329.95 21.237)" fill="#ef9a7a"/></g><g transform="translate(0 18)"><g transform="translate(0 21)"><g transform="translate(577 1384)"><text fill="#756262" font-size="16" font-family="CarmenSans-Medium, Carmen Sans" font-weight="500"><tspan x="0" y="18">Phone number (Optional)</tspan></text><g transform="translate(0 31)" fill="none" stroke="#decfd3" stroke-width="2"><rect width="365" height="55" rx="7" stroke="none"/><rect x="1" y="1" width="363" height="53" rx="6" fill="none"/></g></g><text transform="translate(577 1364)" fill="#756262" font-size="16" font-family="CarmenSans-Medium, Carmen Sans" font-weight="500"><tspan x="0" y="0">Enter your phone number so we may reach out to you for your appointments</tspan></text></g><text transform="translate(590 1470)" fill="#b2a9ac" font-size="16" font-family="CarmenSans-Medium, Carmen Sans" font-weight="500"><tspan x="0" y="0">(</tspan><tspan y="0" fill="#744d4d">416</tspan><tspan y="0">) </tspan><tspan y="0" font-family="CarmenSans-Bold, Carmen Sans" font-weight="700">-</tspan><tspan y="0"> </tspan><tspan y="0" fill="#744d4d">481</tspan><tspan y="0"> </tspan><tspan y="0" font-family="CarmenSans-Bold, Carmen Sans" font-weight="700">-</tspan><tspan y="0"> </tspan><tspan y="0" fill="#744d4d">5484</tspan></text></g><text transform="translate(977 1340)" fill="#744d4d" font-size="16" font-family="CarmenSans-Medium, Carmen Sans" font-weight="500"><tspan x="0" y="0">L4H 3L2</tspan></text><g transform="translate(577 1541)"><g transform="matrix(1, 0, 0, 1, -41, -1208)" filter="url(#m)"><g transform="translate(41 1208)" fill="#f38e61" stroke="#f38e61" stroke-width="1"><rect width="747" height="49" rx="7" stroke="none"/><rect x="0.5" y="0.5" width="746" height="48" rx="6.5" fill="none"/></g></g><text transform="translate(291 33)" fill="#fff" font-size="20" font-family="CarmenSans-SemiBold, Carmen Sans" font-weight="600"><tspan x="0" y="0">Create Account</tspan></text></g><text transform="translate(597 961)" fill="#756262" font-size="16" font-family="CarmenSans-Medium, Carmen Sans" font-weight="500"><tspan x="0" y="0">Nina</tspan></text><text transform="translate(981 961)" fill="#756262" font-size="16" font-family="CarmenSans-Medium, Carmen Sans" font-weight="500"><tspan x="0" y="0">Sunflower</tspan></text><text transform="translate(597 1062)" fill="#756262" font-size="16" font-family="CarmenSans-Medium, Carmen Sans" font-weight="500"><tspan x="0" y="0">Nsunflower@hotmail.com</tspan></text><text transform="translate(977 1489)" fill="#744d4d" font-size="16" font-family="CarmenSans-Medium, Carmen Sans" font-weight="500"><tspan x="0" y="0">She/her</tspan></text><circle cx="4" cy="4" r="4" transform="translate(597 1156)" fill="#744d4d"/><circle cx="4" cy="4" r="4" transform="translate(612 1156)" fill="#744d4d"/><circle cx="4" cy="4" r="4" transform="translate(627 1156)" fill="#744d4d"/><circle cx="4" cy="4" r="4" transform="translate(642 1156)" fill="#744d4d"/><circle cx="4" cy="4" r="4" transform="translate(657 1156)" fill="#744d4d"/><circle cx="4" cy="4" r="4" transform="translate(672 1156)" fill="#744d4d"/><circle cx="4" cy="4" r="4" transform="translate(687 1156)" fill="#744d4d"/><circle cx="4" cy="4" r="4" transform="translate(702 1156)" fill="#744d4d"/></g><g transform="translate(0 13)"><g transform="translate(726.74 164.324)"><path d="M821.7,608.9c-4.764-4.026-7.658-10.386-6.9-16.577s5.46-11.883,11.557-13.2,13.048,2.325,14.9,8.281c1.019-11.483,2.194-23.448,8.3-33.227a35.19,35.19,0,0,1,25.48-16.324,31.574,31.574,0,0,1,27.775,11.338c6.472,8.191,8.056,20.1,3.524,29.5-3.339,6.927-9.491,12.082-15.937,16.276a102.852,102.852,0,0,1-70.345,15.389Z" transform="translate(-536.782 -388.929)" fill="#f2f2f2"/><path d="M929.914,545.694a169.711,169.711,0,0,0-49.866,67.428c-.476,1.166,1.417,1.673,1.887.52A167.822,167.822,0,0,1,931.3,547.078c.977-.8-.415-2.173-1.384-1.384Z" transform="translate(-574.145 -393.383)" fill="#fff"/><path d="M284.8,570.754c6.544-5.529,10.519-14.264,9.476-22.768s-7.5-16.321-15.874-18.127-17.921,3.193-20.465,11.374c-1.4-15.773-3.013-32.206-11.4-45.638-7.593-12.162-20.744-20.865-35-22.421s-29.26,4.323-38.149,15.573-11.066,27.6-4.84,40.52c4.586,9.514,13.036,16.6,21.889,22.356a141.268,141.268,0,0,0,96.618,21.137" transform="translate(-165 -351.876)" fill="#f2f2f2"/><path d="M214.412,483.94a231.128,231.128,0,0,1,32.211,31.985,234.432,234.432,0,0,1,25.4,37.595A233.471,233.471,0,0,1,282.9,576.552c.653,1.6-1.946,2.3-2.592.715A229.422,229.422,0,0,0,259.348,537.6a230.3,230.3,0,0,0-46.836-51.763c-1.342-1.093.57-2.985,1.9-1.9Z" transform="translate(-191.927 -357.993)" fill="#fff"/><path d="M580.628,411.931H424.5V251.74a61.879,61.879,0,0,1,61.809-61.809h32.509a61.879,61.879,0,0,1,61.809,61.809Z" transform="translate(-313.5 -189.931)" fill="#f2f2f2"/><path d="M548.119,411.934H424.5V251.743a61.331,61.331,0,0,1,11.8-36.335c.284-.387.567-.769.859-1.147a61.8,61.8,0,0,1,13.155-12.768c.282-.205.565-.407.853-.609a61.664,61.664,0,0,1,13.462-7.04c.283-.107.571-.215.858-.317a61.606,61.606,0,0,1,13.307-3.138c.281-.038.57-.069.859-.1a62.573,62.573,0,0,1,13.305,0c.288.03.577.06.862.1a61.593,61.593,0,0,1,13.3,3.137c.288.1.576.21.859.318a61.509,61.509,0,0,1,13.306,6.936c.287.2.575.4.858.6a62.452,62.452,0,0,1,7.863,6.657,61.718,61.718,0,0,1,5.443,6.224c.291.377.574.759.858,1.145a61.331,61.331,0,0,1,11.8,36.335Z" transform="translate(-313.499 -189.933)" fill="#ccc"/><ellipse cx="6.844" cy="6.844" rx="6.844" ry="6.844" transform="translate(217.723 136.665)" fill="#f38e61"/><path d="M584.245,480.722H579l-2.5-20.227h7.74Z" transform="translate(-329.907 -263.52)" fill="#ffb8b8"/><path d="M565.063,504.28h10.114v6.368H558.7A6.368,6.368,0,0,1,565.063,504.28Z" transform="translate(-319.715 -288.576)" fill="#2f2e41"/><path d="M645.245,480.722H640l-2.5-20.227h7.74Z" transform="translate(-364.815 -263.52)" fill="#ffb8b8"/><path d="M626.063,504.28h10.114v6.368H619.695A6.368,6.368,0,0,1,626.063,504.28Z" transform="translate(-354.622 -288.576)" fill="#2f2e41"/><path d="M697.037,453.8a4.595,4.595,0,0,1,1.929-6.777l17.827-49.134,8.772,4.787L705.21,449.631a4.62,4.62,0,0,1-8.174,4.17Z" transform="translate(-469.006 -308.936)" fill="#ffb8b8"/><path d="M805.293,471.37a4.6,4.6,0,0,1-1.238-6.937l-5.522-51.975,9.983.456,2.295,51.125a4.62,4.62,0,0,1-5.518,7.331Z" transform="translate(-527.541 -317.273)" fill="#ffb8b8"/><ellipse cx="10.506" cy="10.506" rx="10.506" ry="10.506" transform="translate(251.321 58.841)" fill="#ffb8b8"/><path d="M771.806,444.222H740.133l.038-.246c.057-.368,5.645-36.974,1.523-48.95a5.053,5.053,0,0,1,2.6-6.238h0c5.891-2.774,17.2-6.19,26.743,2.1A12.077,12.077,0,0,1,775.08,400.9Z" transform="translate(-494.122 -301.946)" fill="#f38e61"/><path d="M735.278,417.111l-14.259-2.893,6.684-15.839a5.987,5.987,0,0,1,11.594,2.993Z" transform="translate(-483.183 -306.645)" fill="#f38e61"/><path d="M795.746,423.965l-.857-19.651c-.65-3.694,1.465-7.186,4.717-7.757s6.43,1.993,7.083,5.715l3.222,18.362Z" transform="translate(-525.389 -308.128)" fill="#f38e61"/><path d="M768.47,517.049c5.1,19.41,5.652,44.087,4.277,71.006L765.9,587.2l-12.4-51.33-6.844,52.185-7.7-.428c-2.3-28.244-4.54-52.491-.856-68.439Z" transform="translate(-491.839 -377.126)" fill="#2f2e41"/><path d="M767.154,339.64a3.393,3.393,0,0,1-5.855-1.885,3.438,3.438,0,0,1,0-.665c.132-1.263.862-2.41.687-3.744a1.962,1.962,0,0,0-.359-.919c-1.562-2.091-5.228.935-6.7-.958-.9-1.161.159-2.989-.535-4.286-.915-1.713-3.627-.868-5.327-1.806-1.892-1.043-1.779-3.946-.533-5.712a8.985,8.985,0,0,1,6.811-3.468,18.272,18.272,0,0,1,7.7,1.5c2.789,1.087,5.555,2.589,7.272,5.042,2.087,2.983,2.288,6.993,1.244,10.481C770.922,335.343,768.754,337.935,767.154,339.64Z" transform="translate(-498.405 -262.174)" fill="#2f2e41"/><path d="M555.888,427.038H500.28a2.766,2.766,0,0,1-2.78-2.744V300.175a2.765,2.765,0,0,1,2.78-2.744h55.607a2.765,2.765,0,0,1,2.78,2.744V424.294A2.766,2.766,0,0,1,555.888,427.038Z" transform="translate(-355.274 -251.448)" fill="#fff"/><rect width="61.168" height="0.855" transform="translate(142.226 86.144)" fill="#ccc"/><rect width="61.168" height="0.855" transform="translate(142.44 134.954)" fill="#ccc"/><rect width="0.855" height="130.035" transform="translate(161.475 45.983)" fill="#ccc"/><rect width="0.855" height="130.035" transform="translate(182.862 45.983)" fill="#ccc"/></g><g transform="translate(864.222 334.271)"><path d="M388.124,140.768l-22.222-.631s1.673-10.006-3.694-12.783c-3.658-1.894-6.9-10.741-5.981-16.761.013-.08.025-.16.039-.239.468-2.7,1.806-4.782,4.365-5.349a34.412,34.412,0,0,1,14.173-.411,21.846,21.846,0,0,1,3.391.4q.108.019.217.042c5.731,1.123,16.324,5.122,16.783,19.319.631,19.506-7.071,16.412-7.071,16.412Z" transform="translate(-353.388 -87.722)" fill="#f38e61"/><path d="M378.145,109.942a8.2,8.2,0,0,1-.689,2.99,7.976,7.976,0,0,1-4.482,4.286c-6.04,2.312-13.089.019-16.654-2.467-.014.079-.3,1.569-.309,1.649,1.578,1.081,9.3,2.122,10.769,2.122a17.589,17.589,0,0,0,6.273-1.1,8.2,8.2,0,0,0,4.6-4.4,8.4,8.4,0,0,0,.707-3.036q-.108-.024-.217-.042h0Z" transform="translate(-353.339 -92.671)" fill="#d65e5e"/><path d="M365.455,18.553l-3.542-8.907s4.251-7.287.911-8.1-6.782,3.542-6.782,3.542-6.376-2.227-8.8-.405c0,0-4.049-5.668-6.477-4.555s.864,9.138.864,9.138-5.013,7.36-1.167,11.61,18.319,7.693,25-2.328h0Z" transform="translate(-339.006 0.013)" fill="#f38e61"/><path d="M553.586,281.319a8.691,8.691,0,0,0,3.785,1.032,2.974,2.974,0,0,0,2.912-2.205,8.987,8.987,0,0,1,.154-2.026,1.9,1.9,0,0,1,2.334-.886,3.84,3.84,0,0,1,1.966,1.834,4.835,4.835,0,0,1,.281,4.884c-.8,1.255-2.307,1.823-3.711,2.31-1.872.649-3.961,1.291-5.775.495a4.122,4.122,0,0,1-2.142-4.988" transform="translate(-519.541 -233.603)" fill="#f38e61"/><path d="M409.445,90.939s-2.18-.872-3.6.218l1.635,2.507,1.962-2.723Z" transform="translate(-395.352 -76.376)" fill="#d65e5e"/><path d="M355.89,165.55l4.032,21.466s-6.1,6.212,1.743,6.1,5.557-4.14,5.557-4.14l-2.507-18.633" transform="translate(-353.238 -139.547)" fill="#f38e61"/><path d="M367.654,221.793c-2.125,0-3.41-.487-3.821-1.45-.749-1.753,1.69-4.424,2.108-4.864l-2.711-16.048.309-.052,2.737,16.205-.057.057c-.028.028-2.818,2.9-2.1,4.578.369.864,1.621,1.286,3.729,1.256,2.929-.041,4.817-.655,5.461-1.775a2.348,2.348,0,0,0-.039-2.131l-.014-.027,0-.03-1.743-12.967.311-.042,1.74,12.938a2.606,2.606,0,0,1,.025,2.412c-.711,1.241-2.64,1.893-5.731,1.935h-.2Z" transform="translate(-359.426 -168.064)" fill="#d65e5e"/><path d="M421.1,165.55l4.032,21.466s-6.1,6.212,1.743,6.1,5.557-4.14,5.557-4.14l-2.507-18.633" transform="translate(-408.207 -139.547)" fill="#f38e61"/><path d="M435.338,218.885c-2.125,0-3.41-.487-3.821-1.45-.749-1.75,1.685-4.418,2.106-4.862L432,203.935l.309-.058,1.649,8.8-.058.058c-.028.028-2.818,2.9-2.1,4.578.369.864,1.622,1.288,3.728,1.256,2.931-.041,4.82-.655,5.462-1.778a2.336,2.336,0,0,0-.041-2.128l-.016-.027-2.51-18.663.311-.042,2.5,18.6a2.606,2.606,0,0,1,.025,2.412c-.711,1.241-2.64,1.893-5.731,1.935h-.2Z" transform="translate(-416.868 -165.156)" fill="#d65e5e"/></g></g></g><g transform="translate(414 1084)"><text fill="#756262" font-size="16" font-family="CarmenSans-Medium, Carmen Sans" font-weight="500"><tspan x="0" y="18">Pronouns (Optional)</tspan></text><g transform="translate(0 31)" fill="none" stroke="#decfd3" stroke-width="2"><rect width="365" height="55" rx="7" stroke="none"/><rect x="1" y="1" width="363" height="53" rx="6" fill="none"/></g></g></g></svg>