<svg xmlns="http://www.w3.org/2000/svg" xmlns:xlink="http://www.w3.org/1999/xlink" width="864" height="621" viewBox="0 0 864 621"><defs><filter id="a" x="259.783" y="197.117" width="32" height="28.439" filterUnits="userSpaceOnUse"><feOffset dy="3" input="SourceAlpha"/><feGaussianBlur stdDeviation="3" result="b"/><feFlood flood-opacity="0.161"/><feComposite operator="in" in2="b"/><feComposite in="SourceGraphic"/></filter><filter id="c" x="405.441" y="200.088" width="24" height="24" filterUnits="userSpaceOnUse"><feOffset dy="3" input="SourceAlpha"/><feGaussianBlur stdDeviation="3" result="d"/><feFlood flood-opacity="0.161"/><feComposite operator="in" in2="d"/><feComposite in="SourceGraphic"/></filter><filter id="e" x="107" y="0" width="645" height="621" filterUnits="userSpaceOnUse"><feOffset dy="3" input="SourceAlpha"/><feGaussianBlur stdDeviation="3" result="f"/><feFlood flood-color="#bc8383" flood-opacity="0.529"/><feComposite operator="in" in2="f"/><feComposite in="SourceGraphic"/></filter></defs><g transform="translate(0 6)"><rect width="864" height="603" fill="none"/><g transform="translate(-231 -156)"><g transform="matrix(1, 0, 0, 1, 231, 150)" filter="url(#a)"><path d="M4.755,14.812l-4.55-4.55a.7.7,0,0,1,0-.99l.99-.99a.7.7,0,0,1,.99,0L5.25,11.347l6.565-6.565a.7.7,0,0,1,.99,0l.99.99a.7.7,0,0,1,0,.99l-8.05,8.05A.7.7,0,0,1,4.755,14.812Z" transform="translate(268.78 198.54)" fill="#fff"/></g><g transform="translate(636.441 347.087)"><circle cx="12" cy="12" r="12" fill="#d65e5e"/><g transform="matrix(1, 0, 0, 1, -405.44, -197.09)" filter="url(#c)"><circle cx="3" cy="3" r="3" transform="translate(414.44 206.09)" fill="#fff"/></g></g></g><g transform="translate(116)"><g transform="matrix(1, 0, 0, 1, -116, -6)" filter="url(#e)"><rect width="627" height="603" rx="12" transform="translate(116 6)" fill="#fff"/></g><text transform="translate(33 61)" fill="#744d4d" font-size="32" font-family="CarmenSans-ExtraBold, Carmen Sans" font-weight="800"><tspan x="0" y="0">Booking Summary</tspan></text><text transform="translate(33 94)" fill="#756262" font-size="16" font-family="CarmenSans-Medium, Carmen Sans" font-weight="500"><tspan x="0" y="18">Appointment </tspan><tspan y="18" fill="#d65e5e" font-family="CarmenSans-Bold, Carmen Sans" font-weight="700">today</tspan><tspan y="18" xml:space="preserve"> at </tspan><tspan y="18" fill="#d65e5e" font-family="CarmenSans-Bold, Carmen Sans" font-weight="700">3:30 pm</tspan><tspan y="18" fill="#d65e5e"> </tspan><tspan y="18">(EST) with </tspan><tspan y="18" fill="#d65e5e" font-family="CarmenSans-Bold, Carmen Sans" font-weight="700">Dr. Maria Perez </tspan><tspan x="0" y="40">(Veterinarian, DVM) for </tspan><tspan y="40" fill="#d65e5e" font-family="CarmenSans-Bold, Carmen Sans" font-weight="700">Diarrhea &amp; Vomiting </tspan></text><g transform="translate(-1068 -446)"><g transform="translate(-5 238)"><text transform="translate(1106 582)" fill="#756262" font-size="16" font-family="CarmenSans-Bold, Carmen Sans" font-weight="700"><tspan x="0" y="0">Visit Reason Description</tspan></text><text transform="translate(1106 593)" fill="#756262" font-size="16" font-family="CarmenSans-Medium, Carmen Sans" font-weight="500"><tspan x="0" y="18">Toast&apos;s stool has been very loose for over a </tspan><tspan x="0" y="40">week. He doesn&apos;t finish his food. He&apos;s had this </tspan><tspan x="0" y="62">issue one month ago but it resolved</tspan></text></g><g transform="translate(-5 470)"><g transform="translate(0 144)"><path d="M13.425,4.5H1.909A1.909,1.909,0,0,0,0,6.409V17.925a1.909,1.909,0,0,0,1.909,1.909H13.425a1.909,1.909,0,0,0,1.909-1.909V6.409A1.909,1.909,0,0,0,13.425,4.5Zm7.563,1.505L16.611,9.024v6.285l4.376,3.015A1.28,1.28,0,0,0,23,17.294V7.036A1.281,1.281,0,0,0,20.987,6.005Z" transform="translate(1106 342.5)" fill="#d65e5e"/><text transform="translate(1148 362)" fill="#756262" font-size="16" font-family="CarmenSans-Medium, Carmen Sans" font-weight="500"><tspan x="0" y="0">Video/On camera required</tspan></text></g><g transform="translate(0 90)"><g transform="translate(0 86)"><text transform="translate(1148 362)" fill="#756262" font-size="16" font-family="CarmenSans-Medium, Carmen Sans" font-weight="500"><tspan x="0" y="0">Vaccination Information required</tspan></text></g><path d="M19.9.4l1.438,1.438,1.438,1.438A1.077,1.077,0,0,1,21.248,4.8l-.674-.674L18.858,5.834,21.329,8.3a1.077,1.077,0,0,1-1.523,1.523L16.571,6.593l-3.235-3.23A1.077,1.077,0,0,1,14.86,1.84l2.471,2.471L19.047,2.6l-.678-.674A1.077,1.077,0,1,1,19.891.4ZM9.531,7.079l2.745-2.745a.423.423,0,0,0,.045.045l.719.719,2.516,2.516,2.516,2.516.719.719.045.045-8.581,8.581a2.512,2.512,0,0,1-1.779.737H4.482L1.925,22.771A1.077,1.077,0,0,1,.4,21.248l2.561-2.561V14.7A2.512,2.512,0,0,1,3.7,12.919l1.945-1.945,2.561,2.561a.718.718,0,0,0,1.015-1.015L6.661,9.958,8.521,8.1l2.561,2.561A.718.718,0,1,0,12.1,9.644L9.536,7.083Z" transform="translate(1105.912 430.912)" fill="#d65e5e"/></g><text transform="translate(1106 467)" fill="#744d4d" font-size="16" font-family="CarmenSans-Bold, Carmen Sans" font-weight="700"><tspan x="0" y="0">Required:</tspan></text></g></g><g transform="translate(-1073 -156)"><g transform="translate(0 -112)"><g transform="translate(0 188)"><text transform="translate(1106 280)" fill="#744d4d" font-size="20" font-family="CarmenSans-ExtraBold, Carmen Sans" font-weight="800"><tspan x="0" y="0">Appointment Cost</tspan></text><text transform="translate(1599 280)" fill="#744d4d" font-size="20" font-family="CarmenSans-ExtraBold, Carmen Sans" font-weight="800"><tspan x="0" y="0">$65.00</tspan></text></g><g transform="translate(0 -242)"><text transform="translate(1106 745)" fill="#756262" font-size="16" font-family="CarmenSans-Bold, Carmen Sans" font-weight="700"><tspan x="0" y="0">Booking fee</tspan></text></g><text transform="translate(1613 507)" fill="#756262" font-size="16" font-family="CarmenSans-Medium, Carmen Sans" font-weight="500"><tspan x="0" y="0">$10.00</tspan></text><g transform="translate(0 -204)"><text transform="translate(1106 745)" fill="#756262" font-size="16" font-family="CarmenSans-Bold, Carmen Sans" font-weight="700"><tspan x="0" y="0">Tax</tspan></text></g><text transform="translate(1624 541)" fill="#756262" font-size="16" font-family="CarmenSans-Medium, Carmen Sans" font-weight="500"><tspan x="0" y="0">$8.45</tspan></text></g><line x2="563" transform="translate(1106 318)" fill="none" stroke="#decfd3" stroke-width="1"/><g transform="translate(0 -15)"><g transform="translate(0 -259)"><text transform="translate(1106 745)" fill="#744d4d" font-size="20" font-family="CarmenSans-ExtraBold, Carmen Sans" font-weight="800"><tspan x="0" y="0">Total</tspan></text></g><text transform="translate(1599 490)" fill="#d65e5e" font-size="20" font-family="CarmenSans-ExtraBold, Carmen Sans" font-weight="800"><tspan x="0" y="0">$83.45</tspan></text></g><line x2="563" transform="translate(1106 496)" fill="none" stroke="#decfd3" stroke-width="1"/></g></g></g></svg>