<svg xmlns="http://www.w3.org/2000/svg" xmlns:xlink="http://www.w3.org/1999/xlink" width="829" height="2019" viewBox="0 0 829 2019"><defs><filter id="a" x="36" y="292.421" width="32" height="28.44" filterUnits="userSpaceOnUse"><feOffset dy="3" input="SourceAlpha"/><feGaussianBlur stdDeviation="3" result="b"/><feFlood flood-opacity="0.161"/><feComposite operator="in" in2="b"/><feComposite in="SourceGraphic"/></filter><filter id="c" x="225" y="294.641" width="24" height="24" filterUnits="userSpaceOnUse"><feOffset dy="3" input="SourceAlpha"/><feGaussianBlur stdDeviation="3" result="d"/><feFlood flood-opacity="0.161"/><feComposite operator="in" in2="d"/><feComposite in="SourceGraphic"/></filter><filter id="e" x="0" y="0" width="829" height="2019" filterUnits="userSpaceOnUse"><feOffset dy="3" input="SourceAlpha"/><feGaussianBlur stdDeviation="3" result="f"/><feFlood flood-color="#bc8383" flood-opacity="0.529"/><feComposite operator="in" in2="f"/><feComposite in="SourceGraphic"/></filter><filter id="g" x="37" y="292.2" width="32" height="28.44" filterUnits="userSpaceOnUse"><feOffset dy="3" input="SourceAlpha"/><feGaussianBlur stdDeviation="3" result="h"/><feFlood flood-opacity="0.161"/><feComposite operator="in" in2="h"/><feComposite in="SourceGraphic"/></filter><filter id="i" x="407" y="186.281" width="24" height="24" filterUnits="userSpaceOnUse"><feOffset dy="3" input="SourceAlpha"/><feGaussianBlur stdDeviation="3" result="j"/><feFlood flood-opacity="0.161"/><feComposite operator="in" in2="j"/><feComposite in="SourceGraphic"/></filter><filter id="k" x="216" y="183.841" width="32" height="28.44" filterUnits="userSpaceOnUse"><feOffset dy="3" input="SourceAlpha"/><feGaussianBlur stdDeviation="3" result="l"/><feFlood flood-opacity="0.161"/><feComposite operator="in" in2="l"/><feComposite in="SourceGraphic"/></filter><filter id="m" x="36" y="183.841" width="32" height="28.44" filterUnits="userSpaceOnUse"><feOffset dy="3" input="SourceAlpha"/><feGaussianBlur stdDeviation="3" result="n"/><feFlood flood-opacity="0.161"/><feComposite operator="in" in2="n"/><feComposite in="SourceGraphic"/></filter><clipPath id="o"><rect width="17" height="123" fill="none"/></clipPath><clipPath id="p"><rect width="17" height="119" fill="none"/></clipPath><filter id="q" x="33" y="1866" width="765" height="67" filterUnits="userSpaceOnUse"><feOffset dy="3" input="SourceAlpha"/><feGaussianBlur stdDeviation="3" result="r"/><feFlood flood-color="#fff" flood-opacity="0.09"/><feComposite operator="in" in2="r"/><feComposite in="SourceGraphic"/></filter></defs><g transform="translate(9 6)"><g transform="matrix(1, 0, 0, 1, -9, -6)" filter="url(#a)"><path d="M4.755,14.812l-4.55-4.55a.7.7,0,0,1,0-.99l.99-.99a.7.7,0,0,1,.99,0L5.25,11.347l6.565-6.565a.7.7,0,0,1,.99,0l.99.99a.7.7,0,0,1,0,.99l-8.05,8.05A.7.7,0,0,1,4.755,14.812Z" transform="translate(45 293.84)" fill="#fff"/></g><g transform="translate(-453 -174.359)"><circle cx="12" cy="12" r="12" transform="translate(669 460)" fill="#d65e5e"/><g transform="matrix(1, 0, 0, 1, 444, 168.36)" filter="url(#c)"><circle cx="3" cy="3" r="3" transform="translate(234 300.64)" fill="#fff"/></g></g><g transform="translate(-545 -155)"><g transform="translate(545 155)"><g transform="matrix(1, 0, 0, 1, -9, -6)" filter="url(#e)"><rect width="811" height="2001" rx="12" transform="translate(9 6)" fill="#fff"/></g></g><g transform="translate(1 341.113)"><g transform="translate(576 1760.886)"><path d="M13.989,14.135,20,8.129a1.135,1.135,0,0,0-1.608-1.6l-6.81,6.806a1.133,1.133,0,0,0-.033,1.565l6.839,6.853a1.135,1.135,0,1,0,1.608-1.6Z" transform="translate(-11.251 -1.08)" fill="#744d4d"/><text transform="translate(20.749 18)" fill="#744d4d" font-size="16" font-family="CarmenSans-Medium, Carmen Sans" font-weight="500"><tspan x="0" y="0">Back to vet selection</tspan></text></g><text transform="translate(1267 1778.886)" fill="#ff7272" font-size="16" font-family="CarmenSans-Medium, Carmen Sans" font-weight="500"><tspan x="0" y="0">Cancel</tspan></text></g></g><g transform="matrix(1, 0, 0, 1, -9, -6)" filter="url(#g)"><path d="M4.755,14.812l-4.55-4.55a.7.7,0,0,1,0-.99l.99-.99a.7.7,0,0,1,.99,0L5.25,11.347l6.565-6.565a.7.7,0,0,1,.99,0l.99.99a.7.7,0,0,1,0,.99l-8.05,8.05A.7.7,0,0,1,4.755,14.812Z" transform="translate(46 293.62)" fill="#fff"/></g><g transform="translate(0 267)"><rect width="811" height="77" fill="#d65e5e"/><text transform="translate(32 12.717)" fill="#fff" font-size="32" font-family="CarmenSans-ExtraBold, Carmen Sans" font-weight="800"><tspan x="0" y="36">Pet Info</tspan></text></g><g transform="translate(-230 -153)"><g transform="translate(262 178)"><g transform="translate(184 3)"><path d="M317.79,432.08a32.731,32.731,0,0,1-10.858-1.844l-.26-.091.214-1c-6.315-12.369-4.134-29.369,5.57-43.347,8.828-12.717,22.273-21.974,34.134-30.14h0a8.908,8.908,0,0,1,13.789,9.078l-4.193,21.047c-3.053,15.326-6.682,29.829-17.425,38.846a33.135,33.135,0,0,1-20.971,7.452Z" transform="translate(-303.314 -332.376)" fill="#d65e5e"/><path d="M311.52,498.706c-2.2-15.994-4.454-32.2-2.91-48.361,1.368-14.357,5.748-28.377,14.666-39.878a66.339,66.339,0,0,1,17.02-15.423c1.7-1.074,3.268,1.623,1.574,2.692a63.066,63.066,0,0,0-24.947,30.1c-5.431,13.813-6.3,28.872-5.368,43.546.565,8.874,1.767,17.689,2.974,26.495a1.615,1.615,0,0,1-1.089,1.918,1.569,1.569,0,0,1-1.918-1.089Z" transform="translate(-305.105 -347.604)" fill="#744d4d"/><path d="M358.658,515.208A24.5,24.5,0,0,1,338.3,504.241l-.152-.231.609-.517c1.832-10.073,10.707-19.068,22.644-22.937,10.848-3.516,22.864-2.941,33.463-2.432h0a6.64,6.64,0,0,1,4.077,11.61L387.1,500.19c-8.634,7.626-17.241,14.512-27.583,15C359.229,515.2,358.942,515.208,358.658,515.208Z" transform="translate(-316.344 -378.632)" fill="#d65e5e"/><path d="M303.526,546.651c10.569-18.7,22.827-39.485,44.733-46.128a49.916,49.916,0,0,1,18.814-1.943c2,.173,1.5,3.251-.495,3.08a46.374,46.374,0,0,0-30.026,7.944c-8.466,5.763-15.059,13.775-20.637,22.27-3.418,5.2-6.479,10.63-9.54,16.047C305.4,549.652,302.537,548.4,303.526,546.651Z" transform="translate(-303.317 -386.355)" fill="#744d4d"/><path d="M473.459,515.574a14.3,14.3,0,0,1-4.745-.806l-.26-.091.112-.523c-2.72-5.391-1.766-12.769,2.445-18.835,3.829-5.515,9.646-9.52,14.777-13.053h0a4.022,4.022,0,0,1,6.226,4.1l-1.81,9.084c-1.324,6.647-2.9,12.939-7.581,16.867a14.479,14.479,0,0,1-9.166,3.258Z" transform="translate(-364.557 -380.059)" fill="#d65e5e"/><path d="M470.859,544.259c-.948-6.9-1.922-13.9-1.256-20.872a32.831,32.831,0,0,1,6.33-17.211,28.629,28.629,0,0,1,7.346-6.657c.734-.464,1.41.7.679,1.162a27.219,27.219,0,0,0-10.767,12.991c-2.344,5.962-2.72,12.461-2.317,18.794.244,3.83.763,7.635,1.284,11.435a.7.7,0,0,1-.47.828.677.677,0,0,1-.828-.47Z" transform="translate(-365.436 -386.738)" fill="#744d4d"/><path d="M491.065,551.453a10.75,10.75,0,0,1-8.936-4.814l-.152-.231.334-.284c.828-4.386,4.693-8.292,9.882-9.974,4.713-1.527,9.915-1.279,14.506-1.058a3.044,3.044,0,0,1,1.869,5.322l-5.111,4.513c-3.751,3.313-7.493,6.305-12.014,6.519Q491.253,551.453,491.065,551.453Z" transform="translate(-370.147 -400.023)" fill="#d65e5e"/><path d="M467.409,564.951c4.562-8.071,9.852-17.042,19.307-19.909a21.546,21.546,0,0,1,8.12-.838c.862.075.647,1.4-.214,1.329a20.015,20.015,0,0,0-12.959,3.428,33.685,33.685,0,0,0-8.907,9.612c-1.475,2.246-2.8,4.588-4.118,6.926C468.217,566.247,466.982,565.707,467.409,564.951Z" transform="translate(-364.664 -403.463)" fill="#744d4d"/><path d="M890.5,521.3c-5.413,0-9.539-2.923-12.528-8.836-2.865-5.669.106-10.563,4.08-12.712s9.716-1.96,12.9,3.551h0A17.689,17.689,0,0,1,896,519.846l.118.551-.281.081A19.413,19.413,0,0,1,890.5,521.3Z" transform="translate(-517.85 -386.387)" fill="#d65e5e"/><path d="M899.189,552.259c2.768-15.657,2.943-35.487-12.42-44.74-.734-.464-1.41.7-.679,1.162,14.832,8.971,14.392,28.128,11.8,43.22a.674.674,0,0,0,1.3.357Z" transform="translate(-521.196 -389.73)" fill="#744d4d"/><path d="M788.591,550.278a13.152,13.152,0,0,1-5.561-1.4c-4.355-2.044-4.829-6.337-3.426-9.461,1.388-3.089,4.875-5.559,9.253-3.679a13.074,13.074,0,0,1,7.9,9.186l.356.3-.175.236C794.536,548.678,791.78,550.278,788.591,550.278Z" transform="translate(-481.217 -400.082)" fill="#d65e5e"/><path d="M810.765,564.925c-5.451-10.436-14.156-22.237-27.427-20.747-.862.074-.647,1.4.214,1.329,12.606-1.3,20.807,10.032,25.983,19.967C809.957,566.22,811.192,565.681,810.765,564.925Z" transform="translate(-482.672 -403.436)" fill="#744d4d"/><path d="M705.466,513.494H542.1a.626.626,0,0,1,0-1.252H705.466a.626.626,0,0,1,0,1.252Z" transform="translate(-392.403 -391.537)" fill="#cacaca"/><path d="M638.31,336.257l-1.076-13.39a1.814,1.814,0,0,0-2.969-.7c-8.632,2.118-12.116,6.625-13.113,12.285a38.672,38.672,0,0,0-12.606-.567c3.035-4.319,2.825-8.721-.331-13.2a1.814,1.814,0,0,0-2.956-.817c-5.839,2.951-9.923,6.629-10.58,11.725a38.935,38.935,0,1,0,43.632,4.659Z" transform="translate(-404.623 -319.401)" fill="#f38e61"/><path d="M639.106,430.161c31.556-4.048,49.308,47.425-1.6,50.293-3.124,3.427-27.605,6.293-48.353,1.561-18.623.746-39.793-23.613-13.687-56.838Z" transform="translate(-400.557 -358.969)" fill="#f38e61"/><path d="M426.623,155.888v26.04H438.8l9.659-26.515" transform="translate(-219.577 -58.136)" fill="#f38e61"/><path d="M702.54,502.969c-.067-.1-.115-.2-.173-.295l-1.556.057Z" transform="translate(-452.006 -387.958)" fill="#3f3d56"/><path d="M746.577,475.534c-3.886-6.212-13.4-7.938-19.217-3.488-2.627,2.008-4.4,4.911-6.642,7.339a24.6,24.6,0,0,1-14.29,7.563c-3.814.572-7.849.261-11.371,1.832-3.416,1.523-5.993,5.871-4.134,9.017l39.334-1.45c3.772-.139,7.678-.311,11.051-2.005C747.857,491.052,750.464,481.746,746.577,475.534Z" transform="translate(-448.075 -375.57)" fill="#f38e61"/><path d="M613.021,440.657a39.054,39.054,0,0,1-15.677-3.128,35.183,35.183,0,0,1-15.281-12.387.475.475,0,1,1,.809-.5,34.912,34.912,0,0,0,14.9,12.034c9.314,4.027,25.22,6.045,48.1-7.212a.475.475,0,1,1,.476.821h0C632.916,438.07,621.827,440.657,613.021,440.657Z" transform="translate(-407.56 -358.685)" fill="#fff"/><path d="M632.868,409.606a3.326,3.326,0,0,1-3.323-3.322.475.475,0,1,1,.949,0,2.373,2.373,0,1,0,4.746,0,.475.475,0,0,1,.949,0A3.326,3.326,0,0,1,632.868,409.606Z" transform="translate(-425.348 -351.724)" fill="#fff"/><ellipse cx="3.797" cy="1.46" rx="3.797" ry="1.46" transform="translate(203.96 47.166)" fill="#fff"/><path d="M592.062,384.006a11.577,11.577,0,0,1,17.771,0,12.868,12.868,0,1,0-18.193-.422Q591.846,383.8,592.062,384.006Z" transform="translate(-409.837 -335.273)" fill="#fff"/><path d="M647.57,384.006a11.577,11.577,0,0,1,17.771,0,12.868,12.868,0,1,0-18.193-.422h0Q647.353,383.8,647.57,384.006Z" transform="translate(-430.601 -335.273)" fill="#fff"/><circle cx="4.426" cy="4.426" r="4.426" transform="translate(181.043 36.251)" fill="#3f3d56"/><circle cx="4.426" cy="4.426" r="4.426" transform="translate(215.785 36.251)" fill="#3f3d56"/><circle cx="3.879" cy="3.879" r="3.879" transform="translate(222.39 50.343)" fill="#ffdce3"/><circle cx="3.879" cy="3.879" r="3.879" transform="translate(187.338 50.343)" fill="#ffdce3"/><ellipse cx="3.323" cy="9.968" rx="3.323" ry="9.968" transform="matrix(0.849, -0.529, 0.529, 0.849, 136.399, 105.971)" fill="#f38e61"/><path d="M347.835,142.389l-21.149,22.276,5.514,9.5,19.965-11.93" transform="translate(-182.194 -53.264)" fill="#f38e61"/><ellipse cx="3.323" cy="9.968" rx="3.323" ry="9.968" transform="translate(182.419 130.695) rotate(-81.579)" fill="#f38e61"/><path d="M397.024,155.777l3.278,30.54,10.788,2.24,3.858-23.231" transform="translate(-208.505 -58.272)" fill="#f38e61"/><ellipse cx="9.968" cy="3.323" rx="9.968" ry="3.323" transform="translate(225.493 124.167) rotate(-6.174)" fill="#f38e61"/><path d="M453.3,155.154l10.868,28.728,11-.55-2.121-23.454" transform="translate(-229.557 -58.039)" fill="#f38e61"/></g><g transform="translate(0 151.421)"><line x2="167.5" transform="translate(24 13.535)" fill="none" stroke="#744d4d" stroke-linecap="round" stroke-width="1.5"/><g transform="translate(191 8)"><g fill="#756262" stroke="#744d4d" stroke-width="1"><circle cx="5" cy="5" r="5" stroke="none"/><circle cx="5" cy="5" r="4.5" fill="none"/></g></g><g transform="translate(372 8)"><g fill="#744d4d" stroke="#744d4d" stroke-width="1"><circle cx="5" cy="5" r="5" stroke="none"/><circle cx="5" cy="5" r="4.5" fill="none"/></g></g><line x2="171" transform="translate(201.5 13.535)" fill="none" stroke="#744d4d" stroke-linecap="round" stroke-width="1.5"/><g transform="translate(552 8)"><g fill="#744d4d" stroke="#744d4d" stroke-width="1"><circle cx="5" cy="5" r="5" stroke="none"/><circle cx="5" cy="5" r="4.5" fill="none"/></g></g><line x2="170" transform="translate(382.5 13.535)" fill="none" stroke="#744d4d" stroke-linecap="round" stroke-width="1.5"/><g transform="translate(737 8)"><g fill="#744d4d" stroke="#744d4d" stroke-width="1"><circle cx="5" cy="5" r="5" stroke="none"/><circle cx="5" cy="5" r="4.5" fill="none"/></g></g><line x2="175" transform="translate(562.5 13.535)" fill="none" stroke="#744d4d" stroke-linecap="round" stroke-width="1.5"/><g transform="translate(0 28)"><text fill="#744d4d" font-size="14" font-family="CarmenSans-SemiBold, Carmen Sans" font-weight="600"><tspan x="0" y="16">CONCERNS</tspan></text><text transform="translate(0 19)" fill="#b2a9ac" font-size="14" font-family="CarmenSans-Regular, Carmen Sans"><tspan x="0" y="16">Step 1</tspan></text></g><g transform="translate(191 28)"><text fill="#744d4d" font-size="14" font-family="CarmenSans-SemiBold, Carmen Sans" font-weight="600"><tspan x="0" y="16">VET SELECTION</tspan></text><text transform="translate(1 19)" fill="#b2a9ac" font-size="14" font-family="CarmenSans-Regular, Carmen Sans"><tspan x="0" y="16">Step 2</tspan></text></g><g transform="translate(372 28)"><text fill="#744d4d" font-size="14" font-family="CarmenSans-SemiBold, Carmen Sans" font-weight="600"><tspan x="0" y="16">PET INFO</tspan></text><text transform="translate(0 19)" fill="#b2a9ac" font-size="14" font-family="CarmenSans-Regular, Carmen Sans"><tspan x="0" y="16">Step 3</tspan></text></g><g transform="translate(552 28)"><text fill="#744d4d" font-size="14" font-family="CarmenSans-SemiBold, Carmen Sans" font-weight="600"><tspan x="0" y="16">PAYMENT PLAN</tspan></text><text transform="translate(0 19)" fill="#b2a9ac" font-size="14" font-family="CarmenSans-Regular, Carmen Sans"><tspan x="0" y="16">Step 4</tspan></text></g><g transform="translate(677 28)"><text transform="translate(70 16)" fill="#744d4d" font-size="14" font-family="CarmenSans-SemiBold, Carmen Sans" font-weight="600"><tspan x="-43.19" y="0">BOOK</tspan></text><text transform="translate(22 19)" fill="#b2a9ac" font-size="14" font-family="CarmenSans-Regular, Carmen Sans"><tspan x="0" y="16">Step 5</tspan></text></g></g></g><g transform="translate(-41 -129.719)"><circle cx="12" cy="12" r="12" transform="translate(669 460)" fill="#d65e5e"/><g transform="matrix(1, 0, 0, 1, 262, 276.72)" filter="url(#i)"><circle cx="3" cy="3" r="3" transform="translate(416 192.28)" fill="#fff"/></g></g><g transform="translate(-136 -111.359)"><g transform="translate(577 441.42)"><circle cx="12" cy="12" r="12" fill="#d65e5e"/></g><g transform="matrix(1, 0, 0, 1, 357, 258.36)" filter="url(#k)"><path d="M4.755,14.812l-4.55-4.55a.7.7,0,0,1,0-.99l.99-.99a.7.7,0,0,1,.99,0L5.25,11.347l6.565-6.565a.7.7,0,0,1,.99,0l.99.99a.7.7,0,0,1,0,.99l-8.05,8.05A.7.7,0,0,1,4.755,14.812Z" transform="translate(225 185.26)" fill="#fff"/></g></g><g transform="translate(-316 -111.359)"><g transform="translate(577 441.42)"><circle cx="12" cy="12" r="12" fill="#d65e5e"/></g><g transform="matrix(1, 0, 0, 1, 537, 258.36)" filter="url(#m)"><path d="M4.755,14.812l-4.55-4.55a.7.7,0,0,1,0-.99l.99-.99a.7.7,0,0,1,.99,0L5.25,11.347l6.565-6.565a.7.7,0,0,1,.99,0l.99.99a.7.7,0,0,1,0,.99l-8.05,8.05A.7.7,0,0,1,4.755,14.812Z" transform="translate(45 185.26)" fill="#fff"/></g></g></g><g transform="translate(-230 -140)"><g transform="translate(0 -129)"><text transform="translate(279 851)" fill="#756262" font-size="16" font-family="CarmenSans-Medium, Carmen Sans" font-weight="500"><tspan x="0" y="0">Toast</tspan></text><text transform="translate(277 934)" fill="#756262" font-size="16" font-family="CarmenSans-Medium, Carmen Sans" font-weight="500"><tspan x="0" y="18">1</tspan></text><text transform="translate(664 935)" fill="#756262" font-size="16" font-family="CarmenSans-Medium, Carmen Sans" font-weight="500"><tspan x="0" y="18">British Shorthair</tspan></text><text transform="translate(277 1321)" fill="#756262" font-size="16" font-family="CarmenSans-Medium, Carmen Sans" font-weight="500"><tspan x="0" y="18">8</tspan></text><g transform="translate(0 -15)"><text transform="translate(262 652)" fill="#744d4d" font-size="20" font-family="CarmenSans-SemiBold, Carmen Sans" font-weight="600"><tspan x="0" y="22">Let&apos;s learn more about your feline family member!</tspan></text><text transform="translate(262 686)" fill="#744d4d" font-size="14" font-family="CarmenSans-SemiBold, Carmen Sans" font-weight="600"><tspan x="0" y="16">Your cat&apos;s information will be saved on your account so you may use it for future </tspan><tspan x="0" y="36">appointments. This information will help the vet give quality care. </tspan></text><g transform="translate(262 802)"><text fill="#d65e5e" font-size="16" font-family="CarmenSans-Medium, Carmen Sans" font-weight="500"><tspan x="0" y="18">First Name</tspan></text><g transform="translate(0 31)" fill="none" stroke="#decfd3" stroke-width="2"><rect width="365" height="55" rx="7" stroke="none"/><rect x="1" y="1" width="363" height="53" rx="6" fill="none"/></g></g><g transform="translate(645 802)"><text fill="#756262" font-size="16" font-family="CarmenSans-Medium, Carmen Sans" font-weight="500"><tspan x="0" y="18">Last Name (Optional)</tspan></text><g transform="translate(0 31)" fill="none" stroke="#decfd3" stroke-width="2"><rect width="365" height="55" rx="7" stroke="none"/><rect x="1" y="1" width="363" height="53" rx="6" fill="none"/></g></g><g transform="translate(68 -184)"><g transform="translate(385 1119)"><g transform="translate(129)" fill="#fffcfc" stroke="#decfd3" stroke-width="1"><path d="M0,0H35A10,10,0,0,1,45,10V46a9,9,0,0,1-9,9H0a0,0,0,0,1,0,0V0A0,0,0,0,1,0,0Z" stroke="none"/><path d="M.5.5H35A9.5,9.5,0,0,1,44.5,10V46A8.5,8.5,0,0,1,36,54.5H.5a0,0,0,0,1,0,0V.5A0,0,0,0,1,.5.5Z" fill="none"/></g><g fill="none" stroke="#decfd3" stroke-width="2"><rect width="174" height="55" rx="7" stroke="none"/><rect x="1" y="1" width="172" height="53" rx="6" fill="none"/></g><text transform="translate(20 15)" fill="#756262" font-size="16" font-family="CarmenSans-Medium, Carmen Sans" font-weight="500"><tspan x="0" y="18">Year</tspan></text><path d="M10.058,14.031.5,4.468a1.681,1.681,0,0,1,0-2.384L2.085.5A1.681,1.681,0,0,1,4.468.5l6.778,6.778L18.025.5a1.681,1.681,0,0,1,2.384,0L22,2.085a1.681,1.681,0,0,1,0,2.384l-9.562,9.562a1.672,1.672,0,0,1-2.377,0Z" transform="translate(138.95 21.237)" fill="#ef9a7a"/></g><g transform="translate(194 1088)"><text fill="#d65e5e" font-size="16" font-family="CarmenSans-Medium, Carmen Sans" font-weight="500"><tspan x="0" y="18">Age</tspan></text></g></g><g transform="translate(262 935)" fill="none" stroke="#decfd3" stroke-width="2"><rect width="175" height="55" rx="7" stroke="none"/><rect x="1" y="1" width="173" height="53" rx="6" fill="none"/></g><g transform="translate(645 904)"><text fill="#756262" font-size="16" font-family="CarmenSans-Medium, Carmen Sans" font-weight="500"><tspan x="0" y="18">Breed (Optional)</tspan></text><g transform="translate(0 31)" fill="none" stroke="#decfd3" stroke-width="2"><rect width="365" height="55" rx="7" stroke="none"/><rect x="1" y="1" width="363" height="53" rx="6" fill="none"/></g></g><g transform="translate(0 102)"><g transform="translate(68 -184)"><g transform="translate(194 1088)"><text fill="#d65e5e" font-size="16" font-family="CarmenSans-Medium, Carmen Sans" font-weight="500"><tspan x="0" y="18">Gender</tspan></text></g></g></g><g transform="translate(262 1037)"><g fill="#fff" stroke="#decfd3" stroke-width="2"><rect width="175" height="47" rx="5" stroke="none"/><rect x="1" y="1" width="173" height="45" rx="4" fill="none"/></g><g transform="translate(16 10)"><g transform="translate(0 3)" fill="#fff" stroke="#decfd3" stroke-width="2"><rect width="21" height="21" rx="10.5" stroke="none"/><rect x="1" y="1" width="19" height="19" rx="9.5" fill="none"/></g><g transform="translate(68.999)"><text transform="translate(-12.589 22)" fill="#744d4d" font-size="20" font-family="CarmenSans-SemiBold, Carmen Sans" font-weight="600"><tspan x="0" y="0">Female</tspan></text><path d="M22.217,9.421a7.171,7.171,0,1,0-8.366,7.072v2.49H10.265v2.39h3.586v3.187h2.39V21.373h3.586v-2.39H16.241v-2.49A7.17,7.17,0,0,0,22.217,9.421Zm-11.952,0A4.781,4.781,0,1,1,15.046,14.2,4.788,4.788,0,0,1,10.265,9.421Z" transform="translate(-47.398 0.159)" fill="#f38e61"/></g></g></g><g transform="translate(453 1037)"><rect width="174" height="47" rx="5" fill="#f38e61"/><g transform="translate(16 10)"><g transform="translate(72)"><text transform="translate(-10.59 22)" fill="#fffcfc" font-size="20" font-family="CarmenSans-SemiBold, Carmen Sans" font-weight="600"><tspan x="0" y="0">Male</tspan></text><path d="M21.235,3.375H15.023V5.7H19.59l-5.178,5.174a6.988,6.988,0,1,0,1.65,1.65L21.235,7.35v4.567h2.33V3.375ZM10.364,21.235a4.659,4.659,0,1,1,4.659-4.659A4.667,4.667,0,0,1,10.364,21.235Z" transform="translate(-45.698 0.03)" fill="#fffcfc"/></g><g transform="translate(0 3)" fill="none" stroke="#fff" stroke-width="2"><rect width="21" height="21" rx="10.5" stroke="none"/><rect x="1" y="1" width="19" height="19" rx="9.5" fill="none"/></g><rect width="13" height="13" rx="6.5" transform="translate(4 7)" fill="#fff"/></g></g><g transform="translate(0 196)"><g transform="translate(68 -184)"><g transform="translate(194 1088)"><text fill="#d65e5e" font-size="16" font-family="CarmenSans-Medium, Carmen Sans" font-weight="500"><tspan x="0" y="18">Are they spayed/neutered?</tspan></text></g></g></g><g transform="translate(34 26)"><g transform="translate(228 1105)"><rect width="175" height="47" rx="5" fill="#f38e61"/><g transform="translate(16 10)"><g transform="translate(0 3)" fill="none" stroke="#decfd3" stroke-width="2"><rect width="21" height="21" rx="10.5" stroke="none"/><rect x="1" y="1" width="19" height="19" rx="9.5" fill="none"/></g><g transform="translate(39.999)"><text transform="translate(18.001 22)" fill="#fffcfc" font-size="20" font-family="CarmenSans-SemiBold, Carmen Sans" font-weight="600"><tspan x="0" y="0">Yes</tspan></text><path d="M24.037,21.5a2.159,2.159,0,0,0,.888-1.67,2.335,2.335,0,0,0-.58-1.548c-.032-.064-.058-.122-.085-.181l-.011-.058a.694.694,0,0,1,.106-.532,2.331,2.331,0,0,0,.308-1.367,1.616,1.616,0,0,0-.516-1.234,1.014,1.014,0,0,1-.218-.973,2.051,2.051,0,0,0-.436-2.01c-.558-.628-1.08-.7-2.468-.622-.957.058-2.952.367-4.265.574-.537.085-1.005.16-1.149.17-.675.069-.808,0-.872-.261A1.724,1.724,0,0,1,15,11.1a11.4,11.4,0,0,0,.771-1.9,6.681,6.681,0,0,0-.144-4.8,1.738,1.738,0,0,0-1.4-1.016,2.116,2.116,0,0,0-1.484.42c-.181.213-.122.617-.33,1.425a15.506,15.506,0,0,1-.638,2.234,15.284,15.284,0,0,1-3.031,3.212c-.218.191-.4.356-.537.484A10.962,10.962,0,0,0,6.854,12.9a9.257,9.257,0,0,1-.729.984,1.921,1.921,0,0,1-1.186.58.427.427,0,0,0-.425.425v8.482a.44.44,0,0,0,.441.441,8.381,8.381,0,0,1,3.531.628,9.19,9.19,0,0,0,2.468.643,51.081,51.081,0,0,0,5.988.431,26.5,26.5,0,0,0,3.01-.207c1.649-.191,3.414-.574,4-1.968a1.5,1.5,0,0,0-.027-1.26.418.418,0,0,1-.043-.138A.451.451,0,0,1,24.037,21.5Z" transform="translate(-15.513 -0.882)" fill="#fffcfc"/></g></g></g><g transform="translate(419 1105)"><g fill="#fff" stroke="#decfd3" stroke-width="2"><rect width="174" height="47" rx="5" stroke="none"/><rect x="1" y="1" width="172" height="45" rx="4" fill="none"/></g><g transform="translate(-238.795 -1127)"><g transform="translate(254.795 1140)" fill="#fff" stroke="#decfd3" stroke-width="2"><rect width="21" height="21" rx="10.5" stroke="none"/><rect x="1" y="1" width="19" height="19" rx="9.5" fill="none"/></g><g transform="translate(-5)"><text transform="translate(324.205 1159)" fill="#744d4d" font-size="20" font-family="CarmenSans-SemiBold, Carmen Sans" font-weight="600"><tspan x="0" y="0">No</tspan></text><path d="M24.037,21.5a2.159,2.159,0,0,0,.888-1.67,2.335,2.335,0,0,0-.58-1.548c-.032-.064-.058-.122-.085-.181l-.011-.058a.694.694,0,0,1,.106-.532,2.331,2.331,0,0,0,.308-1.367,1.616,1.616,0,0,0-.516-1.234,1.014,1.014,0,0,1-.218-.973,2.051,2.051,0,0,0-.436-2.01c-.558-.628-1.08-.7-2.468-.622-.957.058-2.952.367-4.265.574-.537.085-1.005.16-1.149.17-.675.069-.808,0-.872-.261A1.724,1.724,0,0,1,15,11.1a11.4,11.4,0,0,0,.771-1.9,6.681,6.681,0,0,0-.144-4.8,1.738,1.738,0,0,0-1.4-1.016,2.116,2.116,0,0,0-1.484.42c-.181.213-.122.617-.33,1.425a15.506,15.506,0,0,1-.638,2.234,15.284,15.284,0,0,1-3.031,3.212c-.218.191-.4.356-.537.484A10.962,10.962,0,0,0,6.854,12.9a9.257,9.257,0,0,1-.729.984,1.921,1.921,0,0,1-1.186.58.427.427,0,0,0-.425.425v8.482a.44.44,0,0,0,.441.441,8.381,8.381,0,0,1,3.531.628,9.19,9.19,0,0,0,2.468.643,51.081,51.081,0,0,0,5.988.431,26.5,26.5,0,0,0,3.01-.207c1.649-.191,3.414-.574,4-1.968a1.5,1.5,0,0,0-.027-1.26.418.418,0,0,1-.043-.138A.451.451,0,0,1,24.037,21.5Z" transform="translate(313.72 1165.01) rotate(180)" fill="#ef9a7a"/></g></g></g></g><g transform="translate(0 290)"><g transform="translate(68 -184)"><g transform="translate(194 1088)"><text fill="#d65e5e" font-size="16" font-family="CarmenSans-Medium, Carmen Sans" font-weight="500"><tspan x="0" y="18">Are they an indoor or outdoor cat?</tspan></text></g></g></g><g transform="translate(34 120)"><g transform="translate(228 1105)"><rect width="175" height="47" rx="5" fill="#f38e61"/><g transform="translate(16 10)"><g transform="translate(0 3)" fill="#f38e61" stroke="#decfd3" stroke-width="2"><rect width="21" height="21" rx="10.5" stroke="none"/><rect x="1" y="1" width="19" height="19" rx="9.5" fill="none"/></g><g transform="translate(29)"><text transform="translate(27.411 22)" fill="#fffcfc" font-size="20" font-family="CarmenSans-SemiBold, Carmen Sans" font-weight="600"><tspan x="0" y="0">Indoor</tspan></text></g></g></g><g transform="translate(419 1105)"><g fill="#fff" stroke="#decfd3" stroke-width="2"><rect width="180" height="47" rx="5" stroke="none"/><rect x="1" y="1" width="178" height="45" rx="4" fill="none"/></g><g transform="translate(-238.795 -1127)"><g transform="translate(254.795 1140)" fill="#fff" stroke="#decfd3" stroke-width="2"><rect width="21" height="21" rx="10.5" stroke="none"/><rect x="1" y="1" width="19" height="19" rx="9.5" fill="none"/></g><g transform="translate(-13)"><text transform="translate(330.795 1159)" fill="#744d4d" font-size="20" font-family="CarmenSans-SemiBold, Carmen Sans" font-weight="600"><tspan x="0" y="0">Outdoor</tspan></text></g></g><path d="M14.778,14.785,11.657,11.25h1.2a.888.888,0,0,0,.812-.51.861.861,0,0,0-.128-.939L10.485,6.25h1.129a.885.885,0,0,0,.815-.532.869.869,0,0,0-.166-.941L7.956.188a.643.643,0,0,0-.911,0L2.737,4.778a.87.87,0,0,0-.166.941.886.886,0,0,0,.815.532H4.515L1.463,9.8a.862.862,0,0,0-.128.939.887.887,0,0,0,.812.51h1.2L.222,14.785a.864.864,0,0,0-.139.948A.906.906,0,0,0,.9,16.25H6.25V17.2L5.067,19.1a.625.625,0,0,0,.559.9H9.374a.625.625,0,0,0,.559-.9L8.75,17.2V16.25H14.1a.906.906,0,0,0,.821-.518A.864.864,0,0,0,14.778,14.785Z" transform="translate(46 13.001)" fill="#f38e61"/></g></g><g transform="translate(649 1225)"><g fill="#fff" stroke="#decfd3" stroke-width="2"><rect width="174" height="47" rx="5" stroke="none"/><rect x="1" y="1" width="172" height="45" rx="4" fill="none"/></g><g transform="translate(-238.795 -1127)"><g transform="translate(254.795 1140)" fill="#fff" stroke="#decfd3" stroke-width="2"><rect width="21" height="21" rx="10.5" stroke="none"/><rect x="1" y="1" width="19" height="19" rx="9.5" fill="none"/></g><g transform="translate(-13)"><text transform="translate(300.205 1159)" fill="#744d4d" font-size="20" font-family="CarmenSans-SemiBold, Carmen Sans" font-weight="600"><tspan x="0" y="0">Both</tspan></text></g></g></g><path d="M23.513,14.3,13.042,6.175,2.571,14.3V10.989L13.042,2.861l10.471,8.128Zm-2.618-.3v7.853H15.66V16.626H10.424v5.236H5.189V14.008l7.853-5.89Z" transform="translate(304.43 1236.139)" fill="#fffcfc"/><g transform="translate(0 384)"><g transform="translate(68 -184)"><g transform="translate(385 1119)"><g transform="translate(129)" fill="#fffcfc" stroke="#decfd3" stroke-width="1"><path d="M0,0H35A10,10,0,0,1,45,10V46a9,9,0,0,1-9,9H0a0,0,0,0,1,0,0V0A0,0,0,0,1,0,0Z" stroke="none"/><path d="M.5.5H35A9.5,9.5,0,0,1,44.5,10V46A8.5,8.5,0,0,1,36,54.5H.5a0,0,0,0,1,0,0V.5A0,0,0,0,1,.5.5Z" fill="none"/></g><g fill="none" stroke="#decfd3" stroke-width="2"><rect width="174" height="55" rx="7" stroke="none"/><rect x="1" y="1" width="172" height="53" rx="6" fill="none"/></g><text transform="translate(20 15)" fill="#756262" font-size="16" font-family="CarmenSans-Medium, Carmen Sans" font-weight="500"><tspan x="0" y="18">Lbs</tspan></text><path d="M10.058,14.031.5,4.468a1.681,1.681,0,0,1,0-2.384L2.085.5A1.681,1.681,0,0,1,4.468.5l6.778,6.778L18.025.5a1.681,1.681,0,0,1,2.384,0L22,2.085a1.681,1.681,0,0,1,0,2.384l-9.562,9.562a1.672,1.672,0,0,1-2.377,0Z" transform="translate(138.95 21.237)" fill="#ef9a7a"/></g><g transform="translate(194 1088)"><text fill="#d65e5e" font-size="16" font-family="CarmenSans-Medium, Carmen Sans" font-weight="500"><tspan x="0" y="18">Weight</tspan></text></g></g><g transform="translate(262 935)" fill="none" stroke="#decfd3" stroke-width="2"><rect width="175" height="55" rx="7" stroke="none"/><rect x="1" y="1" width="173" height="53" rx="6" fill="none"/></g></g><text transform="translate(262 759)" fill="#744d4d" font-size="20" font-family="CarmenSans-SemiBold, Carmen Sans" font-weight="600"><tspan x="0" y="22">General Information</tspan></text><line x2="748" transform="translate(262.5 743)" fill="none" stroke="#decfd3" stroke-width="1"/><path d="M18,20.679l8.93-8.937a1.681,1.681,0,0,1,2.384,0,1.7,1.7,0,0,1,0,2.391L19.2,24.258a1.685,1.685,0,0,1-2.327.049L6.68,14.14a1.688,1.688,0,0,1,2.384-2.391Z" transform="translate(1016.188 790.498) rotate(180)" fill="#744d4d"/></g><g transform="translate(278 1126)"><g transform="translate(0 3)" fill="none" stroke="#fff" stroke-width="2"><rect width="21" height="21" rx="10.5" stroke="none"/><rect x="1" y="1" width="19" height="19" rx="9.5" fill="none"/></g><rect width="13" height="13" rx="6.5" transform="translate(4 7)" fill="#fff"/></g><g transform="translate(278 1220)"><g transform="translate(0 3)" fill="none" stroke="#fff" stroke-width="2"><rect width="21" height="21" rx="10.5" stroke="none"/><rect x="1" y="1" width="19" height="19" rx="9.5" fill="none"/></g><rect width="13" height="13" rx="6.5" transform="translate(4 7)" fill="#fff"/></g></g><g transform="translate(0 -129)"><path d="M18,20.679l8.93-8.937a1.681,1.681,0,0,1,2.384,0,1.7,1.7,0,0,1,0,2.391L19.2,24.258a1.685,1.685,0,0,1-2.327.049L6.68,14.14a1.688,1.688,0,0,1,2.384-2.391Z" transform="translate(1016.188 1441.498) rotate(180)" fill="#744d4d"/><g transform="translate(0 -15)"><text transform="translate(262 1406)" fill="#744d4d" font-size="20" font-family="CarmenSans-SemiBold, Carmen Sans" font-weight="600"><tspan x="0" y="22">Medical Information</tspan></text><line x2="748" transform="translate(262.5 1390)" fill="none" stroke="#decfd3" stroke-width="1"/><text transform="translate(263 1441)" fill="#744d4d" font-size="14" font-family="CarmenSans-SemiBold, Carmen Sans" font-weight="600"><tspan x="0" y="16">What do you need your vet to know about your cat? This well help the Vet provide care </tspan><tspan x="0" y="36">that is specific to your cats medical needs.</tspan></text><g transform="translate(262 1498)"><text fill="#756262" font-size="16" font-family="CarmenSans-Medium, Carmen Sans" font-weight="500"><tspan x="0" y="18">Does your feline have any special needs? If yes, please state below.</tspan></text><g transform="translate(0 38)"><g fill="none" stroke="#decfd3" stroke-width="2"><rect width="744" height="98" rx="7" stroke="none"/><rect x="1" y="1" width="742" height="96" rx="6" fill="none"/></g><text transform="translate(19 15)" fill="#b2a9ac" font-size="16" font-family="CarmenSans-Medium, Carmen Sans" font-weight="500"><tspan x="0" y="18">Enter special needs if any</tspan></text></g></g><g transform="translate(262 1650)"><text fill="#756262" font-size="16" font-family="CarmenSans-Medium, Carmen Sans" font-weight="500"><tspan x="0" y="18">Does your feline have any allergies? Please state below</tspan></text><g transform="translate(0 38)"><g fill="none" stroke="#decfd3" stroke-width="2"><rect width="744" height="52" rx="7" stroke="none"/><rect x="1" y="1" width="742" height="50" rx="6" fill="none"/></g><text transform="translate(19 15)" fill="#756262" font-size="16" font-family="CarmenSans-Medium, Carmen Sans" font-weight="500"><tspan x="0" y="18">Beef</tspan></text></g></g><g transform="translate(-4)"><text transform="translate(266 1756)" fill="#756262" font-size="16" font-family="CarmenSans-Medium, Carmen Sans" font-weight="500"><tspan x="0" y="18">Does your feline take any medication? If yes, please state below.</tspan></text><g transform="translate(266 1794)"><g fill="none" stroke="#decfd3" stroke-width="2"><rect width="744" height="52" rx="7" stroke="none"/><rect x="1" y="1" width="742" height="50" rx="6" fill="none"/></g><text transform="translate(19 15)" fill="#b2a9ac" font-size="16" font-family="CarmenSans-Medium, Carmen Sans" font-weight="500"><tspan x="0" y="18">Medication</tspan></text></g></g><g transform="translate(-12526 12308)"><text transform="translate(12788 -10441)" fill="#756262" font-size="16" font-family="CarmenSans-Medium, Carmen Sans" font-weight="500"><tspan x="0" y="18">Does your cat have any vaccinations? </tspan><tspan fill="#ff7272"><tspan x="0" y="40">Required: Maria Perez requests vaccination information.</tspan></tspan></text></g><g transform="translate(34 822)"><g transform="translate(228 1105)"><rect width="175" height="47" rx="5" fill="#f38e61"/><g transform="translate(16 10)"><g transform="translate(30)"><text transform="translate(27.411 22)" fill="#fff" font-size="20" font-family="CarmenSans-SemiBold, Carmen Sans" font-weight="600"><tspan x="0" y="0">Yes</tspan></text><path d="M24.037,21.5a2.159,2.159,0,0,0,.888-1.67,2.335,2.335,0,0,0-.58-1.548c-.032-.064-.058-.122-.085-.181l-.011-.058a.694.694,0,0,1,.106-.532,2.331,2.331,0,0,0,.308-1.367,1.616,1.616,0,0,0-.516-1.234,1.014,1.014,0,0,1-.218-.973,2.051,2.051,0,0,0-.436-2.01c-.558-.628-1.08-.7-2.468-.622-.957.058-2.952.367-4.265.574-.537.085-1.005.16-1.149.17-.675.069-.808,0-.872-.261A1.724,1.724,0,0,1,15,11.1a11.4,11.4,0,0,0,.771-1.9,6.681,6.681,0,0,0-.144-4.8,1.738,1.738,0,0,0-1.4-1.016,2.116,2.116,0,0,0-1.484.42c-.181.213-.122.617-.33,1.425a15.506,15.506,0,0,1-.638,2.234,15.284,15.284,0,0,1-3.031,3.212c-.218.191-.4.356-.537.484A10.962,10.962,0,0,0,6.854,12.9a9.257,9.257,0,0,1-.729.984,1.921,1.921,0,0,1-1.186.58.427.427,0,0,0-.425.425v8.482a.44.44,0,0,0,.441.441,8.381,8.381,0,0,1,3.531.628,9.19,9.19,0,0,0,2.468.643,51.081,51.081,0,0,0,5.988.431,26.5,26.5,0,0,0,3.01-.207c1.649-.191,3.414-.574,4-1.968a1.5,1.5,0,0,0-.027-1.26.418.418,0,0,1-.043-.138A.451.451,0,0,1,24.037,21.5Z" transform="translate(-4.514 -0.882)" fill="#fff"/></g><g transform="translate(0 3)" fill="none" stroke="#fff" stroke-width="2"><rect width="21" height="21" rx="10.5" stroke="none"/><rect x="1" y="1" width="19" height="19" rx="9.5" fill="none"/></g><rect width="13" height="13" rx="6.5" transform="translate(4 7)" fill="#fff"/></g></g><g transform="translate(419 1105)"><g fill="#fff" stroke="#decfd3" stroke-width="2"><rect width="174" height="47" rx="5" stroke="none"/><rect x="1" y="1" width="172" height="45" rx="4" fill="none"/></g><g transform="translate(-238.795 -1127)"><g transform="translate(254.795 1140)" fill="#fff" stroke="#decfd3" stroke-width="2"><rect width="21" height="21" rx="10.5" stroke="none"/><rect x="1" y="1" width="19" height="19" rx="9.5" fill="none"/></g><g transform="translate(-5)"><text transform="translate(324.205 1159)" fill="#744d4d" font-size="20" font-family="CarmenSans-SemiBold, Carmen Sans" font-weight="600"><tspan x="0" y="0">No</tspan></text><path d="M24.037,21.5a2.159,2.159,0,0,0,.888-1.67,2.335,2.335,0,0,0-.58-1.548c-.032-.064-.058-.122-.085-.181l-.011-.058a.694.694,0,0,1,.106-.532,2.331,2.331,0,0,0,.308-1.367,1.616,1.616,0,0,0-.516-1.234,1.014,1.014,0,0,1-.218-.973,2.051,2.051,0,0,0-.436-2.01c-.558-.628-1.08-.7-2.468-.622-.957.058-2.952.367-4.265.574-.537.085-1.005.16-1.149.17-.675.069-.808,0-.872-.261A1.724,1.724,0,0,1,15,11.1a11.4,11.4,0,0,0,.771-1.9,6.681,6.681,0,0,0-.144-4.8,1.738,1.738,0,0,0-1.4-1.016,2.116,2.116,0,0,0-1.484.42c-.181.213-.122.617-.33,1.425a15.506,15.506,0,0,1-.638,2.234,15.284,15.284,0,0,1-3.031,3.212c-.218.191-.4.356-.537.484A10.962,10.962,0,0,0,6.854,12.9a9.257,9.257,0,0,1-.729.984,1.921,1.921,0,0,1-1.186.58.427.427,0,0,0-.425.425v8.482a.44.44,0,0,0,.441.441,8.381,8.381,0,0,1,3.531.628,9.19,9.19,0,0,0,2.468.643,51.081,51.081,0,0,0,5.988.431,26.5,26.5,0,0,0,3.01-.207c1.649-.191,3.414-.574,4-1.968a1.5,1.5,0,0,0-.027-1.26.418.418,0,0,1-.043-.138A.451.451,0,0,1,24.037,21.5Z" transform="translate(321.719 1165.01) rotate(180)" fill="#ef9a7a"/></g></g></g></g><g transform="translate(-14975 -1157)"><text transform="translate(15265 3147)" fill="#756262" font-size="16" font-family="CarmenSans-Medium, Carmen Sans" font-weight="500"><tspan x="0" y="18">Panleukopenia </tspan><tspan x="0" y="50">FHV-1</tspan><tspan x="0" y="82">Caliciviruses</tspan><tspan x="0" y="114">Rabies</tspan></text><g transform="translate(15237 3152)" clip-path="url(#o)"><g transform="translate(-603 -1100)"><g transform="translate(603 1100)" fill="#fff" stroke="#decfd3" stroke-width="2"><rect width="17" height="17" rx="4" stroke="none"/><rect x="1" y="1" width="15" height="15" rx="3" fill="none"/></g></g><g transform="translate(-603 -1068)"><g transform="translate(603 1100)" fill="#fff" stroke="#decfd3" stroke-width="2"><rect width="17" height="17" rx="4" stroke="none"/><rect x="1" y="1" width="15" height="15" rx="3" fill="none"/></g></g><g transform="translate(-603 -1036)"><g transform="translate(603 1100)" fill="#fff" stroke="#decfd3" stroke-width="2"><rect width="17" height="17" rx="4" stroke="none"/><rect x="1" y="1" width="15" height="15" rx="3" fill="none"/></g></g><g transform="translate(-603 -1004)"><g transform="translate(603 1100)" fill="#fff" stroke="#decfd3" stroke-width="2"><rect width="17" height="17" rx="4" stroke="none"/><rect x="1" y="1" width="15" height="15" rx="3" fill="none"/></g></g></g><g transform="translate(15516 3152)" clip-path="url(#p)"><g transform="translate(-603 -1100)"><g transform="translate(603 1100)" fill="#fff" stroke="#decfd3" stroke-width="2"><rect width="17" height="17" rx="4" stroke="none"/><rect x="1" y="1" width="15" height="15" rx="3" fill="none"/></g></g><g transform="translate(-603 -1068)"><g transform="translate(603 1100)" fill="#fff" stroke="#decfd3" stroke-width="2"><rect width="17" height="17" rx="4" stroke="none"/><rect x="1" y="1" width="15" height="15" rx="3" fill="none"/></g></g><g transform="translate(-603 -1036)"><g transform="translate(603 1100)" fill="#fff" stroke="#decfd3" stroke-width="2"><rect width="17" height="17" rx="4" stroke="none"/><rect x="1" y="1" width="15" height="15" rx="3" fill="none"/></g></g><g transform="translate(-603 -1004)"><g transform="translate(603 1100)" fill="#fff" stroke="#decfd3" stroke-width="2"><rect width="17" height="17" rx="4" stroke="none"/><rect x="1" y="1" width="15" height="15" rx="3" fill="none"/></g></g></g><text transform="translate(15544 3147)" fill="#756262" font-size="16" font-family="CarmenSans-Medium, Carmen Sans" font-weight="500"><tspan x="0" y="18">Feline infectious peritonitis (FIP)</tspan><tspan x="0" y="50">Leukemia (FeLV)</tspan><tspan x="0" y="82">Chlamydophila felis</tspan><tspan x="0" y="114">Bordetella bronchiseptica </tspan></text></g><g transform="translate(263 2150)"><g transform="matrix(1, 0, 0, 1, -42, -1872)" filter="url(#q)"><g transform="translate(42 1872)" fill="#f38e61" stroke="#f38e61" stroke-width="1"><rect width="747" height="49" rx="7" stroke="none"/><rect x="0.5" y="0.5" width="746" height="48" rx="6.5" fill="none"/></g></g><text transform="translate(291 33)" fill="#fff" font-size="20" font-family="CarmenSans-SemiBold, Carmen Sans" font-weight="600"><tspan x="0" y="0">Add Pet &amp; Continue</tspan></text></g></g><g transform="translate(262 2012)"><rect width="17" height="17" rx="4" fill="#f38e61"/><path d="M4.755,14.812l-4.55-4.55a.7.7,0,0,1,0-.99l.99-.99a.7.7,0,0,1,.99,0L5.25,11.347l6.565-6.565a.7.7,0,0,1,.99,0l.99.99a.7.7,0,0,1,0,.99l-8.05,8.05A.7.7,0,0,1,4.755,14.812Z" transform="translate(1.5 -1.297)" fill="#fff"/></g><g transform="translate(262 2076)"><rect width="17" height="17" rx="4" fill="#f38e61"/><path d="M4.755,14.812l-4.55-4.55a.7.7,0,0,1,0-.99l.99-.99a.7.7,0,0,1,.99,0L5.25,11.347l6.565-6.565a.7.7,0,0,1,.99,0l.99.99a.7.7,0,0,1,0,.99l-8.05,8.05A.7.7,0,0,1,4.755,14.812Z" transform="translate(1.5 -1.297)" fill="#fff"/></g><g transform="translate(262 1980)"><rect width="17" height="17" rx="4" fill="#f38e61"/><path d="M4.755,14.812l-4.55-4.55a.7.7,0,0,1,0-.99l.99-.99a.7.7,0,0,1,.99,0L5.25,11.347l6.565-6.565a.7.7,0,0,1,.99,0l.99.99a.7.7,0,0,1,0,.99l-8.05,8.05A.7.7,0,0,1,4.755,14.812Z" transform="translate(1.5 -1.297)" fill="#fff"/></g></g></g></g></svg>