<svg xmlns="http://www.w3.org/2000/svg" xmlns:xlink="http://www.w3.org/1999/xlink" width="829" height="2007" viewBox="0 0 829 2007"><defs><filter id="a" x="0" y="0" width="829" height="2007" filterUnits="userSpaceOnUse"><feOffset dy="3" input="SourceAlpha"/><feGaussianBlur stdDeviation="3" result="b"/><feFlood flood-color="#bc8383" flood-opacity="0.529"/><feComposite operator="in" in2="b"/><feComposite in="SourceGraphic"/></filter><clipPath id="c"><rect width="17" height="209" fill="none"/></clipPath><clipPath id="d"><rect width="17" height="190" fill="none"/></clipPath><filter id="f" x="37" y="297.42" width="24" height="24" filterUnits="userSpaceOnUse"><feOffset dy="3" input="SourceAlpha"/><feGaussianBlur stdDeviation="3" result="g"/><feFlood flood-opacity="0.161"/><feComposite operator="in" in2="g"/><feComposite in="SourceGraphic"/></filter></defs><g transform="translate(9 6)"><g transform="matrix(1, 0, 0, 1, -9, -6)" filter="url(#a)"><rect width="811" height="1989" rx="12" transform="translate(9 6)" fill="#fff"/></g><g transform="translate(-200 -220)"><g transform="translate(228 714)"><text fill="#744d4d" font-size="20" font-family="CarmenSans-SemiBold, Carmen Sans" font-weight="600"><tspan x="0" y="22">Is your cat experiencing any of these symptoms?</tspan></text><g transform="translate(-241 -730)"><g transform="translate(241 773)"><rect width="8" height="8" rx="4" transform="translate(0 9)" fill="#744d4d"/><text transform="translate(18)" fill="#756262" font-size="16" font-family="CarmenSans-Medium, Carmen Sans" font-weight="500"><tspan x="0" y="18">Uncontrolled Bleeding</tspan></text></g><g transform="translate(676 773)"><rect width="8" height="8" rx="4" transform="translate(0 9)" fill="#744d4d"/><text transform="translate(18)" fill="#756262" font-size="16" font-family="CarmenSans-Medium, Carmen Sans" font-weight="500"><tspan x="0" y="18">Unconsciousness</tspan></text></g><g transform="translate(241 805)"><rect width="8" height="8" rx="4" transform="translate(0 9)" fill="#744d4d"/><text transform="translate(18)" fill="#756262" font-size="16" font-family="CarmenSans-Medium, Carmen Sans" font-weight="500"><tspan x="0" y="18">Vomiting or blood in diarrhea</tspan></text></g><g transform="translate(676 805)"><rect width="8" height="8" rx="4" transform="translate(0 9)" fill="#744d4d"/><text transform="translate(18)" fill="#756262" font-size="16" font-family="CarmenSans-Medium, Carmen Sans" font-weight="500"><tspan x="0" y="18">Severe injury (falls, car accidents, </tspan><tspan x="0" y="40">broken bones, open wounds)</tspan></text></g><g transform="translate(241 837)"><rect width="8" height="8" rx="4" transform="translate(0 9)" fill="#744d4d"/><text transform="translate(18)" fill="#756262" font-size="16" font-family="CarmenSans-Medium, Carmen Sans" font-weight="500"><tspan x="0" y="18" xml:space="preserve"> Lameness or inability to walk</tspan></text></g><g transform="translate(676 862)"><rect width="8" height="8" rx="4" transform="translate(0 9)" fill="#744d4d"/><text transform="translate(18)" fill="#756262" font-size="16" font-family="CarmenSans-Medium, Carmen Sans" font-weight="500"><tspan x="0" y="18">Unable to deliver puppies or kittens</tspan></text></g><g transform="translate(241 869)"><rect width="8" height="8" rx="4" transform="translate(0 9)" fill="#744d4d"/><text transform="translate(18)" fill="#756262" font-size="16" font-family="CarmenSans-Medium, Carmen Sans" font-weight="500"><tspan x="0" y="18">Bloated, swollen or painful abdomen</tspan></text></g><g transform="translate(676 894)"><rect width="8" height="8" rx="4" transform="translate(0 9)" fill="#744d4d"/><text transform="translate(18)" fill="#756262" font-size="16" font-family="CarmenSans-Medium, Carmen Sans" font-weight="500"><tspan x="0" y="18">Loss of balance</tspan></text></g><g transform="translate(241 901)"><rect width="8" height="8" rx="4" transform="translate(0 9)" fill="#744d4d"/><text transform="translate(18)" fill="#756262" font-size="16" font-family="CarmenSans-Medium, Carmen Sans" font-weight="500"><tspan x="0" y="18">Seizures</tspan></text></g><g transform="translate(676 926)"><rect width="8" height="8" rx="4" transform="translate(0 9)" fill="#744d4d"/><text transform="translate(18)" fill="#756262" font-size="16" font-family="CarmenSans-Medium, Carmen Sans" font-weight="500"><tspan x="0" y="18">Obvious pain</tspan></text></g><g transform="translate(241 933)"><rect width="8" height="8" rx="4" transform="translate(0 9)" fill="#744d4d"/><text transform="translate(18)" fill="#756262" font-size="16" font-family="CarmenSans-Medium, Carmen Sans" font-weight="500"><tspan x="0" y="18">Sudden blindness, staggering </tspan><tspan x="0" y="40">or stumbling</tspan></text></g><g transform="translate(676 958)"><rect width="8" height="8" rx="4" transform="translate(0 9)" fill="#744d4d"/><text transform="translate(18)" fill="#756262" font-size="16" font-family="CarmenSans-Medium, Carmen Sans" font-weight="500"><tspan x="0" y="18">Difficulty breathing, extreme </tspan><tspan x="0" y="40">coughing or choking</tspan></text></g><g transform="translate(241 991)"><rect width="8" height="8" rx="4" transform="translate(0 9)" fill="#744d4d"/><text transform="translate(18)" fill="#756262" font-size="16" font-family="CarmenSans-Medium, Carmen Sans" font-weight="500"><tspan x="0" y="18">Ingestion of poisonous foods, </tspan><tspan x="0" y="40">substances, plants, or bones</tspan></text></g></g></g><g transform="translate(0 -66)"><g transform="translate(228 1105)"><g fill="#fff" stroke="#decfd3" stroke-width="2"><rect width="133" height="47" rx="5" stroke="none"/><rect x="1" y="1" width="131" height="45" rx="4" fill="none"/></g><g transform="translate(-238.795 -1127)"><g transform="translate(254.795 1140)" fill="#fff" stroke="#decfd3" stroke-width="2"><rect width="21" height="21" rx="10.5" stroke="none"/><rect x="1" y="1" width="19" height="19" rx="9.5" fill="none"/></g><g transform="translate(-5)"><text transform="translate(324.205 1159)" fill="#744d4d" font-size="20" font-family="CarmenSans-SemiBold, Carmen Sans" font-weight="600"><tspan x="0" y="0">Yes</tspan></text><path d="M24.037,21.5a2.159,2.159,0,0,0,.888-1.67,2.335,2.335,0,0,0-.58-1.548c-.032-.064-.058-.122-.085-.181l-.011-.058a.694.694,0,0,1,.106-.532,2.331,2.331,0,0,0,.308-1.367,1.616,1.616,0,0,0-.516-1.234,1.014,1.014,0,0,1-.218-.973,2.051,2.051,0,0,0-.436-2.01c-.558-.628-1.08-.7-2.468-.622-.957.058-2.952.367-4.265.574-.537.085-1.005.16-1.149.17-.675.069-.808,0-.872-.261A1.724,1.724,0,0,1,15,11.1a11.4,11.4,0,0,0,.771-1.9,6.681,6.681,0,0,0-.144-4.8,1.738,1.738,0,0,0-1.4-1.016,2.116,2.116,0,0,0-1.484.42c-.181.213-.122.617-.33,1.425a15.506,15.506,0,0,1-.638,2.234,15.284,15.284,0,0,1-3.031,3.212c-.218.191-.4.356-.537.484A10.962,10.962,0,0,0,6.854,12.9a9.257,9.257,0,0,1-.729.984,1.921,1.921,0,0,1-1.186.58.427.427,0,0,0-.425.425v8.482a.44.44,0,0,0,.441.441,8.381,8.381,0,0,1,3.531.628,9.19,9.19,0,0,0,2.468.643,51.081,51.081,0,0,0,5.988.431,26.5,26.5,0,0,0,3.01-.207c1.649-.191,3.414-.574,4-1.968a1.5,1.5,0,0,0-.027-1.26.418.418,0,0,1-.043-.138A.451.451,0,0,1,24.037,21.5Z" transform="translate(292.28 1136.118)" fill="#ef9a7a"/></g></g></g><g transform="translate(386 1105)"><rect width="133" height="47" rx="5" fill="#f38e61"/><g transform="translate(-238.795 -1127)"><g transform="translate(254.795 1140)" fill="none" stroke="#fff" stroke-width="2"><rect width="21" height="21" rx="10.5" stroke="none"/><rect x="1" y="1" width="19" height="19" rx="9.5" fill="none"/></g><g transform="translate(-5)"><text transform="translate(324.205 1159)" fill="#fff" font-size="20" font-family="CarmenSans-SemiBold, Carmen Sans" font-weight="600"><tspan x="0" y="0">No</tspan></text><path d="M24.037,21.5a2.159,2.159,0,0,0,.888-1.67,2.335,2.335,0,0,0-.58-1.548c-.032-.064-.058-.122-.085-.181l-.011-.058a.694.694,0,0,1,.106-.532,2.331,2.331,0,0,0,.308-1.367,1.616,1.616,0,0,0-.516-1.234,1.014,1.014,0,0,1-.218-.973,2.051,2.051,0,0,0-.436-2.01c-.558-.628-1.08-.7-2.468-.622-.957.058-2.952.367-4.265.574-.537.085-1.005.16-1.149.17-.675.069-.808,0-.872-.261A1.724,1.724,0,0,1,15,11.1a11.4,11.4,0,0,0,.771-1.9,6.681,6.681,0,0,0-.144-4.8,1.738,1.738,0,0,0-1.4-1.016,2.116,2.116,0,0,0-1.484.42c-.181.213-.122.617-.33,1.425a15.506,15.506,0,0,1-.638,2.234,15.284,15.284,0,0,1-3.031,3.212c-.218.191-.4.356-.537.484A10.962,10.962,0,0,0,6.854,12.9a9.257,9.257,0,0,1-.729.984,1.921,1.921,0,0,1-1.186.58.427.427,0,0,0-.425.425v8.482a.44.44,0,0,0,.441.441,8.381,8.381,0,0,1,3.531.628,9.19,9.19,0,0,0,2.468.643,51.081,51.081,0,0,0,5.988.431,26.5,26.5,0,0,0,3.01-.207c1.649-.191,3.414-.574,4-1.968a1.5,1.5,0,0,0-.027-1.26.418.418,0,0,1-.043-.138A.451.451,0,0,1,24.037,21.5Z" transform="translate(321.718 1165.01) rotate(180)" fill="#fff"/></g><rect width="13" height="13" rx="6.5" transform="translate(258.795 1144)" fill="#fff"/></g></g></g></g><g transform="translate(28 898)"><g transform="translate(-228 -285)"><text transform="translate(228 285)" fill="#744d4d" font-size="20" font-family="CarmenSans-SemiBold, Carmen Sans" font-weight="600"><tspan x="0" y="22">Where are you located?</tspan></text><text transform="translate(228 319)" fill="#756262" font-size="16" font-family="CarmenSans-Medium, Carmen Sans" font-weight="500"><tspan x="0" y="18">We will use your location to find a vet that services your region.</tspan></text><g transform="translate(228 357)"><g fill="#fffcfc" stroke="#decfd3" stroke-width="1"><path d="M7,0H45a0,0,0,0,1,0,0V55a0,0,0,0,1,0,0H8a8,8,0,0,1-8-8V7A7,7,0,0,1,7,0Z" stroke="none"/><path d="M7,.5H44.5a0,0,0,0,1,0,0v54a0,0,0,0,1,0,0H8A7.5,7.5,0,0,1,.5,47V7A6.5,6.5,0,0,1,7,.5Z" fill="none"/></g><g fill="none" stroke="#decfd3" stroke-width="2"><rect width="365" height="55" rx="7" stroke="none"/><rect x="1" y="1" width="363" height="53" rx="6" fill="none"/></g><path d="M16.25,3A8.744,8.744,0,0,0,7.5,11.75C7.5,18.313,16.25,28,16.25,28S25,18.313,25,11.75A8.744,8.744,0,0,0,16.25,3Zm0,11.875a3.125,3.125,0,1,1,3.125-3.125A3.126,3.126,0,0,1,16.25,14.875Z" transform="translate(6 12)" fill="#ef9a7a"/><text transform="translate(55 15)" fill="#756262" font-size="16" font-family="CarmenSans-Medium, Carmen Sans" font-weight="500"><tspan x="0" y="18">Toronto, Ontario</tspan></text></g></g><g transform="translate(-228 -293)"><text transform="translate(228 462)" fill="#744d4d" font-size="20" font-family="CarmenSans-SemiBold, Carmen Sans" font-weight="600"><tspan x="0" y="22">What is your preferred language?</tspan></text><g transform="translate(228 505)"><g transform="translate(320)" fill="#fffcfc" stroke="#decfd3" stroke-width="1"><path d="M0,0H35A10,10,0,0,1,45,10V46a9,9,0,0,1-9,9H0a0,0,0,0,1,0,0V0A0,0,0,0,1,0,0Z" stroke="none"/><path d="M.5.5H35A9.5,9.5,0,0,1,44.5,10V46A8.5,8.5,0,0,1,36,54.5H.5a0,0,0,0,1,0,0V.5A0,0,0,0,1,.5.5Z" fill="none"/></g><g fill="none" stroke="#decfd3" stroke-width="2"><rect width="365" height="55" rx="7" stroke="none"/><rect x="1" y="1" width="363" height="53" rx="6" fill="none"/></g><text transform="translate(20 15)" fill="#756262" font-size="16" font-family="CarmenSans-Medium, Carmen Sans" font-weight="500"><tspan x="0" y="18">English</tspan></text><path d="M10.058,14.031.5,4.468a1.681,1.681,0,0,1,0-2.384L2.085.5A1.681,1.681,0,0,1,4.468.5l6.778,6.778L18.025.5a1.681,1.681,0,0,1,2.384,0L22,2.085a1.681,1.681,0,0,1,0,2.384l-9.562,9.562a1.672,1.672,0,0,1-2.377,0Z" transform="translate(329.95 21.237)" fill="#ef9a7a"/></g></g><g transform="translate(-607 -634.58)"><g transform="translate(379 349.58)"><text transform="translate(228 584)" fill="#744d4d" font-size="20" font-family="CarmenSans-SemiBold, Carmen Sans" font-weight="600"><tspan x="0" y="22">Which categories do your concern fit best with?</tspan></text></g><g transform="translate(-14630 -2171)"><text transform="translate(15265 3147)" fill="#756262" font-size="16" font-family="CarmenSans-Medium, Carmen Sans" font-weight="500"><tspan x="0" y="18">Behavioural</tspan><tspan x="0" y="50">Dental</tspan><tspan x="0" y="82">Diarrhea &amp; Vomiting</tspan><tspan x="0" y="114">Eye Issues</tspan><tspan x="0" y="146">Flea, tick, works</tspan><tspan x="0" y="178">Ingested object</tspan><tspan x="0" y="210">Injury</tspan></text><g transform="translate(15237 3152)" clip-path="url(#c)"><g transform="translate(-603 -1100)"><g transform="translate(603 1100)" fill="#fff" stroke="#decfd3" stroke-width="2"><rect width="17" height="17" rx="4" stroke="none"/><rect x="1" y="1" width="15" height="15" rx="3" fill="none"/></g></g><g transform="translate(-603 -1068)"><g transform="translate(603 1100)" fill="#fff" stroke="#decfd3" stroke-width="2"><rect width="17" height="17" rx="4" stroke="none"/><rect x="1" y="1" width="15" height="15" rx="3" fill="none"/></g></g><g transform="translate(-603 -1036)"><g transform="translate(603 1100)" fill="#fff" stroke="#decfd3" stroke-width="2"><rect width="17" height="17" rx="4" stroke="none"/><rect x="1" y="1" width="15" height="15" rx="3" fill="none"/></g></g><g transform="translate(-603 -1004)"><g transform="translate(603 1100)" fill="#fff" stroke="#decfd3" stroke-width="2"><rect width="17" height="17" rx="4" stroke="none"/><rect x="1" y="1" width="15" height="15" rx="3" fill="none"/></g></g><g transform="translate(-603 -972)"><g transform="translate(603 1100)" fill="#fff" stroke="#decfd3" stroke-width="2"><rect width="17" height="17" rx="4" stroke="none"/><rect x="1" y="1" width="15" height="15" rx="3" fill="none"/></g></g><g transform="translate(-603 -940)"><g transform="translate(603 1100)" fill="#fff" stroke="#decfd3" stroke-width="2"><rect width="17" height="17" rx="4" stroke="none"/><rect x="1" y="1" width="15" height="15" rx="3" fill="none"/></g></g><g transform="translate(-603 -908)"><g transform="translate(603 1100)" fill="#fff" stroke="#decfd3" stroke-width="2"><rect width="17" height="17" rx="4" stroke="none"/><rect x="1" y="1" width="15" height="15" rx="3" fill="none"/></g></g></g><g transform="translate(15516 3152)" clip-path="url(#d)"><g transform="translate(-603 -1100)"><g transform="translate(603 1100)" fill="#fff" stroke="#decfd3" stroke-width="2"><rect width="17" height="17" rx="4" stroke="none"/><rect x="1" y="1" width="15" height="15" rx="3" fill="none"/></g></g><g transform="translate(-603 -1068)"><g transform="translate(603 1100)" fill="#fff" stroke="#decfd3" stroke-width="2"><rect width="17" height="17" rx="4" stroke="none"/><rect x="1" y="1" width="15" height="15" rx="3" fill="none"/></g></g><g transform="translate(-603 -1036)"><g transform="translate(603 1100)" fill="#fff" stroke="#decfd3" stroke-width="2"><rect width="17" height="17" rx="4" stroke="none"/><rect x="1" y="1" width="15" height="15" rx="3" fill="none"/></g></g><g transform="translate(-603 -1004)"><g transform="translate(603 1100)" fill="#fff" stroke="#decfd3" stroke-width="2"><rect width="17" height="17" rx="4" stroke="none"/><rect x="1" y="1" width="15" height="15" rx="3" fill="none"/></g></g><g transform="translate(-603 -972)"><g transform="translate(603 1100)" fill="#fff" stroke="#decfd3" stroke-width="2"><rect width="17" height="17" rx="4" stroke="none"/><rect x="1" y="1" width="15" height="15" rx="3" fill="none"/></g></g><g transform="translate(-603 -940)"><g transform="translate(603 1100)" fill="#fff" stroke="#decfd3" stroke-width="2"><rect width="17" height="17" rx="4" stroke="none"/><rect x="1" y="1" width="15" height="15" rx="3" fill="none"/></g></g></g><text transform="translate(15544 3147)" fill="#756262" font-size="16" font-family="CarmenSans-Medium, Carmen Sans" font-weight="500"><tspan x="0" y="18">Mobility Concerns</tspan><tspan x="0" y="50">Nutrition</tspan><tspan x="0" y="82">Skin &amp; Ear</tspan><tspan x="0" y="114">Urinary problems</tspan><tspan x="0" y="146">Wellness</tspan><tspan x="0" y="178">Other</tspan></text><g transform="translate(15516 3152)" clip-path="url(#d)"><g transform="translate(-603 -1100)"><g transform="translate(603 1100)" fill="#fff" stroke="#decfd3" stroke-width="2"><rect width="17" height="17" rx="4" stroke="none"/><rect x="1" y="1" width="15" height="15" rx="3" fill="none"/></g></g><g transform="translate(-603 -1068)"><g transform="translate(603 1100)" fill="#fff" stroke="#decfd3" stroke-width="2"><rect width="17" height="17" rx="4" stroke="none"/><rect x="1" y="1" width="15" height="15" rx="3" fill="none"/></g></g><g transform="translate(-603 -1036)"><g transform="translate(603 1100)" fill="#fff" stroke="#decfd3" stroke-width="2"><rect width="17" height="17" rx="4" stroke="none"/><rect x="1" y="1" width="15" height="15" rx="3" fill="none"/></g></g><g transform="translate(-603 -1004)"><g transform="translate(603 1100)" fill="#fff" stroke="#decfd3" stroke-width="2"><rect width="17" height="17" rx="4" stroke="none"/><rect x="1" y="1" width="15" height="15" rx="3" fill="none"/></g></g><g transform="translate(-603 -972)"><g transform="translate(603 1100)" fill="#fff" stroke="#decfd3" stroke-width="2"><rect width="17" height="17" rx="4" stroke="none"/><rect x="1" y="1" width="15" height="15" rx="3" fill="none"/></g></g><g transform="translate(-603 -940)"><g transform="translate(603 1100)" fill="#fff" stroke="#decfd3" stroke-width="2"><rect width="17" height="17" rx="4" stroke="none"/><rect x="1" y="1" width="15" height="15" rx="3" fill="none"/></g></g></g></g></g></g><g transform="translate(0 385)"><rect width="811" height="77" fill="#d65e5e"/><text transform="translate(32 12.717)" fill="#fff" font-size="32" font-family="CarmenSans-ExtraBold, Carmen Sans" font-weight="800"><tspan x="0" y="36">Concerns</tspan></text></g><g transform="translate(28 1487)"><text fill="#744d4d" font-size="20" font-family="CarmenSans-SemiBold, Carmen Sans" font-weight="600"><tspan x="0" y="22">Describe your concerns</tspan></text><g transform="translate(0 43)"><g fill="none" stroke="#decfd3" stroke-width="2"><rect width="744" height="126" rx="7" stroke="none"/><rect x="1" y="1" width="742" height="124" rx="6" fill="none"/></g><text transform="translate(19 15)" fill="#b2a9ac" font-size="16" font-family="CarmenSans-Medium, Carmen Sans" font-weight="500"><tspan x="0" y="18">Describe your concerns</tspan></text></g></g><g transform="translate(28 1907)"><rect width="744" height="54" rx="5" fill="#f38e61"/><g transform="translate(296 13.5)"><text transform="translate(0 22.5)" fill="#fff" font-size="20" font-family="CarmenSans-SemiBold, Carmen Sans" font-weight="600"><tspan x="0" y="0">Continue</tspan></text></g><g transform="translate(402 11)"><path d="M33,18A15,15,0,1,1,18,3,15,15,0,0,1,33,18Z" fill="none" stroke="#fffefb" stroke-linecap="round" stroke-linejoin="round" stroke-width="3"/><path d="M18,24l6-6-6-6" fill="none" stroke="#fffefb" stroke-linecap="round" stroke-linejoin="round" stroke-width="3"/><path d="M12,18H24" fill="none" stroke="#fffefb" stroke-linecap="round" stroke-linejoin="round" stroke-width="3"/></g></g><g transform="translate(28 1688)"><text fill="#744d4d" font-size="20" font-family="CarmenSans-SemiBold, Carmen Sans" font-weight="600"><tspan x="0" y="22">Would you like to add any supporting images? (Optional)</tspan></text><g transform="translate(-607 -1858)"><g transform="translate(607 1934)"><g fill="none" stroke="#ef9a7a" stroke-width="2" stroke-dasharray="10"><rect width="365" height="111" rx="7" stroke="none"/><rect x="1" y="1" width="363" height="109" rx="6" fill="none"/></g><g transform="translate(57 40)"><text transform="translate(34.677)" fill="#f38e61" font-size="20" font-family="CarmenSans-SemiBold, Carmen Sans" font-weight="600"><tspan x="0" y="22">Drag, Drop or Click</tspan></text><path d="M14.139,23.136h7.712V15.424h5.141l-9-9-9,9h5.141ZM9,25.707H26.992v2.571H9Z" transform="translate(-8.997 -1.353)" fill="#f38e61"/></g></g></g><text transform="translate(0 34)" fill="#b2a9ac" font-size="16" font-family="CarmenSans-Medium, Carmen Sans" font-weight="500"><tspan x="0" y="18">Note: Must be a jpg/jpeg or png. No more than 10mb size</tspan></text></g><g transform="translate(-579 -135.58)"><g transform="translate(575 170.579)"><path d="M327.207,482.818a54.024,54.024,0,0,1-17.921-3.043l-.429-.15.353-1.652c-10.423-20.415-6.824-48.474,9.194-71.546,14.571-20.989,36.763-36.269,56.34-49.748h0A14.7,14.7,0,0,1,397.5,371.662L390.581,406.4c-5.039,25.3-11.029,49.235-28.761,64.117a54.69,54.69,0,0,1-34.613,12.3Z" transform="translate(-204.299 -318.252)" fill="#d65e5e"/><path d="M313.744,566.3c-3.624-26.4-7.352-53.139-4.8-79.821,2.258-23.7,9.488-46.838,24.206-65.82a109.494,109.494,0,0,1,28.092-25.457c2.808-1.772,5.394,2.678,2.6,4.444a104.094,104.094,0,0,0-41.176,49.679c-8.964,22.8-10.4,47.654-8.86,71.874.933,14.647,2.917,29.2,4.909,43.731a2.666,2.666,0,0,1-1.8,3.165,2.589,2.589,0,0,1-3.165-1.8Z" transform="translate(-204.14 -316.904)" fill="#744d4d"/><path d="M372,539.581a40.431,40.431,0,0,1-33.6-18.1l-.251-.381,1.005-.853c3.024-16.626,17.672-31.472,37.374-37.858,17.9-5.8,37.738-4.855,55.232-4.014h0a10.959,10.959,0,0,1,6.73,19.162l-19.546,17.258c-14.251,12.587-28.456,23.953-45.528,24.761C372.944,539.572,372.47,539.581,372,539.581Z" transform="translate(-203.145 -314.156)" fill="#d65e5e"/><path d="M303.66,578.048c17.445-30.867,37.678-65.171,73.834-76.136a82.388,82.388,0,0,1,31.054-3.207c3.3.285,2.474,5.367-.817,5.084A76.542,76.542,0,0,0,358.172,516.9c-13.974,9.512-24.855,22.736-34.063,36.758-5.641,8.59-10.694,17.544-15.746,26.487C306.748,583,302.026,580.939,303.66,578.048Z" transform="translate(-204.298 -313.473)" fill="#744d4d"/><path d="M477.639,537.7a23.6,23.6,0,0,1-7.832-1.33l-.429-.15.185-.864c-4.489-8.9-2.914-21.076,4.036-31.087,6.319-9.1,15.921-15.714,24.391-21.545h0a6.639,6.639,0,0,1,10.277,6.766l-2.987,14.993c-2.186,10.972-4.787,21.357-12.512,27.84a23.9,23.9,0,0,1-15.128,5.377Z" transform="translate(-198.876 -314.03)" fill="#d65e5e"/><path d="M471.819,573.434c-1.564-11.394-3.173-22.935-2.073-34.451.974-10.228,4.095-20.215,10.447-28.408a47.256,47.256,0,0,1,12.125-10.987c1.212-.765,2.328,1.156,1.121,1.918a44.927,44.927,0,0,0-17.772,21.441c-3.869,9.84-4.49,20.568-3.824,31.021.4,6.322,1.259,12.6,2.119,18.874a1.151,1.151,0,0,1-.776,1.366,1.117,1.117,0,0,1-1.366-.776Z" transform="translate(-198.798 -313.439)" fill="#744d4d"/><path d="M496.977,562.2a17.744,17.744,0,0,1-14.75-7.945l-.251-.381.552-.469c1.367-7.239,7.746-13.687,16.31-16.462,7.78-2.521,16.364-2.111,23.942-1.746a5.023,5.023,0,0,1,3.085,8.784l-8.436,7.449c-6.192,5.468-12.367,10.407-19.83,10.76Q497.288,562.2,496.977,562.2Z" transform="translate(-198.381 -312.262)" fill="#d65e5e"/><path d="M467.467,578.5c7.529-13.322,16.262-28.128,31.867-32.86a35.559,35.559,0,0,1,13.4-1.384c1.423.123,1.068,2.316-.352,2.194a33.036,33.036,0,0,0-21.39,5.659c-6.031,4.105-10.727,9.813-14.7,15.865-2.435,3.708-4.615,7.572-6.8,11.432C468.8,580.641,466.762,579.75,467.467,578.5Z" transform="translate(-198.867 -311.958)" fill="#744d4d"/><path d="M899.389,536.146c-8.935,0-15.745-4.825-20.679-14.584-4.729-9.357.176-17.435,6.734-20.981s16.037-3.235,21.284,5.861h0c5.114,8.863,5.7,18.049,1.745,27.307l.195.909-.464.133A32.045,32.045,0,0,1,899.389,536.146Z" transform="translate(-185.303 -313.47)" fill="#d65e5e"/><path d="M907.915,581.434c4.569-25.842,4.857-58.572-20.5-73.846-1.211-.765-2.327,1.156-1.12,1.918,24.481,14.807,23.754,46.427,19.476,71.337a1.112,1.112,0,0,0,2.143.59Z" transform="translate(-185.007 -313.174)" fill="#744d4d"/><path d="M794.9,560.162a21.707,21.707,0,0,1-9.178-2.311c-7.188-3.374-7.97-10.459-5.655-15.616,2.29-5.1,8.046-9.175,15.272-6.073a21.58,21.58,0,0,1,13.031,15.162l.588.5-.29.389C804.708,557.522,800.159,560.162,794.9,560.162Z" transform="translate(-188.547 -312.257)" fill="#d65e5e"/><path d="M828.964,578.5c-9-17.224-23.366-36.7-45.27-34.244-1.423.122-1.067,2.316.353,2.193,20.806-2.153,34.343,16.559,42.887,32.956C827.632,580.643,829.669,579.753,828.964,578.5Z" transform="translate(-188.418 -311.96)" fill="#744d4d"/><path d="M812.151,514.308H542.506a1.033,1.033,0,0,1,0-2.066H812.151a1.033,1.033,0,0,1,0,2.066Z" transform="translate(-196.411 -313.014)" fill="#cacaca"/><path d="M680.055,347.222l-1.775-22.1a2.995,2.995,0,0,0-4.9-1.15c-14.248,3.5-20,10.935-21.644,20.277a63.83,63.83,0,0,0-20.807-.937c5.009-7.129,4.663-14.4-.547-21.785a2.995,2.995,0,0,0-4.879-1.349c-9.637,4.871-16.378,10.941-17.464,19.353a64.263,64.263,0,1,0,72.017,7.69Z" transform="translate(-195.329 -319.401)" fill="#f38e61"/><path d="M688.439,433.4c52.085-6.681,81.385,78.277-2.641,83.01-5.156,5.656-45.564,10.386-79.809,2.577-30.738,1.232-65.681-38.975-22.591-93.814Z" transform="translate(-195.689 -315.897)" fill="#f38e61"/><path d="M426.623,156.2v42.98h20.094l15.943-43.764" transform="translate(14.13 5.147)" fill="#f38e61"/><path d="M703.665,503.161c-.11-.158-.191-.325-.286-.487l-2.568.095Z" transform="translate(-191.133 -313.331)" fill="#3f3d56"/><path d="M783.187,479.423c-6.415-10.252-22.11-13.1-31.718-5.757-4.336,3.314-7.258,8.105-10.962,12.113a40.608,40.608,0,0,1-23.586,12.483c-6.3.944-12.954.431-18.768,3.024-5.638,2.514-9.892,9.69-6.823,14.882l64.923-2.393c6.226-.229,12.673-.513,18.241-3.31C785.3,505.036,789.6,489.676,783.187,479.423Z" transform="translate(-191.481 -314.427)" fill="#f38e61"/><path d="M633.207,451.221a64.458,64.458,0,0,1-25.876-5.163c-17.072-7.411-24.9-19.917-25.222-20.446a.783.783,0,1,1,1.335-.821,57.623,57.623,0,0,0,24.59,19.863c15.374,6.647,41.627,9.977,79.39-11.9a.783.783,0,1,1,.786,1.356h0C666.044,446.951,647.741,451.221,633.207,451.221Z" transform="translate(-195.069 -315.923)" fill="#fff"/><path d="M635.03,412.076a5.49,5.49,0,0,1-5.484-5.484.783.783,0,1,1,1.567,0,3.917,3.917,0,0,0,7.834,0,.783.783,0,0,1,1.567,0,5.49,5.49,0,0,1-5.484,5.484Z" transform="translate(-193.494 -316.539)" fill="#fff"/><ellipse cx="6.267" cy="2.411" rx="6.267" ry="2.411" transform="translate(435.66 77.85)" fill="#fff"/><path d="M594.653,398.432a19.109,19.109,0,0,1,29.332,0,21.239,21.239,0,1,0-30.029-.7Q594.3,398.092,594.653,398.432Z" transform="translate(-194.867 -317.996)" fill="#fff"/><path d="M650.161,398.432a19.109,19.109,0,0,1,29.332,0,21.239,21.239,0,1,0-30.029-.7h0Q649.8,398.092,650.161,398.432Z" transform="translate(-193.029 -317.995)" fill="#fff"/><circle cx="7.306" cy="7.306" r="7.306" transform="translate(397.834 59.834)" fill="#3f3d56"/><circle cx="7.306" cy="7.306" r="7.306" transform="translate(455.178 59.834)" fill="#3f3d56"/><circle cx="6.402" cy="6.402" r="6.402" transform="translate(466.079 83.094)" fill="#ffdce3"/><circle cx="6.402" cy="6.402" r="6.402" transform="translate(408.224 83.094)" fill="#ffdce3"/><ellipse cx="5.484" cy="16.452" rx="5.484" ry="16.452" transform="matrix(0.849, -0.529, 0.529, 0.849, 324.147, 174.909)" fill="#f38e61"/><path d="M361.593,142.389l-34.907,36.767,9.1,15.673,32.953-19.691" transform="translate(10.82 4.716)" fill="#f38e61"/><ellipse cx="5.484" cy="16.452" rx="5.484" ry="16.452" transform="translate(400.105 215.718) rotate(-81.579)" fill="#f38e61"/><path d="M397.024,155.777l5.41,50.408,17.806,3.7,6.367-38.344" transform="translate(13.15 5.159)" fill="#f38e61"/><ellipse cx="16.452" cy="5.484" rx="16.452" ry="5.484" transform="translate(471.201 204.942) rotate(-6.174)" fill="#f38e61"/><path d="M453.3,155.154l17.938,47.417,18.163-.908-3.5-38.712" transform="translate(15.014 5.139)" fill="#f38e61"/></g><g transform="translate(0 -36)"><g transform="translate(-62)"><circle cx="12" cy="12" r="12" transform="translate(669 460)" fill="#d65e5e"/><g transform="matrix(1, 0, 0, 1, 632, 165.58)" filter="url(#f)"><circle cx="3" cy="3" r="3" transform="translate(46 303.42)" fill="#fff"/></g></g><line x2="167.5" transform="translate(631 473.535)" fill="none" stroke="#744d4d" stroke-linecap="round" stroke-width="1.5"/><g transform="translate(797.689 468)"><g transform="translate(0.311)" fill="#756262" stroke="#744d4d" stroke-width="1"><circle cx="5" cy="5" r="5" stroke="none"/><circle cx="5" cy="5" r="4.5" fill="none"/></g></g><g transform="translate(979.435 468)"><g transform="translate(-0.435)" fill="#744d4d" stroke="#744d4d" stroke-width="1"><circle cx="5" cy="5" r="5" stroke="none"/><circle cx="5" cy="5" r="4.5" fill="none"/></g></g><line x2="171" transform="translate(808.5 473.535)" fill="none" stroke="#744d4d" stroke-linecap="round" stroke-width="1.5"/><g transform="translate(1159.18 468)"><g transform="translate(-0.18)" fill="#744d4d" stroke="#744d4d" stroke-width="1"><circle cx="5" cy="5" r="5" stroke="none"/><circle cx="5" cy="5" r="4.5" fill="none"/></g></g><line x2="170" transform="translate(989.5 473.535)" fill="none" stroke="#744d4d" stroke-linecap="round" stroke-width="1.5"/><g transform="translate(1344 468)"><g fill="#744d4d" stroke="#744d4d" stroke-width="1"><circle cx="5" cy="5" r="5" stroke="none"/><circle cx="5" cy="5" r="4.5" fill="none"/></g></g><line x2="175" transform="translate(1169.5 473.535)" fill="none" stroke="#744d4d" stroke-linecap="round" stroke-width="1.5"/><text transform="translate(607 488)" fill="#744d4d" font-size="14" font-family="CarmenSans-SemiBold, Carmen Sans" font-weight="600"><tspan x="0" y="16">CONCERNS</tspan></text><text transform="translate(607 507)" fill="#b2a9ac" font-size="14" font-family="CarmenSans-Regular, Carmen Sans"><tspan x="0" y="16">Step 1</tspan></text><text transform="translate(798 488)" fill="#744d4d" font-size="14" font-family="CarmenSans-SemiBold, Carmen Sans" font-weight="600"><tspan x="0" y="16">VET SELECTION</tspan></text><text transform="translate(799 507)" fill="#b2a9ac" font-size="14" font-family="CarmenSans-Regular, Carmen Sans"><tspan x="0" y="16">Step 2</tspan></text><text transform="translate(979 488)" fill="#744d4d" font-size="14" font-family="CarmenSans-SemiBold, Carmen Sans" font-weight="600"><tspan x="0" y="16">PET INFO</tspan></text><text transform="translate(979 507)" fill="#b2a9ac" font-size="14" font-family="CarmenSans-Regular, Carmen Sans"><tspan x="0" y="16">Step 3</tspan></text><text transform="translate(1159 488)" fill="#744d4d" font-size="14" font-family="CarmenSans-SemiBold, Carmen Sans" font-weight="600"><tspan x="0" y="16">PAYMENT PLAN</tspan></text><text transform="translate(1159 507)" fill="#b2a9ac" font-size="14" font-family="CarmenSans-Regular, Carmen Sans"><tspan x="0" y="16">Step 4</tspan></text></g></g><text transform="translate(730 316.42)" fill="#744d4d" font-size="14" font-family="CarmenSans-SemiBold, Carmen Sans" font-weight="600"><tspan x="0" y="16">BOOK</tspan></text><text transform="translate(727 336.42)" fill="#b2a9ac" font-size="14" font-family="CarmenSans-Regular, Carmen Sans"><tspan x="0" y="16">Step 5</tspan></text></g></svg>