<svg xmlns="http://www.w3.org/2000/svg" xmlns:xlink="http://www.w3.org/1999/xlink" width="1455" height="1065" viewBox="0 0 1455 1065">
  <defs>
    <clipPath id="clip-catuserflow">
      <rect width="1455" height="1065"/>
    </clipPath>
  </defs>
  <g id="catuserflow" clip-path="url(#clip-catuserflow)">
    <g id="Group_992" data-name="Group 992" transform="translate(-20 -34)">
      <text id="Yes" transform="translate(548.766 110.077)" fill="#e77e5d" font-size="16" font-family="Poppins-Regular, Poppins"><tspan x="0" y="17">Yes</tspan></text>
      <path id="Line_65" data-name="Line 65" d="M1414,.5H0v-1H1414Z" transform="translate(133 34.5)" fill="#eab8a8"/>
      <g id="Component_20_43" data-name="Component 20 – 43" transform="translate(1011.766 125)">
        <g id="Rectangle_277" data-name="Rectangle 277" fill="none" stroke="#f38e61" stroke-width="1">
          <rect width="168" height="43" rx="11" stroke="none"/>
          <rect x="0.5" y="0.5" width="167" height="42" rx="10.5" fill="none"/>
        </g>
        <text id="Select_category" data-name="Select category" transform="translate(16 27)" fill="#e77e5d" font-size="16" font-family="Poppins-Regular, Poppins"><tspan x="0" y="0">Select category</tspan></text>
      </g>
      <g id="Component_22_2" data-name="Component 22 – 2" transform="translate(402.766 81.195)">
        <g id="Rectangle_289" data-name="Rectangle 289" transform="translate(67.882) rotate(45)" fill="none" stroke="#f38e61" stroke-width="1">
          <rect width="96" height="96" stroke="none"/>
          <rect x="0.5" y="0.5" width="95" height="95" fill="none"/>
        </g>
        <text id="Device_location_on_" data-name="Device 
location
on?" transform="translate(70.882 54.882)" fill="#e77e5d" font-size="14" font-family="Poppins-Regular, Poppins"><tspan x="-25.396" y="0">Device </tspan><tspan x="-28.413" y="21">location</tspan><tspan x="-12.628" y="42">on?</tspan></text>
      </g>
      <path id="Line_67" data-name="Line 67" d="M1410,.5h-10v-1h10Zm-20,0h-10v-1h10Zm-20,0h-10v-1h10Zm-20,0h-10v-1h10Zm-20,0h-10v-1h10Zm-20,0h-10v-1h10Zm-20,0h-10v-1h10Zm-20,0h-10v-1h10Zm-20,0h-10v-1h10Zm-20,0h-10v-1h10Zm-20,0h-10v-1h10Zm-20,0h-10v-1h10Zm-20,0h-10v-1h10Zm-20,0h-10v-1h10Zm-20,0h-10v-1h10Zm-20,0h-10v-1h10Zm-20,0h-10v-1h10Zm-20,0h-10v-1h10Zm-20,0h-10v-1h10Zm-20,0h-10v-1h10Zm-20,0h-10v-1h10Zm-20,0H980v-1h10Zm-20,0H960v-1h10Zm-20,0H940v-1h10Zm-20,0H920v-1h10Zm-20,0H900v-1h10Zm-20,0H880v-1h10Zm-20,0H860v-1h10Zm-20,0H840v-1h10Zm-20,0H820v-1h10Zm-20,0H800v-1h10Zm-20,0H780v-1h10Zm-20,0H760v-1h10Zm-20,0H740v-1h10Zm-20,0H720v-1h10Zm-20,0H700v-1h10Zm-20,0H680v-1h10Zm-20,0H660v-1h10Zm-20,0H640v-1h10Zm-20,0H620v-1h10Zm-20,0H600v-1h10Zm-20,0H580v-1h10Zm-20,0H560v-1h10Zm-20,0H540v-1h10Zm-20,0H520v-1h10Zm-20,0H500v-1h10Zm-20,0H480v-1h10Zm-20,0H460v-1h10Zm-20,0H440v-1h10Zm-20,0H420v-1h10Zm-20,0H400v-1h10Zm-20,0H380v-1h10Zm-20,0H360v-1h10Zm-20,0H340v-1h10Zm-20,0H320v-1h10Zm-20,0H300v-1h10Zm-20,0H280v-1h10Zm-20,0H260v-1h10Zm-20,0H240v-1h10Zm-20,0H220v-1h10Zm-20,0H200v-1h10Zm-20,0H180v-1h10Zm-20,0H160v-1h10Zm-20,0H140v-1h10Zm-20,0H120v-1h10Zm-20,0H100v-1h10ZM90,.5H80v-1H90ZM70,.5H60v-1H70ZM50,.5H40v-1H50ZM30,.5H20v-1H30ZM10,.5H0v-1H10Z" transform="translate(133 302)" fill="#e77e5d"/>
      <g id="Component_21_39" data-name="Component 21 – 39" transform="translate(548.266 143.033)">
        <line id="Line_41" data-name="Line 41" x2="45" transform="translate(0 5.75)" fill="none" stroke="#f38e61" stroke-width="1"/>
        <path id="Path_523" data-name="Path 523" d="M4399.75,152.75l5.771,5.772-5.771,5.772" transform="translate(-4360.521 -152.75)" fill="none" stroke="#f38e61" stroke-width="1"/>
      </g>
      <g id="Component_22_3" data-name="Component 22 – 3" transform="translate(603.766 80.923)">
        <g id="Rectangle_289-2" data-name="Rectangle 289" transform="translate(67.882) rotate(45)" fill="none" stroke="#f38e61" stroke-width="1">
          <rect width="96" height="96" stroke="none"/>
          <rect x="0.5" y="0.5" width="95" height="95" fill="none"/>
        </g>
        <text id="Location_correct_" data-name="Location 
correct?" transform="translate(70.882 54.882)" fill="#e77e5d" font-size="14" font-family="Poppins-Regular, Poppins"><tspan x="-31.584" y="0">Location </tspan><tspan x="-28.756" y="21">correct?</tspan></text>
      </g>
      <text id="Yes-2" data-name="Yes" transform="translate(749.766 110.077)" fill="#e77e5d" font-size="16" font-family="Poppins-Regular, Poppins"><tspan x="0" y="17">Yes</tspan></text>
      <g id="Component_21_40" data-name="Component 21 – 40" transform="translate(749.266 143.033)">
        <line id="Line_41-2" data-name="Line 41" x2="45" transform="translate(0 5.75)" fill="none" stroke="#f38e61" stroke-width="1"/>
        <path id="Path_523-2" data-name="Path 523" d="M4399.75,152.75l5.771,5.772-5.771,5.772" transform="translate(-4360.521 -152.75)" fill="none" stroke="#f38e61" stroke-width="1"/>
      </g>
      <g id="Component_20_44" data-name="Component 20 – 44" transform="translate(693.766 224)">
        <g id="Rectangle_277-2" data-name="Rectangle 277" fill="none" stroke="#f38e61" stroke-width="1">
          <rect width="154" height="43" rx="11" stroke="none"/>
          <rect x="0.5" y="0.5" width="153" height="42" rx="10.5" fill="none"/>
        </g>
        <text id="Select_Location" data-name="Select Location" transform="translate(16 27)" fill="#e77e5d" font-size="16" font-family="Poppins-Regular, Poppins"><tspan x="0" y="0">Select Location</tspan></text>
      </g>
      <g id="Component_21_41" data-name="Component 21 – 41" transform="translate(471.209 236.577)">
        <line id="Line_41-3" data-name="Line 41" x2="213.111" transform="translate(0 8.797)" fill="none" stroke="#f38e61" stroke-width="1"/>
        <path id="Path_523-3" data-name="Path 523" d="M4399.75,152.75l5.771,8.831-5.771,8.831" transform="translate(-4192.411 -152.75)" fill="none" stroke="#f38e61" stroke-width="1"/>
      </g>
      <text id="No" transform="translate(525.766 216.959)" fill="#e77e5d" font-size="16" font-family="Poppins-Regular, Poppins"><tspan x="0" y="17">No</tspan></text>
      <path id="Line_68" data-name="Line 68" d="M.5,29h-1V0h1Z" transform="translate(470.266 216.5)" fill="#f38e61"/>
      <path id="Line_69" data-name="Line 69" d="M.5,29h-1V0h1Z" transform="translate(671.647 216.5)" fill="#f38e61"/>
      <g id="Component_21_42" data-name="Component 21 – 42" transform="translate(977.266 143.033)">
        <line id="Line_41-4" data-name="Line 41" x2="31" transform="translate(0 5.75)" fill="none" stroke="#f38e61" stroke-width="1"/>
        <path id="Path_523-4" data-name="Path 523" d="M4399.75,152.75l5.771,5.772-5.771,5.772" transform="translate(-4374.521 -152.75)" fill="none" stroke="#f38e61" stroke-width="1"/>
      </g>
      <g id="Component_21_43" data-name="Component 21 – 43" transform="translate(824.494 219) rotate(-90)">
        <line id="Line_41-5" data-name="Line 41" x2="45" transform="translate(0 5.75)" fill="none" stroke="#f38e61" stroke-width="1"/>
        <path id="Path_523-5" data-name="Path 523" d="M4399.75,152.75l5.771,5.772-5.771,5.772" transform="translate(-4360.521 -152.75)" fill="none" stroke="#f38e61" stroke-width="1"/>
      </g>
      <g id="Component_21_44" data-name="Component 21 – 44" transform="translate(1183.266 140.729)">
        <line id="Line_41-6" data-name="Line 41" x2="29" transform="translate(0 5.75)" fill="none" stroke="#f38e61" stroke-width="1"/>
        <path id="Path_523-6" data-name="Path 523" d="M4399.75,152.75l5.771,5.772-5.771,5.772" transform="translate(-4376.521 -152.75)" fill="none" stroke="#f38e61" stroke-width="1"/>
      </g>
      <path id="Line_70" data-name="Line 70" d="M1410,.5h-10v-1h10Zm-20,0h-10v-1h10Zm-20,0h-10v-1h10Zm-20,0h-10v-1h10Zm-20,0h-10v-1h10Zm-20,0h-10v-1h10Zm-20,0h-10v-1h10Zm-20,0h-10v-1h10Zm-20,0h-10v-1h10Zm-20,0h-10v-1h10Zm-20,0h-10v-1h10Zm-20,0h-10v-1h10Zm-20,0h-10v-1h10Zm-20,0h-10v-1h10Zm-20,0h-10v-1h10Zm-20,0h-10v-1h10Zm-20,0h-10v-1h10Zm-20,0h-10v-1h10Zm-20,0h-10v-1h10Zm-20,0h-10v-1h10Zm-20,0h-10v-1h10Zm-20,0H980v-1h10Zm-20,0H960v-1h10Zm-20,0H940v-1h10Zm-20,0H920v-1h10Zm-20,0H900v-1h10Zm-20,0H880v-1h10Zm-20,0H860v-1h10Zm-20,0H840v-1h10Zm-20,0H820v-1h10Zm-20,0H800v-1h10Zm-20,0H780v-1h10Zm-20,0H760v-1h10Zm-20,0H740v-1h10Zm-20,0H720v-1h10Zm-20,0H700v-1h10Zm-20,0H680v-1h10Zm-20,0H660v-1h10Zm-20,0H640v-1h10Zm-20,0H620v-1h10Zm-20,0H600v-1h10Zm-20,0H580v-1h10Zm-20,0H560v-1h10Zm-20,0H540v-1h10Zm-20,0H520v-1h10Zm-20,0H500v-1h10Zm-20,0H480v-1h10Zm-20,0H460v-1h10Zm-20,0H440v-1h10Zm-20,0H420v-1h10Zm-20,0H400v-1h10Zm-20,0H380v-1h10Zm-20,0H360v-1h10Zm-20,0H340v-1h10Zm-20,0H320v-1h10Zm-20,0H300v-1h10Zm-20,0H280v-1h10Zm-20,0H260v-1h10Zm-20,0H240v-1h10Zm-20,0H220v-1h10Zm-20,0H200v-1h10Zm-20,0H180v-1h10Zm-20,0H160v-1h10Zm-20,0H140v-1h10Zm-20,0H120v-1h10Zm-20,0H100v-1h10ZM90,.5H80v-1H90ZM70,.5H60v-1H70ZM50,.5H40v-1H50ZM30,.5H20v-1H30ZM10,.5H0v-1H10Z" transform="translate(133 570)" fill="#e85b2e"/>
      <g id="Component_22_5" data-name="Component 22 – 5" transform="translate(199 338.118)">
        <g id="Rectangle_289-3" data-name="Rectangle 289" transform="translate(67.882) rotate(45)" fill="none" stroke="#e77e5d" stroke-width="1">
          <rect width="96" height="96" stroke="none"/>
          <rect x="0.5" y="0.5" width="95" height="95" fill="none"/>
        </g>
        <text id="Default:_Earliest_Available._Change_" data-name="Default: 
Earliest Available.
Change?" transform="translate(70.882 54.882)" fill="#f38e61" font-size="13" font-family="Poppins-Regular, Poppins"><tspan x="-26.403" y="0">Default: </tspan><tspan x="-56.277" y="20">Earliest Available.</tspan><tspan x="-29.562" y="40">Change?</tspan></text>
      </g>
      <text id="No-2" data-name="No" transform="translate(351.383 377.96)" fill="#f38e61" font-size="16" font-family="Poppins-Regular, Poppins"><tspan x="0" y="17">No</tspan></text>
      <g id="Component_21_46" data-name="Component 21 – 46" transform="translate(344.883 400.96)">
        <line id="Line_41-7" data-name="Line 41" x2="45" transform="translate(0 5.75)" fill="none" stroke="#e77e5d" stroke-width="1"/>
        <path id="Path_523-7" data-name="Path 523" d="M4399.75,152.75l5.771,5.772-5.771,5.772" transform="translate(-4360.521 -152.75)" fill="none" stroke="#e77e5d" stroke-width="1"/>
      </g>
      <g id="Component_21_47" data-name="Component 21 – 47" transform="translate(267.266 505.372)">
        <line id="Line_41-8" data-name="Line 41" x2="45" transform="translate(0 5.75)" fill="none" stroke="#e77e5d" stroke-width="1"/>
        <path id="Path_523-8" data-name="Path 523" d="M4399.75,152.75l5.771,5.772-5.771,5.772" transform="translate(-4360.521 -152.75)" fill="none" stroke="#e77e5d" stroke-width="1"/>
      </g>
      <g id="Component_20_46" data-name="Component 20 – 46" transform="translate(322.383 479)">
        <g id="Rectangle_277-3" data-name="Rectangle 277" fill="none" stroke="#e77e5d" stroke-width="1">
          <rect width="175" height="43" rx="11" stroke="none"/>
          <rect x="0.5" y="0.5" width="174" height="42" rx="10.5" fill="none"/>
        </g>
        <text id="Select_date_time" data-name="Select date &amp; time" transform="translate(16 27)" fill="#f38e61" font-size="16" font-family="Poppins-Regular, Poppins"><tspan x="0" y="0">Select date &amp; time</tspan></text>
      </g>
      <path id="Line_71" data-name="Line 71" d="M.5,40.644h-1V0h1Z" transform="translate(266.883 470.5)" fill="#e77e5d"/>
      <text id="Yes-3" data-name="Yes" transform="translate(280.266 470.729)" fill="#f38e61" font-size="16" font-family="Poppins-Regular, Poppins"><tspan x="0" y="17">Yes</tspan></text>
      <g id="Component_20_47" data-name="Component 20 – 47" transform="translate(404.383 381.356)">
        <g id="Rectangle_277-4" data-name="Rectangle 277" fill="none" stroke="#e77e5d" stroke-width="1">
          <rect width="109" height="43" rx="11" stroke="none"/>
          <rect x="0.5" y="0.5" width="108" height="42" rx="10.5" fill="none"/>
        </g>
        <text id="Select_vet" data-name="Select vet" transform="translate(16 27)" fill="#f38e61" font-size="16" font-family="Poppins-Regular, Poppins"><tspan x="0" y="0">Select vet</tspan></text>
      </g>
      <g id="Component_20_48" data-name="Component 20 – 48" transform="translate(578.383 382.356)">
        <g id="Rectangle_277-5" data-name="Rectangle 277" fill="none" stroke="#e77e5d" stroke-width="1">
          <rect width="153" height="43" rx="11" stroke="none"/>
          <rect x="0.5" y="0.5" width="152" height="42" rx="10.5" fill="none"/>
        </g>
        <text id="Select_time_slot" data-name="Select time slot" transform="translate(16 27)" fill="#f38e61" font-size="16" font-family="Poppins-Regular, Poppins"><tspan x="0" y="0">Select time slot</tspan></text>
      </g>
      <g id="Component_21_48" data-name="Component 21 – 48" transform="translate(523.5 400.96)">
        <line id="Line_41-9" data-name="Line 41" x2="45" transform="translate(0 5.75)" fill="none" stroke="#e77e5d" stroke-width="1"/>
        <path id="Path_523-9" data-name="Path 523" d="M4399.75,152.75l5.771,5.772-5.771,5.772" transform="translate(-4360.521 -152.75)" fill="none" stroke="#e77e5d" stroke-width="1"/>
      </g>
      <g id="Component_21_49" data-name="Component 21 – 49" transform="translate(741.5 400.96)">
        <line id="Line_41-10" data-name="Line 41" x2="45" transform="translate(0 5.75)" fill="none" stroke="#f38e61" stroke-width="1"/>
        <path id="Path_523-10" data-name="Path 523" d="M4399.75,152.75l5.771,5.772-5.771,5.772" transform="translate(-4360.521 -152.75)" fill="none" stroke="#f38e61" stroke-width="1"/>
      </g>
      <g id="Group_748" data-name="Group 748" transform="translate(-2.617 -40)">
        <path id="Ellipse_253" data-name="Ellipse 253" d="M50.5,1A49.513,49.513,0,0,0,31.233,96.11,49.513,49.513,0,0,0,69.767,4.89,49.189,49.189,0,0,0,50.5,1m0-1A50.5,50.5,0,1,1,0,50.5,50.5,50.5,0,0,1,50.5,0Z" transform="translate(799 396)" fill="#e77e5d"/>
        <text id="Read_Requir-_ements" data-name="Read
Requir-
ements" transform="translate(822 410)" fill="#f38e61" font-size="16" font-family="Poppins-Regular, Poppins"><tspan x="0" y="17">Read</tspan><tspan x="0" y="42">Requir-</tspan><tspan x="0" y="67">ements</tspan></text>
      </g>
      <g id="Component_20_49" data-name="Component 20 – 49" transform="translate(1215.766 206.959)">
        <g id="Rectangle_277-6" data-name="Rectangle 277" fill="none" stroke="#f38e61" stroke-width="1">
          <rect width="187" height="43" rx="11" stroke="none"/>
          <rect x="0.5" y="0.5" width="186" height="42" rx="10.5" fill="none"/>
        </g>
        <text id="Upload_picture_opt_" data-name="Upload picture (opt)" transform="translate(16 27)" fill="#e77e5d" font-size="16" font-family="Poppins-Regular, Poppins"><tspan x="0" y="0">Upload picture (opt)</tspan></text>
      </g>
      <g id="Component_21_51" data-name="Component 21 – 51" transform="translate(1303.493 255.959) rotate(90)">
        <line id="Line_41-11" data-name="Line 41" x2="39.708" transform="translate(0 5.75)" fill="none" stroke="#f38e61" stroke-width="1"/>
        <path id="Path_523-11" data-name="Path 523" d="M4399.75,152.75l5.771,5.772-5.771,5.772" transform="translate(-4365.813 -152.75)" fill="none" stroke="#f38e61" stroke-width="1"/>
      </g>
      <g id="Component_20_50" data-name="Component 20 – 50" transform="translate(962.383 382.356)">
        <g id="Rectangle_277-7" data-name="Rectangle 277" fill="none" stroke="#e77e5d" stroke-width="1">
          <rect width="101" height="43" rx="11" stroke="none"/>
          <rect x="0.5" y="0.5" width="100" height="42" rx="10.5" fill="none"/>
        </g>
        <text id="Confirm" transform="translate(16 27)" fill="#f38e61" font-size="16" font-family="Poppins-Regular, Poppins"><tspan x="0" y="0">Confirm</tspan></text>
      </g>
      <g id="Component_21_52" data-name="Component 21 – 52" transform="translate(907.5 400.96)">
        <line id="Line_41-12" data-name="Line 41" x2="45" transform="translate(0 5.75)" fill="none" stroke="#f38e61" stroke-width="1"/>
        <path id="Path_523-12" data-name="Path 523" d="M4399.75,152.75l5.771,5.772-5.771,5.772" transform="translate(-4360.521 -152.75)" fill="none" stroke="#f38e61" stroke-width="1"/>
      </g>
      <g id="Component_21_53" data-name="Component 21 – 53" transform="translate(1003.383 436) rotate(90)">
        <line id="Line_41-13" data-name="Line 41" x2="134" transform="translate(0 5.75)" fill="none" stroke="#f38e61" stroke-width="1"/>
        <path id="Path_523-13" data-name="Path 523" d="M4399.75,152.75l5.771,5.772-5.771,5.772" transform="translate(-4271.521 -152.75)" fill="none" stroke="#f38e61" stroke-width="1"/>
      </g>
      <g id="Group_746" data-name="Group 746" transform="translate(0 6)">
        <path id="Rectangle_290" data-name="Rectangle 290" d="M0,0H122a11,11,0,0,1,11,11V255a13,13,0,0,1-13,13H0a0,0,0,0,1,0,0V0A0,0,0,0,1,0,0Z" transform="translate(20 28)" fill="#ef9a7a" opacity="0.6"/>
        <text id="Vist_Reason" data-name="Vist 
Reason" transform="translate(42 126)" fill="#fff" font-size="25" font-family="Poppins-SemiBold, Poppins" font-weight="600"><tspan x="0" y="26">Vist </tspan><tspan x="0" y="64">Reason</tspan></text>
      </g>
      <g id="Group_747" data-name="Group 747" transform="translate(0 274)" opacity="0.98">
        <path id="Rectangle_290-2" data-name="Rectangle 290" d="M0,0H117a16,16,0,0,1,16,16V253a15,15,0,0,1-15,15H0a0,0,0,0,1,0,0V0A0,0,0,0,1,0,0Z" transform="translate(20 28)" fill="#f38e61" opacity="0.82"/>
        <text id="Select_Vet-2" data-name="Select
Vet" transform="translate(42 126)" fill="#fff" font-size="25" font-family="Poppins-SemiBold, Poppins" font-weight="600"><tspan x="0" y="26">Select</tspan><tspan x="0" y="64">Vet</tspan></text>
      </g>
      <g id="Group_749" data-name="Group 749" transform="translate(0 542)">
        <path id="Rectangle_290-3" data-name="Rectangle 290" d="M0,0H117a16,16,0,0,1,16,16V253a15,15,0,0,1-15,15H0a0,0,0,0,1,0,0V0A0,0,0,0,1,0,0Z" transform="translate(20 28)" fill="#f38e61"/>
        <text id="Pet_Info" data-name="Pet 
Info" transform="translate(42 126)" fill="#fff" font-size="25" font-family="Poppins-SemiBold, Poppins" font-weight="600"><tspan x="0" y="26">Pet </tspan><tspan x="0" y="64">Info</tspan></text>
      </g>
      <g id="Component_22_6" data-name="Component 22 – 6" transform="translate(199.235 617.762)">
        <g id="Rectangle_289-4" data-name="Rectangle 289" transform="translate(67.882) rotate(45)" fill="none" stroke="#e85b2e" stroke-width="1">
          <rect width="96" height="96" stroke="none"/>
          <rect x="0.5" y="0.5" width="95" height="95" fill="none"/>
        </g>
        <text id="Sign-up_Or_Login" data-name="Sign-up
Or 
Login" transform="translate(70.882 54.882)" fill="#e85b2e" font-size="13" font-family="Poppins-Regular, Poppins"><tspan x="-26.104" y="0">Sign-up</tspan><tspan x="-9.269" y="20">Or </tspan><tspan x="-17.121" y="40">Login</tspan></text>
      </g>
      <g id="Component_20_51" data-name="Component 20 – 51" transform="translate(430 639.644)">
        <g id="Rectangle_277-8" data-name="Rectangle 277" fill="none" stroke="#e85b2e" stroke-width="1">
          <rect width="168" height="93" rx="11" stroke="none"/>
          <rect x="0.5" y="0.5" width="167" height="92" rx="10.5" fill="none"/>
        </g>
        <text id="Enter_Name_email_password_postal_code" data-name="Enter Name
email, password,
postal code" transform="translate(16 27)" fill="#e85b2e" font-size="16" font-family="Poppins-Regular, Poppins"><tspan x="0" y="0">Enter Name</tspan><tspan x="0" y="25">email, password,</tspan><tspan x="0" y="50">postal code</tspan></text>
      </g>
      <g id="Component_21_54" data-name="Component 21 – 54" transform="translate(348 679.872)">
        <line id="Line_41-14" data-name="Line 41" x2="45" transform="translate(0 5.75)" fill="none" stroke="#e85b2e" stroke-width="1"/>
        <path id="Path_523-14" data-name="Path 523" d="M4399.75,152.75l5.771,5.772-5.771,5.772" transform="translate(-4360.521 -152.75)" fill="none" stroke="#e85b2e" stroke-width="1"/>
      </g>
      <text id="Sign-up" transform="translate(347.5 652.872)" fill="#f38e61" font-size="16" font-family="Poppins-Regular, Poppins"><tspan x="0" y="17">Sign-up</tspan></text>
      <g id="Component_21_55" data-name="Component 21 – 55" transform="translate(267.118 773.416)">
        <line id="Line_41-15" data-name="Line 41" x2="152.382" transform="translate(0 6.091)" fill="none" stroke="#e85b2e" stroke-width="1"/>
        <path id="Path_523-15" data-name="Path 523" d="M4399.75,152.75l5.771,6.114-5.771,6.114" transform="translate(-4253.139 -152.75)" fill="none" stroke="#e85b2e" stroke-width="1"/>
      </g>
      <g id="Component_20_52" data-name="Component 20 – 52" transform="translate(430 753.645)">
        <g id="Rectangle_277-9" data-name="Rectangle 277" fill="none" stroke="#e85b2e" stroke-width="1">
          <rect width="76" height="43" rx="11" stroke="none"/>
          <rect x="0.5" y="0.5" width="75" height="42" rx="10.5" fill="none"/>
        </g>
        <text id="Login" transform="translate(16 27)" fill="#e85b2e" font-size="16" font-family="Poppins-Regular, Poppins"><tspan x="0" y="0">Login</tspan></text>
      </g>
      <path id="Line_74" data-name="Line 74" d="M.5,26.05h-1V0h1Z" transform="translate(267.117 753.094)" fill="#e85b2e"/>
      <g id="Component_20_53" data-name="Component 20 – 53" transform="translate(669 663.645)">
        <g id="Rectangle_277-10" data-name="Rectangle 277" fill="none" stroke="#e85b2e" stroke-width="1">
          <rect width="171" height="43" rx="11" stroke="none"/>
          <rect x="0.5" y="0.5" width="170" height="42" rx="10.5" fill="none"/>
        </g>
        <text id="Verify_email:code" data-name="Verify email:code" transform="translate(16 27)" fill="#e85b2e" font-size="16" font-family="Poppins-Regular, Poppins"><tspan x="0" y="0">Verify email:code</tspan></text>
      </g>
      <g id="Component_21_56" data-name="Component 21 – 56" transform="translate(611 679.872)">
        <line id="Line_41-16" data-name="Line 41" x2="45" transform="translate(0 5.75)" fill="none" stroke="#e85b2e" stroke-width="1"/>
        <path id="Path_523-16" data-name="Path 523" d="M4399.75,152.75l5.771,5.772-5.771,5.772" transform="translate(-4360.521 -152.75)" fill="none" stroke="#e85b2e" stroke-width="1"/>
      </g>
      <g id="Component_20_54" data-name="Component 20 – 54" transform="translate(903 662)">
        <g id="Rectangle_277-11" data-name="Rectangle 277" fill="none" stroke="#e85b2e" stroke-width="1">
          <rect width="109" height="43" rx="11" stroke="none"/>
          <rect x="0.5" y="0.5" width="108" height="42" rx="10.5" fill="none"/>
        </g>
        <text id="Add_pet" data-name="Add pet" transform="translate(16 27)" fill="#e85b2e" font-size="16" font-family="Poppins-Regular, Poppins"><tspan x="0" y="0">Add pet</tspan></text>
      </g>
      <g id="Component_21_57" data-name="Component 21 – 57" transform="translate(849 679.872)">
        <line id="Line_41-17" data-name="Line 41" x2="45" transform="translate(0 5.75)" fill="none" stroke="#e85b2e" stroke-width="1"/>
        <path id="Path_523-17" data-name="Path 523" d="M4399.75,152.75l5.771,5.772-5.771,5.772" transform="translate(-4360.521 -152.75)" fill="none" stroke="#e85b2e" stroke-width="1"/>
      </g>
      <g id="Component_20_55" data-name="Component 20 – 55" transform="translate(1075 639.644)">
        <g id="Rectangle_277-12" data-name="Rectangle 277" fill="none" stroke="#e85b2e" stroke-width="1">
          <rect width="168" height="93" rx="11" stroke="none"/>
          <rect x="0.5" y="0.5" width="167" height="92" rx="10.5" fill="none"/>
        </g>
        <text id="Pet_name_gender_weight_age_type_neutered_spayed_" data-name="Pet name, gender,
weight, age, type,
neutered/spayed " transform="translate(16 27)" fill="#e85b2e" font-size="16" font-family="Poppins-Regular, Poppins"><tspan x="0" y="0">Pet name, gender,</tspan><tspan x="0" y="25">weight, age, type,</tspan><tspan x="0" y="50">neutered/spayed </tspan></text>
      </g>
      <g id="Component_21_58" data-name="Component 21 – 58" transform="translate(1021 679.872)">
        <line id="Line_41-18" data-name="Line 41" x2="45" transform="translate(0 5.75)" fill="none" stroke="#e85b2e" stroke-width="1"/>
        <path id="Path_523-18" data-name="Path 523" d="M4399.75,152.75l5.771,5.772-5.771,5.772" transform="translate(-4360.521 -152.75)" fill="none" stroke="#e85b2e" stroke-width="1"/>
      </g>
      <g id="Component_20_56" data-name="Component 20 – 56" transform="translate(1289 631)">
        <g id="Rectangle_277-13" data-name="Rectangle 277" fill="none" stroke="#e85b2e" stroke-width="1">
          <rect width="155" height="120" rx="11" stroke="none"/>
          <rect x="0.5" y="0.5" width="154" height="119" rx="10.5" fill="none"/>
        </g>
        <text id="Add_medical:_Allergies_Vaccination_Special_Needs" data-name="Add medical:
Allergies,
Vaccination,
Special Needs" transform="translate(16 27)" fill="#e85b2e" font-size="16" font-family="Poppins-Regular, Poppins"><tspan x="0" y="0">Add medical:</tspan><tspan x="0" y="25">Allergies,</tspan><tspan x="0" y="50">Vaccination,</tspan><tspan x="0" y="75">Special Needs</tspan></text>
      </g>
      <g id="Component_21_59" data-name="Component 21 – 59" transform="translate(1252 679.872)">
        <line id="Line_41-19" data-name="Line 41" x2="30" transform="translate(0 5.543)" fill="none" stroke="#e85b2e" stroke-width="1"/>
        <path id="Path_523-19" data-name="Path 523" d="M4399.75,152.75l5.771,5.564-5.771,5.564" transform="translate(-4375.521 -152.75)" fill="none" stroke="#e85b2e" stroke-width="1"/>
      </g>
      <g id="Component_20_57" data-name="Component 20 – 57" transform="translate(786 761)">
        <g id="Rectangle_277-14" data-name="Rectangle 277" fill="none" stroke="#e85b2e" stroke-width="1">
          <rect width="181" height="43" rx="11" stroke="none"/>
          <rect x="0.5" y="0.5" width="180" height="42" rx="10.5" fill="none"/>
        </g>
        <text id="Upload_picture_opt_2" data-name="Upload picture(opt)" transform="translate(16 27)" fill="#e85b2e" font-size="16" font-family="Poppins-Regular, Poppins"><tspan x="0" y="0">Upload picture(opt)</tspan></text>
      </g>
      <g id="Component_21_60" data-name="Component 21 – 60" transform="translate(1351 788.063) rotate(180)">
        <line id="Line_41-20" data-name="Line 41" x2="84" transform="translate(0 5.543)" fill="none" stroke="#e85b2e" stroke-width="1"/>
        <path id="Path_523-20" data-name="Path 523" d="M4399.75,152.75l5.771,5.564-5.771,5.564" transform="translate(-4321.521 -152.75)" fill="none" stroke="#e85b2e" stroke-width="1"/>
      </g>
      <path id="Line_75" data-name="Line 75" d="M.5,31h-1V0h1Z" transform="translate(1351.5 751.5)" fill="#e85b2e"/>
      <path id="Line_76" data-name="Line 76" d="M1410,.5h-10v-1h10Zm-20,0h-10v-1h10Zm-20,0h-10v-1h10Zm-20,0h-10v-1h10Zm-20,0h-10v-1h10Zm-20,0h-10v-1h10Zm-20,0h-10v-1h10Zm-20,0h-10v-1h10Zm-20,0h-10v-1h10Zm-20,0h-10v-1h10Zm-20,0h-10v-1h10Zm-20,0h-10v-1h10Zm-20,0h-10v-1h10Zm-20,0h-10v-1h10Zm-20,0h-10v-1h10Zm-20,0h-10v-1h10Zm-20,0h-10v-1h10Zm-20,0h-10v-1h10Zm-20,0h-10v-1h10Zm-20,0h-10v-1h10Zm-20,0h-10v-1h10Zm-20,0H980v-1h10Zm-20,0H960v-1h10Zm-20,0H940v-1h10Zm-20,0H920v-1h10Zm-20,0H900v-1h10Zm-20,0H880v-1h10Zm-20,0H860v-1h10Zm-20,0H840v-1h10Zm-20,0H820v-1h10Zm-20,0H800v-1h10Zm-20,0H780v-1h10Zm-20,0H760v-1h10Zm-20,0H740v-1h10Zm-20,0H720v-1h10Zm-20,0H700v-1h10Zm-20,0H680v-1h10Zm-20,0H660v-1h10Zm-20,0H640v-1h10Zm-20,0H620v-1h10Zm-20,0H600v-1h10Zm-20,0H580v-1h10Zm-20,0H560v-1h10Zm-20,0H540v-1h10Zm-20,0H520v-1h10Zm-20,0H500v-1h10Zm-20,0H480v-1h10Zm-20,0H460v-1h10Zm-20,0H440v-1h10Zm-20,0H420v-1h10Zm-20,0H400v-1h10Zm-20,0H380v-1h10Zm-20,0H360v-1h10Zm-20,0H340v-1h10Zm-20,0H320v-1h10Zm-20,0H300v-1h10Zm-20,0H280v-1h10Zm-20,0H260v-1h10Zm-20,0H240v-1h10Zm-20,0H220v-1h10Zm-20,0H200v-1h10Zm-20,0H180v-1h10Zm-20,0H160v-1h10Zm-20,0H140v-1h10Zm-20,0H120v-1h10Zm-20,0H100v-1h10ZM90,.5H80v-1H90ZM70,.5H60v-1H70ZM50,.5H40v-1H50ZM30,.5H20v-1H30ZM10,.5H0v-1H10Z" transform="translate(133 836)" fill="#e85b2e"/>
      <g id="Component_20_58" data-name="Component 20 – 58" transform="translate(1069 761)">
        <g id="Rectangle_277-15" data-name="Rectangle 277" fill="none" stroke="#e85b2e" stroke-width="1">
          <rect width="181" height="43" rx="11" stroke="none"/>
          <rect x="0.5" y="0.5" width="180" height="42" rx="10.5" fill="none"/>
        </g>
        <text id="Current_vet_opt_" data-name="Current vet(opt)" transform="translate(16 27)" fill="#e85b2e" font-size="16" font-family="Poppins-Regular, Poppins"><tspan x="0" y="0">Current vet(opt)</tspan></text>
      </g>
      <g id="Component_21_61" data-name="Component 21 – 61" transform="translate(1060 788.063) rotate(180)">
        <line id="Line_41-21" data-name="Line 41" x2="84" transform="translate(0 5.543)" fill="none" stroke="#e85b2e" stroke-width="1"/>
        <path id="Path_523-21" data-name="Path 523" d="M4399.75,152.75l5.771,5.564-5.771,5.564" transform="translate(-4321.521 -152.75)" fill="none" stroke="#e85b2e" stroke-width="1"/>
      </g>
      <g id="Component_21_62" data-name="Component 21 – 62" transform="translate(877.271 804) rotate(90)">
        <line id="Line_41-22" data-name="Line 41" x2="26.59" transform="translate(0 5.75)" fill="none" stroke="#f38e61" stroke-width="1"/>
        <path id="Path_523-22" data-name="Path 523" d="M4399.75,152.75l5.771,5.772-5.771,5.772" transform="translate(-4378.932 -152.75)" fill="none" stroke="#f38e61" stroke-width="1"/>
      </g>
      <g id="Group_751" data-name="Group 751" transform="translate(0 803)">
        <path id="Rectangle_290-4" data-name="Rectangle 290" d="M0,0H117a16,16,0,0,1,16,16V253a15,15,0,0,1-15,15H0a0,0,0,0,1,0,0V0A0,0,0,0,1,0,0Z" transform="translate(20 28)" fill="#d65e5e"/>
        <text id="Payment_Confirm" data-name="Payment
Confirm" transform="translate(27 107)" fill="#fff" font-size="25" font-family="Poppins-SemiBold, Poppins" font-weight="600"><tspan x="0" y="26">Payment</tspan><tspan x="0" y="64">Confirm</tspan></text>
      </g>
      <path id="Line_77" data-name="Line 77" d="M1414,.5H0v-1H1414Z" transform="translate(133 1098)" fill="#eab8a8"/>
      <g id="Component_20_59" data-name="Component 20 – 59" transform="translate(219 943.5)">
        <g id="Rectangle_277-16" data-name="Rectangle 277" fill="none" stroke="#e82e2e" stroke-width="1">
          <rect width="194" height="43" rx="11" stroke="none"/>
          <rect x="0.5" y="0.5" width="193" height="42" rx="10.5" fill="none"/>
        </g>
        <text id="Select_payment_plan" data-name="Select payment plan" transform="translate(16 27)" fill="#e82e2e" font-size="16" font-family="Poppins-Regular, Poppins"><tspan x="0" y="0">Select payment plan</tspan></text>
      </g>
      <g id="Component_20_60" data-name="Component 20 – 60" transform="translate(481.234 943.5)">
        <g id="Rectangle_277-17" data-name="Rectangle 277" fill="none" stroke="#e82e2e" stroke-width="1">
          <rect width="155" height="43" rx="11" stroke="none"/>
          <rect x="0.5" y="0.5" width="154" height="42" rx="10.5" fill="none"/>
        </g>
        <text id="Enter_payment" data-name="Enter payment" transform="translate(16 27)" fill="#e82e2e" font-size="16" font-family="Poppins-Regular, Poppins"><tspan x="0" y="0">Enter payment</tspan></text>
      </g>
      <g id="Component_20_61" data-name="Component 20 – 61" transform="translate(704.471 943.5)">
        <g id="Rectangle_277-18" data-name="Rectangle 277" fill="none" stroke="#e82e2e" stroke-width="1">
          <rect width="172" height="43" rx="11" stroke="none"/>
          <rect x="0.5" y="0.5" width="171" height="42" rx="10.5" fill="none"/>
        </g>
        <text id="Review_Confirm" data-name="Review &amp; Confirm" transform="translate(16 27)" fill="#e82e2e" font-size="16" font-family="Poppins-Regular, Poppins"><tspan x="0" y="0">Review &amp; Confirm</tspan></text>
      </g>
      <g id="Component_21_63" data-name="Component 21 – 63" transform="translate(424.617 959.228)">
        <line id="Line_41-23" data-name="Line 41" x2="45" transform="translate(0 5.75)" fill="none" stroke="#e82e2e" stroke-width="1"/>
        <path id="Path_523-23" data-name="Path 523" d="M4399.75,152.75l5.771,5.772-5.771,5.772" transform="translate(-4360.521 -152.75)" fill="none" stroke="#e82e2e" stroke-width="1"/>
      </g>
      <g id="Component_21_64" data-name="Component 21 – 64" transform="translate(647.853 959.228)">
        <line id="Line_41-24" data-name="Line 41" x2="45" transform="translate(0 5.75)" fill="none" stroke="#e82e2e" stroke-width="1"/>
        <path id="Path_523-24" data-name="Path 523" d="M4399.75,152.75l5.771,5.772-5.771,5.772" transform="translate(-4360.521 -152.75)" fill="none" stroke="#e82e2e" stroke-width="1"/>
      </g>
      <g id="Component_20_62" data-name="Component 20 – 62" transform="translate(944.705 929.5)">
        <g id="Rectangle_277-19" data-name="Rectangle 277" fill="none" stroke="#e82e2e" stroke-width="1">
          <rect width="198" height="71" rx="11" stroke="none"/>
          <rect x="0.5" y="0.5" width="197" height="70" rx="10.5" fill="none"/>
        </g>
        <text id="Receive_confirmation_email_instructions" data-name="Receive confirmation
email &amp; instructions" transform="translate(16 27)" fill="#e82e2e" font-size="16" font-family="Poppins-Regular, Poppins"><tspan x="0" y="0">Receive confirmation</tspan><tspan x="0" y="25">email &amp; instructions</tspan></text>
      </g>
      <g id="Component_21_65" data-name="Component 21 – 65" transform="translate(888.088 959.228)">
        <line id="Line_41-25" data-name="Line 41" x2="45" transform="translate(0 5.75)" fill="none" stroke="#e82e2e" stroke-width="1"/>
        <path id="Path_523-25" data-name="Path 523" d="M4399.75,152.75l5.771,5.772-5.771,5.772" transform="translate(-4360.521 -152.75)" fill="none" stroke="#e82e2e" stroke-width="1"/>
      </g>
      <g id="Component_20_63" data-name="Component 20 – 63" transform="translate(805.766 126)">
        <g id="Rectangle_277-20" data-name="Rectangle 277" fill="none" stroke="#f38e61" stroke-width="1">
          <rect width="168" height="43" rx="11" stroke="none"/>
          <rect x="0.5" y="0.5" width="167" height="42" rx="10.5" fill="none"/>
        </g>
        <text id="Select_language" data-name="Select language" transform="translate(16 27)" fill="#e77e5d" font-size="16" font-family="Poppins-Regular, Poppins"><tspan x="0" y="0">Select language</tspan></text>
      </g>
      <g id="Component_21_66" data-name="Component 21 – 66" transform="translate(1309.266 174) rotate(90)">
        <line id="Line_41-26" data-name="Line 41" x2="29" transform="translate(0 5.75)" fill="none" stroke="#f38e61" stroke-width="1"/>
        <path id="Path_523-26" data-name="Path 523" d="M4399.75,152.75l5.771,5.772-5.771,5.772" transform="translate(-4376.521 -152.75)" fill="none" stroke="#f38e61" stroke-width="1"/>
      </g>
      <text id="No-3" data-name="No" transform="translate(275.5 212.5)" fill="#e77e5d" font-size="16" font-family="Poppins-Regular, Poppins"><tspan x="0" y="17">No</tspan></text>
      <g id="Component_20_41" data-name="Component 20 – 41" transform="translate(311 216.96)">
        <g id="Rectangle_277-21" data-name="Rectangle 277" fill="none" stroke="#f38e61" stroke-width="1">
          <rect width="129" height="70" rx="11" stroke="none"/>
          <rect x="0.5" y="0.5" width="128" height="69" rx="10.5" fill="none"/>
        </g>
        <text id="Dialog:_Go_to_local_vet" data-name="Dialog: Go tolocal vet" transform="translate(16 27)" fill="#e77e5d" font-size="16" font-family="Poppins-Regular, Poppins"><tspan x="0" y="0">Dialog: Go to</tspan><tspan x="0" y="25">local vet</tspan></text>
      </g>
      <g id="Component_21_38" data-name="Component 21 – 38" transform="translate(344.5 145.033)">
        <line id="Line_41-27" data-name="Line 41" x2="45" transform="translate(0 5.75)" fill="none" stroke="#f38e61" stroke-width="1"/>
        <path id="Path_523-27" data-name="Path 523" d="M4399.75,152.75l5.771,5.772-5.771,5.772" transform="translate(-4360.521 -152.75)" fill="none" stroke="#f38e61" stroke-width="1"/>
      </g>
      <g id="Component_22_4" data-name="Component 22 – 4" transform="translate(199 78.617)">
        <g id="Rectangle_289-5" data-name="Rectangle 289" transform="translate(67.882) rotate(45)" fill="none" stroke="#f38e61" stroke-width="1">
          <rect width="96" height="96" stroke="none"/>
          <rect x="0.5" y="0.5" width="95" height="95" fill="none"/>
        </g>
        <text id="Symptoms_for_Virtual_Health_" data-name="Symptoms
for VirtualHealth? " transform="translate(70.882 54.882)" fill="#e77e5d" font-size="14" font-family="Poppins-Regular, Poppins"><tspan x="-37.884" y="0">Symptoms</tspan><tspan x="-33.81" y="21">for Virtual</tspan><tspan x="-28.203" y="42">Health? </tspan></text>
      </g>
      <text id="Yes-4" data-name="Yes" transform="translate(352.766 118.033)" fill="#e77e5d" font-size="16" font-family="Poppins-Regular, Poppins"><tspan x="0" y="17">Yes</tspan></text>
      <g id="Component_21_95" data-name="Component 21 – 95" transform="translate(267.827 236.577)">
        <line id="Line_41-28" data-name="Line 41" x2="37.057" transform="translate(0 8.797)" fill="none" stroke="#f38e61" stroke-width="1"/>
        <path id="Path_523-28" data-name="Path 523" d="M4399.75,152.75l5.771,8.831-5.771,8.831" transform="translate(-4368.465 -152.75)" fill="none" stroke="#f38e61" stroke-width="1"/>
      </g>
      <path id="Line_97" data-name="Line 97" d="M.5,29h-1V0h1Z" transform="translate(266.883 216.5)" fill="#f38e61"/>
      <text id="Default:_English" data-name="Default: English" transform="translate(847.766 174)" fill="#b2a9ac" font-size="14" font-family="CarmenSans-Regular, Carmen Sans"><tspan x="0" y="16">Default: English</tspan></text>
      <g id="Component_20_86" data-name="Component 20 – 86" transform="translate(1215.766 125)">
        <g id="Rectangle_277-22" data-name="Rectangle 277" fill="none" stroke="#f38e61" stroke-width="1">
          <rect width="168" height="43" rx="11" stroke="none"/>
          <rect x="0.5" y="0.5" width="167" height="42" rx="10.5" fill="none"/>
        </g>
        <text id="Describe_concerns" data-name="Describe concerns" transform="translate(16 27)" fill="#e77e5d" font-size="16" font-family="Poppins-Regular, Poppins"><tspan x="0" y="0">Describe concerns</tspan></text>
      </g>
    </g>
  </g>
</svg>
