<svg xmlns="http://www.w3.org/2000/svg" width="1158" height="154.967" viewBox="0 0 1158 154.967">
  <g id="Cohub_5step" transform="translate(0 0.5)">
    <line id="Line_60" data-name="Line 60" x2="730.333" transform="translate(327.221 45.479)" fill="none" stroke="#767474" stroke-width="1" stroke-dasharray="5 5"/>
    <line id="Line_61" data-name="Line 61" x2="157.837" transform="translate(147.982 45.479)" fill="none" stroke="#91cb33" stroke-width="1" stroke-dasharray="5 5"/>
    <circle id="Ellipse_13" data-name="Ellipse 13" cx="46.816" cy="46.816" r="46.816" transform="translate(304.482)" fill="#f8f8f8" stroke="#767474" stroke-width="1"/>
    <path id="Path_595" data-name="Path 595" d="M140.37,10.72c-7.758,0-12.841,5.4-12.895,14.446h6.1c.214-6.528,2.3-9.363,6.421-9.363,4.066,0,6.313,2.408,6.313,6.581,0,2.836-1.659,5.511-5.3,8.186-3.906,2.889-8.293,5.136-11.075,8.828a15.741,15.741,0,0,0-3.157,9.524h25.575V43.465H134.11c.642-2.033,2.194-3.692,7.544-7.063,4.066-2.568,6.956-4.922,8.454-7.116a11.515,11.515,0,0,0,2.3-7.063,12.023,12.023,0,0,0-2.889-7.919C147.433,12.058,144.543,10.72,140.37,10.72Z" transform="translate(210.554 16.621)" fill="#767474"/>
    <circle id="Ellipse_14" data-name="Ellipse 14" cx="46.816" cy="46.816" r="46.816" transform="translate(555.952)" fill="#f8f8f8" stroke="#767474" stroke-width="1"/>
    <path id="Path_596" data-name="Path 596" d="M233.729,10.72c-6.956,0-12.092,4.869-12.413,12.734h6.1v-.482c0-4.013,2.461-7.17,6.207-7.17,3.264,0,5.832,1.98,5.832,5.3,0,3.852-2.943,5.885-7.7,5.885h-.589v4.548H232.6c5.564,0,8.347,1.98,8.347,6.367,0,4.12-3,6.688-7.17,6.688-4.494,0-7.063-3.157-7.063-7.491v-.482h-6.1c.268,8.668,5.136,13.055,13.162,13.055,6.849,0,13.269-4.173,13.269-11.45,0-4.815-2.461-8.454-6.795-9.363v-.107c3.585-1.338,5.3-4.066,5.3-8.026C245.553,14.251,239.882,10.72,233.729,10.72Z" transform="translate(367.755 16.621)" fill="#767474"/>
    <circle id="Ellipse_15" data-name="Ellipse 15" cx="46.816" cy="46.816" r="46.816" transform="translate(807.422)" fill="#f8f8f8" stroke="#767474" stroke-width="1"/>
    <path id="Path_597" data-name="Path 597" d="M330.531,11,314.48,33.525v6.046h16.051v8.882h5.778V39.571h4.815V34.756H336.31V11Zm0,7.277V34.756H319.188l11.236-16.479Z" transform="translate(524.991 17.09)" fill="#767474"/>
    <circle id="Ellipse_16" data-name="Ellipse 16" cx="46.816" cy="46.816" r="46.816" transform="translate(1058.892)" fill="#f8f8f8" stroke="#767474" stroke-width="1"/>
    <path id="Path_598" data-name="Path 598" d="M413.408,11,409.4,31.492h6.1c.749-2.087,2.836-3.424,6.046-3.424,4.548,0,7.116,3.371,7.116,7.865,0,5.243-2.408,8.186-6.956,8.186-3.959,0-6.528-2.247-6.9-6.313h-6.1c.267,7.116,5.4,11.4,13.108,11.4,9.2,0,12.948-7.384,12.948-13.43,0-7.437-4.655-12.52-11.664-12.52a9.614,9.614,0,0,0-6.955,2.836l-.107-.107,1.926-9.524h14.821V11Z" transform="translate(682.829 17.09)" fill="#767474"/>
    <circle id="Ellipse_17" data-name="Ellipse 17" cx="46.816" cy="46.816" r="46.816" transform="translate(53.012)" fill="#f4fff6" stroke="#91cb33" stroke-width="1"/>
    <path id="Path_599" data-name="Path 599" d="M43.975,11c-.7,3.852-4.6,6.153-10.915,6.206v4.815h9.2V48.453h6.688V11Z" transform="translate(53.553 17.09)" fill="#91cb33"/>
    <path id="Path_600" data-name="Path 600" d="M8.421,70.523a9.857,9.857,0,0,1-3.981-.77,6.8,6.8,0,0,1-2.729-2.183A5.669,5.669,0,0,1,.684,64.327H3.8a4.2,4.2,0,0,0,1.284,2.665,4.773,4.773,0,0,0,3.339,1.059A4.842,4.842,0,0,0,11.7,67.024a3.414,3.414,0,0,0,1.22-2.7,3.043,3.043,0,0,0-.706-2.087,4.512,4.512,0,0,0-1.766-1.22,27.589,27.589,0,0,0-2.857-.9,25.958,25.958,0,0,1-3.563-1.156,5.917,5.917,0,0,1-2.279-1.8,5.466,5.466,0,0,1-.931-3.339,5.757,5.757,0,0,1,.931-3.242,6.081,6.081,0,0,1,2.6-2.183,9.322,9.322,0,0,1,3.884-.77,8.035,8.035,0,0,1,5.136,1.573,5.792,5.792,0,0,1,2.279,4.173h-3.21a3.406,3.406,0,0,0-1.348-2.247,4.738,4.738,0,0,0-3.146-1,4.507,4.507,0,0,0-2.986.963A3.187,3.187,0,0,0,3.8,53.733a2.912,2.912,0,0,0,.674,1.99,4.789,4.789,0,0,0,1.7,1.188q1.027.385,2.857.9a25,25,0,0,1,3.563,1.22,5.754,5.754,0,0,1,2.311,1.83,5.251,5.251,0,0,1,.963,3.339A5.891,5.891,0,0,1,15,67.28a6.371,6.371,0,0,1-2.568,2.343A8.475,8.475,0,0,1,8.421,70.523Zm27.8-9.695a17.192,17.192,0,0,1-.1,1.766H22.062a5.478,5.478,0,0,0,5.714,5.522,5.4,5.4,0,0,0,3.146-.867,4.728,4.728,0,0,0,1.8-2.376h3.146a7.64,7.64,0,0,1-2.825,4.141,8.587,8.587,0,0,1-5.265,1.573,8.982,8.982,0,0,1-4.494-1.124A8.011,8.011,0,0,1,20.2,66.285a10.953,10.953,0,0,1-.032-9.6,7.587,7.587,0,0,1,3.05-3.146,9.112,9.112,0,0,1,4.559-1.124,8.829,8.829,0,0,1,4.43,1.091,7.423,7.423,0,0,1,2.953,3.018A8.66,8.66,0,0,1,36.219,60.828Zm-3.018-.61a5.305,5.305,0,0,0-.738-2.857,4.647,4.647,0,0,0-2.022-1.83,6.03,6.03,0,0,0-2.793-.642A5.473,5.473,0,0,0,23.859,56.3a5.79,5.79,0,0,0-1.766,3.917Zm5.782,1.22a9.787,9.787,0,0,1,1.091-4.719,7.929,7.929,0,0,1,2.986-3.178,8.319,8.319,0,0,1,4.27-1.124,7.806,7.806,0,0,1,4.013,1,6.631,6.631,0,0,1,2.536,2.5v-3.21h2.953V70.3H53.879V67.024a6.967,6.967,0,0,1-2.6,2.568,7.741,7.741,0,0,1-3.981,1,7.974,7.974,0,0,1-4.238-1.156,8.106,8.106,0,0,1-2.986-3.242A10.1,10.1,0,0,1,38.983,61.438Zm14.9.032a7.152,7.152,0,0,0-.8-3.467,5.525,5.525,0,0,0-2.183-2.247,5.727,5.727,0,0,0-2.986-.8,5.911,5.911,0,0,0-2.986.77,5.589,5.589,0,0,0-2.151,2.247,7.152,7.152,0,0,0-.8,3.467,7.412,7.412,0,0,0,.8,3.531,5.818,5.818,0,0,0,2.151,2.279,6.17,6.17,0,0,0,5.971,0,5.746,5.746,0,0,0,2.183-2.279A7.341,7.341,0,0,0,53.879,61.47Zm11.454-6.356V65.483a2.527,2.527,0,0,0,.546,1.83,2.748,2.748,0,0,0,1.894.514h2.151V70.3H67.291a5.239,5.239,0,0,1-3.66-1.124,4.822,4.822,0,0,1-1.22-3.692V55.114H60.132V52.706h2.279v-4.43h2.921v4.43h4.591v2.408Zm9.639-5.265a1.99,1.99,0,1,1,0-3.981,1.781,1.781,0,0,1,1.348.578,2.015,2.015,0,0,1,0,2.825A1.781,1.781,0,0,1,74.971,49.849Zm1.413,2.857V70.3H73.463V52.706Zm13.55-.321a7.1,7.1,0,0,1,5.2,1.958,7.42,7.42,0,0,1,1.99,5.586V70.3H94.236V60.346a5.6,5.6,0,0,0-1.316-4.013,4.675,4.675,0,0,0-3.6-1.413,4.868,4.868,0,0,0-3.692,1.445,5.947,5.947,0,0,0-1.348,4.205V70.3H81.363V52.706h2.921v2.5a5.824,5.824,0,0,1,2.343-2.087A7.42,7.42,0,0,1,89.934,52.385Zm19.218.032a7.741,7.741,0,0,1,3.981,1,6.578,6.578,0,0,1,2.568,2.5v-3.21h2.953V70.683a8.692,8.692,0,0,1-1.027,4.27,7.269,7.269,0,0,1-2.953,2.953,8.927,8.927,0,0,1-4.43,1.059,9.75,9.75,0,0,1-5.778-1.637,6.4,6.4,0,0,1-2.729-4.462h2.889a4.529,4.529,0,0,0,1.99,2.568,6.44,6.44,0,0,0,3.628,1,5.3,5.3,0,0,0,3.917-1.509,5.66,5.66,0,0,0,1.541-4.238V66.991a7.031,7.031,0,0,1-2.568,2.568,7.552,7.552,0,0,1-3.981,1.027,7.957,7.957,0,0,1-7.255-4.4,10.1,10.1,0,0,1-1.091-4.751,9.787,9.787,0,0,1,1.091-4.719,7.929,7.929,0,0,1,2.986-3.178A8.319,8.319,0,0,1,109.153,52.417ZM115.7,61.47A7.152,7.152,0,0,0,114.9,58a5.525,5.525,0,0,0-2.183-2.247,5.727,5.727,0,0,0-2.986-.8,5.911,5.911,0,0,0-2.986.77,5.589,5.589,0,0,0-2.151,2.247,7.152,7.152,0,0,0-.8,3.467,7.412,7.412,0,0,0,.8,3.531,5.818,5.818,0,0,0,2.151,2.279,6.17,6.17,0,0,0,5.971,0,5.746,5.746,0,0,0,2.183-2.279A7.341,7.341,0,0,0,115.7,61.47Zm29.675,3.852h-9.759l-1.8,4.976h-3.082l8.09-22.247H142.2L150.256,70.3h-3.082Zm-.835-2.376-4.045-11.3-4.045,11.3ZM156.7,55.563a5.634,5.634,0,0,1,2.183-2.343,6.886,6.886,0,0,1,3.5-.835V55.4h-.77q-4.912,0-4.912,5.329V70.3h-2.921V52.706H156.7Zm25.106,5.265a17.192,17.192,0,0,1-.1,1.766H167.651a5.478,5.478,0,0,0,5.714,5.522,5.4,5.4,0,0,0,3.146-.867,4.728,4.728,0,0,0,1.8-2.376h3.146a7.64,7.64,0,0,1-2.825,4.141,8.587,8.587,0,0,1-5.265,1.573,8.982,8.982,0,0,1-4.494-1.124,8.011,8.011,0,0,1-3.082-3.178,10.953,10.953,0,0,1-.032-9.6,7.587,7.587,0,0,1,3.05-3.146,9.112,9.112,0,0,1,4.559-1.124,8.829,8.829,0,0,1,4.43,1.091,7.423,7.423,0,0,1,2.953,3.018A8.66,8.66,0,0,1,181.809,60.828Zm-3.018-.61a5.305,5.305,0,0,0-.738-2.857,4.647,4.647,0,0,0-2.022-1.83,6.03,6.03,0,0,0-2.793-.642,5.473,5.473,0,0,0-3.788,1.412,5.79,5.79,0,0,0-1.766,3.917Zm5.782,1.22a9.787,9.787,0,0,1,1.091-4.719,7.929,7.929,0,0,1,2.986-3.178,8.319,8.319,0,0,1,4.27-1.124,7.806,7.806,0,0,1,4.013,1,6.631,6.631,0,0,1,2.536,2.5v-3.21h2.953V70.3h-2.953V67.024a6.967,6.967,0,0,1-2.6,2.568,7.741,7.741,0,0,1-3.981,1,7.974,7.974,0,0,1-4.238-1.156,8.106,8.106,0,0,1-2.986-3.242A10.1,10.1,0,0,1,184.573,61.438Zm14.9.032a7.152,7.152,0,0,0-.8-3.467,5.525,5.525,0,0,0-2.183-2.247,5.727,5.727,0,0,0-2.986-.8,5.911,5.911,0,0,0-2.986.77,5.589,5.589,0,0,0-2.151,2.247,7.152,7.152,0,0,0-.8,3.467,7.412,7.412,0,0,0,.8,3.531,5.818,5.818,0,0,0,2.151,2.279,6.17,6.17,0,0,0,5.971,0,5.746,5.746,0,0,0,2.183-2.279A7.342,7.342,0,0,0,199.469,61.47Z" transform="translate(-0.684 75.502)" fill="#91cb33"/>
    <path id="Path_601" data-name="Path 601" d="M126.421,69.417a9.857,9.857,0,0,1-3.981-.77,6.8,6.8,0,0,1-2.729-2.183,5.669,5.669,0,0,1-1.027-3.242H121.8a4.2,4.2,0,0,0,1.284,2.665,4.772,4.772,0,0,0,3.339,1.059,4.842,4.842,0,0,0,3.274-1.027,3.414,3.414,0,0,0,1.22-2.7,3.043,3.043,0,0,0-.706-2.087,4.512,4.512,0,0,0-1.766-1.22,27.59,27.59,0,0,0-2.857-.9,25.956,25.956,0,0,1-3.563-1.156,5.917,5.917,0,0,1-2.279-1.8,5.466,5.466,0,0,1-.931-3.339,5.757,5.757,0,0,1,.931-3.242,6.081,6.081,0,0,1,2.6-2.183,9.322,9.322,0,0,1,3.884-.77,8.035,8.035,0,0,1,5.136,1.573,5.792,5.792,0,0,1,2.279,4.173h-3.21a3.406,3.406,0,0,0-1.348-2.247,4.738,4.738,0,0,0-3.146-1,4.507,4.507,0,0,0-2.986.963,3.187,3.187,0,0,0-1.156,2.632,2.912,2.912,0,0,0,.674,1.99,4.789,4.789,0,0,0,1.7,1.188q1.027.385,2.857.9a25,25,0,0,1,3.563,1.22,5.754,5.754,0,0,1,2.311,1.83,5.251,5.251,0,0,1,.963,3.339A5.891,5.891,0,0,1,133,66.175a6.371,6.371,0,0,1-2.568,2.343A8.475,8.475,0,0,1,126.421,69.417Zm27.8-9.695a17.191,17.191,0,0,1-.1,1.766H140.062a5.478,5.478,0,0,0,5.714,5.522,5.4,5.4,0,0,0,3.146-.867,4.728,4.728,0,0,0,1.8-2.376h3.146a7.64,7.64,0,0,1-2.825,4.141,8.587,8.587,0,0,1-5.265,1.573,8.982,8.982,0,0,1-4.494-1.124A8.012,8.012,0,0,1,138.2,65.18a10.953,10.953,0,0,1-.032-9.6,7.587,7.587,0,0,1,3.05-3.146,9.112,9.112,0,0,1,4.559-1.124,8.829,8.829,0,0,1,4.43,1.091,7.423,7.423,0,0,1,2.953,3.018A8.66,8.66,0,0,1,154.219,59.722Zm-3.018-.61a5.305,5.305,0,0,0-.738-2.857,4.647,4.647,0,0,0-2.022-1.83,6.03,6.03,0,0,0-2.793-.642,5.473,5.473,0,0,0-3.788,1.412,5.789,5.789,0,0,0-1.766,3.917Zm5.781,1.22a9.787,9.787,0,0,1,1.092-4.719,7.928,7.928,0,0,1,2.986-3.178,8.319,8.319,0,0,1,4.27-1.124,7.806,7.806,0,0,1,4.013,1,6.631,6.631,0,0,1,2.536,2.5V51.6h2.953V69.192h-2.953V65.918a6.967,6.967,0,0,1-2.6,2.568,7.741,7.741,0,0,1-3.981,1,7.974,7.974,0,0,1-4.238-1.156,8.105,8.105,0,0,1-2.986-3.242A10.1,10.1,0,0,1,156.982,60.332Zm14.9.032a7.152,7.152,0,0,0-.8-3.467,5.525,5.525,0,0,0-2.183-2.247,5.727,5.727,0,0,0-2.986-.8,5.911,5.911,0,0,0-2.986.77,5.589,5.589,0,0,0-2.151,2.247,7.152,7.152,0,0,0-.8,3.467,7.413,7.413,0,0,0,.8,3.531,5.818,5.818,0,0,0,2.151,2.279,6.17,6.17,0,0,0,5.971,0,5.746,5.746,0,0,0,2.183-2.279A7.341,7.341,0,0,0,171.878,60.364Zm11.455-6.356V64.377a2.527,2.527,0,0,0,.546,1.83,2.749,2.749,0,0,0,1.894.514h2.151v2.472h-2.632a5.239,5.239,0,0,1-3.66-1.124,4.822,4.822,0,0,1-1.22-3.692V54.008h-2.279V51.6h2.279V47.17h2.921V51.6h4.591v2.408Z" transform="translate(196.991 76.607)" fill="#767474"/>
    <path id="Path_602" data-name="Path 602" d="M219.035,63.955h-9.759l-1.8,4.976H204.4l8.09-22.247h3.371l8.058,22.247h-3.082ZM218.2,61.58l-4.045-11.3-4.045,11.3Zm15.468,7.64a9.289,9.289,0,0,1-3.628-.674A6.3,6.3,0,0,1,227.5,66.62a5.207,5.207,0,0,1-1.027-2.857h3.018a2.977,2.977,0,0,0,1.22,2.151,4.775,4.775,0,0,0,2.921.835,4.227,4.227,0,0,0,2.632-.738,2.256,2.256,0,0,0,.963-1.862,1.8,1.8,0,0,0-1.027-1.7,13.75,13.75,0,0,0-3.178-1.124,26.157,26.157,0,0,1-3.21-1.027,6.1,6.1,0,0,1-2.119-1.573,4.221,4.221,0,0,1-.867-2.761,4.16,4.16,0,0,1,.8-2.472,5.328,5.328,0,0,1,2.279-1.766,8.033,8.033,0,0,1,3.371-.674A7.2,7.2,0,0,1,238,52.527a5.32,5.32,0,0,1,1.926,4.045h-2.921a3,3,0,0,0-1.124-2.215,4.064,4.064,0,0,0-2.7-.835,4.185,4.185,0,0,0-2.5.674,2.083,2.083,0,0,0-.931,1.766,2.022,2.022,0,0,0,.546,1.445,4.7,4.7,0,0,0,1.413.9q.867.321,2.376.738a23.4,23.4,0,0,1,3.082,1.027,5.11,5.11,0,0,1,2.022,1.477,3.943,3.943,0,0,1,.9,2.6,4.452,4.452,0,0,1-.8,2.6,5.448,5.448,0,0,1-2.279,1.83A8.151,8.151,0,0,1,233.668,69.22Zm16.771,0a9.289,9.289,0,0,1-3.628-.674,6.3,6.3,0,0,1-2.536-1.926,5.206,5.206,0,0,1-1.027-2.857h3.018a2.977,2.977,0,0,0,1.22,2.151,4.775,4.775,0,0,0,2.921.835,4.227,4.227,0,0,0,2.632-.738A2.256,2.256,0,0,0,254,64.148a1.8,1.8,0,0,0-1.027-1.7,13.751,13.751,0,0,0-3.178-1.124,26.152,26.152,0,0,1-3.21-1.027,6.1,6.1,0,0,1-2.119-1.573,4.221,4.221,0,0,1-.867-2.761,4.16,4.16,0,0,1,.8-2.472,5.328,5.328,0,0,1,2.279-1.766,8.033,8.033,0,0,1,3.371-.674,7.2,7.2,0,0,1,4.719,1.477,5.321,5.321,0,0,1,1.926,4.045h-2.921a3,3,0,0,0-1.124-2.215,4.064,4.064,0,0,0-2.7-.835,4.184,4.184,0,0,0-2.5.674,2.083,2.083,0,0,0-.931,1.766,2.022,2.022,0,0,0,.546,1.445,4.7,4.7,0,0,0,1.413.9q.867.321,2.376.738a23.4,23.4,0,0,1,3.082,1.027,5.11,5.11,0,0,1,2.022,1.477,3.943,3.943,0,0,1,.9,2.6,4.452,4.452,0,0,1-.8,2.6,5.448,5.448,0,0,1-2.279,1.83A8.151,8.151,0,0,1,250.439,69.22Zm26.6-9.759a17.183,17.183,0,0,1-.1,1.766H262.879a5.478,5.478,0,0,0,5.714,5.522,5.4,5.4,0,0,0,3.146-.867,4.728,4.728,0,0,0,1.8-2.376h3.146a7.64,7.64,0,0,1-2.825,4.141,8.587,8.587,0,0,1-5.265,1.573A8.982,8.982,0,0,1,264.1,68.1a8.012,8.012,0,0,1-3.082-3.178,10.953,10.953,0,0,1-.032-9.6,7.587,7.587,0,0,1,3.05-3.146,9.112,9.112,0,0,1,4.559-1.124,8.829,8.829,0,0,1,4.43,1.091,7.423,7.423,0,0,1,2.953,3.018A8.66,8.66,0,0,1,277.036,59.461Zm-3.018-.61a5.306,5.306,0,0,0-.738-2.857,4.647,4.647,0,0,0-2.022-1.83,6.03,6.03,0,0,0-2.793-.642,5.473,5.473,0,0,0-3.788,1.412,5.789,5.789,0,0,0-1.766,3.917Zm10.436-5.1V64.116a2.527,2.527,0,0,0,.546,1.83,2.748,2.748,0,0,0,1.894.514h2.151v2.472h-2.632a5.239,5.239,0,0,1-3.66-1.124,4.822,4.822,0,0,1-1.22-3.692V53.747h-2.279V51.339h2.279v-4.43h2.921v4.43h4.591v2.408ZM298.815,69.22a9.289,9.289,0,0,1-3.628-.674,6.3,6.3,0,0,1-2.536-1.926,5.207,5.207,0,0,1-1.027-2.857h3.018a2.977,2.977,0,0,0,1.22,2.151,4.775,4.775,0,0,0,2.921.835,4.228,4.228,0,0,0,2.632-.738,2.256,2.256,0,0,0,.963-1.862,1.8,1.8,0,0,0-1.027-1.7,13.75,13.75,0,0,0-3.178-1.124,26.157,26.157,0,0,1-3.21-1.027,6.1,6.1,0,0,1-2.119-1.573,4.221,4.221,0,0,1-.867-2.761,4.159,4.159,0,0,1,.8-2.472,5.328,5.328,0,0,1,2.279-1.766,8.033,8.033,0,0,1,3.371-.674,7.2,7.2,0,0,1,4.719,1.477,5.321,5.321,0,0,1,1.926,4.045h-2.921a3,3,0,0,0-1.124-2.215,4.064,4.064,0,0,0-2.7-.835,4.184,4.184,0,0,0-2.5.674,2.083,2.083,0,0,0-.931,1.766,2.022,2.022,0,0,0,.546,1.445,4.7,4.7,0,0,0,1.413.9q.867.321,2.376.738a23.406,23.406,0,0,1,3.082,1.027,5.11,5.11,0,0,1,2.022,1.477,3.943,3.943,0,0,1,.9,2.6,4.452,4.452,0,0,1-.8,2.6,5.448,5.448,0,0,1-2.279,1.83A8.151,8.151,0,0,1,298.815,69.22Z" transform="translate(340.577 76.867)" fill="#767474"/>
    <path id="Path_603" data-name="Path 603" d="M308.884,53.185a6.207,6.207,0,0,1-1.926,4.655q-1.894,1.83-5.811,1.83h-4.3v9.342h-2.921V46.636h7.223a8.127,8.127,0,0,1,5.746,1.83A6.119,6.119,0,0,1,308.884,53.185Zm-7.737,4.077a5.192,5.192,0,0,0,3.6-1.059,3.887,3.887,0,0,0,1.156-3.018q0-4.141-4.751-4.141h-4.3v8.218Zm10.276,2.889a9.788,9.788,0,0,1,1.091-4.719,7.929,7.929,0,0,1,2.986-3.178,8.318,8.318,0,0,1,4.27-1.124,7.806,7.806,0,0,1,4.013,1,6.63,6.63,0,0,1,2.536,2.5v-3.21h2.953V69.011h-2.953V65.737a6.966,6.966,0,0,1-2.6,2.568,7.741,7.741,0,0,1-3.981,1,7.974,7.974,0,0,1-4.237-1.156,8.105,8.105,0,0,1-2.986-3.242A10.1,10.1,0,0,1,311.423,60.151Zm14.9.032a7.152,7.152,0,0,0-.8-3.467,5.526,5.526,0,0,0-2.183-2.247,5.727,5.727,0,0,0-2.986-.8,5.911,5.911,0,0,0-2.986.77,5.589,5.589,0,0,0-2.151,2.247,7.152,7.152,0,0,0-.8,3.467,7.413,7.413,0,0,0,.8,3.531,5.818,5.818,0,0,0,2.151,2.279,6.17,6.17,0,0,0,5.971,0,5.747,5.747,0,0,0,2.183-2.279A7.341,7.341,0,0,0,326.318,60.183Zm23.044-8.764L338.769,77.294h-3.018l3.467-8.475-7.095-17.4h3.242l5.522,14.254,5.457-14.254Zm24.09-.321a7.579,7.579,0,0,1,3.66.867,6.036,6.036,0,0,1,2.536,2.536,8.519,8.519,0,0,1,.931,4.141V69.011H377.69V59.06a5.6,5.6,0,0,0-1.316-4.013,4.493,4.493,0,0,0-3.5-1.413,4.672,4.672,0,0,0-3.628,1.477,5.947,5.947,0,0,0-1.348,4.205v9.695H365.01V59.06a5.6,5.6,0,0,0-1.316-4.013,4.493,4.493,0,0,0-3.5-1.413,4.671,4.671,0,0,0-3.628,1.477,5.947,5.947,0,0,0-1.348,4.205v9.695H352.3V51.419h2.921v2.536a5.8,5.8,0,0,1,2.311-2.119,7.147,7.147,0,0,1,3.242-.738,7.613,7.613,0,0,1,3.917,1,6.073,6.073,0,0,1,2.536,2.921,5.77,5.77,0,0,1,2.44-2.889A7.187,7.187,0,0,1,373.453,51.1Zm27.972,8.443a17.175,17.175,0,0,1-.1,1.766H387.268a5.478,5.478,0,0,0,5.714,5.522,5.4,5.4,0,0,0,3.146-.867,4.728,4.728,0,0,0,1.8-2.376h3.146a7.64,7.64,0,0,1-2.825,4.141,8.588,8.588,0,0,1-5.265,1.573,8.981,8.981,0,0,1-4.494-1.124A8.011,8.011,0,0,1,385.406,65a10.953,10.953,0,0,1-.032-9.6,7.587,7.587,0,0,1,3.05-3.146,9.112,9.112,0,0,1,4.559-1.124,8.829,8.829,0,0,1,4.43,1.091,7.423,7.423,0,0,1,2.954,3.018A8.661,8.661,0,0,1,401.425,59.541Zm-3.018-.61a5.3,5.3,0,0,0-.738-2.857,4.646,4.646,0,0,0-2.022-1.83,6.03,6.03,0,0,0-2.793-.642,5.472,5.472,0,0,0-3.788,1.412,5.789,5.789,0,0,0-1.766,3.917ZM413.851,51.1a7.1,7.1,0,0,1,5.2,1.958,7.42,7.42,0,0,1,1.99,5.586V69.011h-2.889V59.06a5.6,5.6,0,0,0-1.316-4.013,4.675,4.675,0,0,0-3.6-1.413,4.868,4.868,0,0,0-3.692,1.445,5.947,5.947,0,0,0-1.348,4.205v9.727H405.28V51.419H408.2v2.5a5.825,5.825,0,0,1,2.344-2.087A7.42,7.42,0,0,1,413.851,51.1Zm15.527,2.729V64.2a2.528,2.528,0,0,0,.546,1.83,2.749,2.749,0,0,0,1.894.514h2.151v2.472h-2.632a5.239,5.239,0,0,1-3.66-1.124,4.822,4.822,0,0,1-1.22-3.692V53.827h-2.279V51.419h2.279v-4.43h2.921v4.43h4.591v2.408Z" transform="translate(490.555 76.787)" fill="#767474"/>
    <path id="Path_604" data-name="Path 604" d="M404.706,70.3l-5.329-9.149h-3.531V70.3h-2.921V47.923h7.223a9.486,9.486,0,0,1,4.27.867,6.021,6.021,0,0,1,2.632,2.343,6.9,6.9,0,0,1-.482,7.448,6.44,6.44,0,0,1-3.981,2.343L408.2,70.3Zm-8.86-11.493h4.3a4.923,4.923,0,0,0,3.563-1.156A4.252,4.252,0,0,0,404.9,54.5a3.975,3.975,0,0,0-1.188-3.082,5.037,5.037,0,0,0-3.563-1.091h-4.3Zm32.662,2.022a17.175,17.175,0,0,1-.1,1.766H414.35a5.478,5.478,0,0,0,5.714,5.522,5.4,5.4,0,0,0,3.146-.867,4.728,4.728,0,0,0,1.8-2.376h3.146a7.64,7.64,0,0,1-2.825,4.141,8.587,8.587,0,0,1-5.265,1.573,8.982,8.982,0,0,1-4.494-1.124,8.012,8.012,0,0,1-3.082-3.178,10.952,10.952,0,0,1-.032-9.6,7.587,7.587,0,0,1,3.05-3.146,9.112,9.112,0,0,1,4.559-1.124,8.829,8.829,0,0,1,4.43,1.091,7.423,7.423,0,0,1,2.953,3.018A8.661,8.661,0,0,1,428.507,60.828Zm-3.018-.61a5.305,5.305,0,0,0-.738-2.857,4.647,4.647,0,0,0-2.022-1.83,6.03,6.03,0,0,0-2.793-.642,5.473,5.473,0,0,0-3.788,1.412,5.79,5.79,0,0,0-1.766,3.917ZM438.911,67.6l5.457-14.9h3.114L440.58,70.3h-3.4l-6.9-17.592h3.146Zm12.956-17.753a1.99,1.99,0,1,1,0-3.981,1.78,1.78,0,0,1,1.348.578,2.015,2.015,0,0,1,0,2.825A1.78,1.78,0,0,1,451.867,49.849Zm1.412,2.857V70.3h-2.921V52.706Zm21.03,8.122a17.175,17.175,0,0,1-.1,1.766H460.152a5.478,5.478,0,0,0,5.714,5.522,5.4,5.4,0,0,0,3.146-.867,4.728,4.728,0,0,0,1.8-2.376h3.146a7.64,7.64,0,0,1-2.825,4.141,8.587,8.587,0,0,1-5.265,1.573,8.982,8.982,0,0,1-4.494-1.124,8.012,8.012,0,0,1-3.082-3.178,10.952,10.952,0,0,1-.032-9.6,7.586,7.586,0,0,1,3.05-3.146,9.112,9.112,0,0,1,4.559-1.124,8.829,8.829,0,0,1,4.43,1.091,7.424,7.424,0,0,1,2.953,3.018A8.661,8.661,0,0,1,474.309,60.828Zm-3.018-.61a5.305,5.305,0,0,0-.738-2.857,4.647,4.647,0,0,0-2.022-1.83,6.031,6.031,0,0,0-2.793-.642A5.473,5.473,0,0,0,461.95,56.3a5.79,5.79,0,0,0-1.766,3.917ZM501.6,52.706,496.11,70.3h-3.018l-4.238-13.965L484.617,70.3H481.6l-5.522-17.592h2.986l4.045,14.767,4.366-14.767h2.986l4.27,14.8,3.981-14.8Z" transform="translate(656.401 75.502)" fill="#767474"/>
  </g>
</svg>
