<svg id="cohub_dots" xmlns="http://www.w3.org/2000/svg" xmlns:xlink="http://www.w3.org/1999/xlink" width="53" height="20" viewBox="0 0 53 20">
  <defs>
    <linearGradient id="linear-gradient" x1="0.5" x2="0.5" y2="1" gradientUnits="objectBoundingBox">
      <stop offset="0" stop-color="#91cb33"/>
      <stop offset="1" stop-color="#5e8c71"/>
    </linearGradient>
  </defs>
  <path id="Icon_material-location-on" data-name="Icon material-location-on" d="M14.5,3a7,7,0,0,0-7,7c0,5.25,7,13,7,13s7-7.75,7-13A7,7,0,0,0,14.5,3Zm0,9.5A2.5,2.5,0,1,1,17,10,2.5,2.5,0,0,1,14.5,12.5Z" transform="translate(-7.5 -3)" fill="#5e8c71"/>
  <path id="Icon_material-location-on-2" data-name="Icon material-location-on" d="M14.5,3a7,7,0,0,0-7,7c0,5.25,7,13,7,13s7-7.75,7-13A7,7,0,0,0,14.5,3Zm0,9.5A2.5,2.5,0,1,1,17,10,2.5,2.5,0,0,1,14.5,12.5Z" transform="translate(12.5 -3)" fill="#91cb33"/>
  <path id="Icon_material-location-on-3" data-name="Icon material-location-on" d="M14.5,3a7,7,0,0,0-7,7c0,5.25,7,13,7,13s7-7.75,7-13A7,7,0,0,0,14.5,3Zm0,9.5A2.5,2.5,0,1,1,17,10,2.5,2.5,0,0,1,14.5,12.5Z" transform="translate(31.5 -3)" fill="url(#linear-gradient)"/>
</svg>
