<svg id="dribbble" xmlns="http://www.w3.org/2000/svg" width="23" height="23" viewBox="0 0 23 23">
  <path id="dribbble-2" data-name="dribbble" d="M0,11.5A11.265,11.265,0,0,1,1.541,5.727,11.418,11.418,0,0,1,5.727,1.541,11.265,11.265,0,0,1,11.5,0a11.265,11.265,0,0,1,5.773,1.541,11.418,11.418,0,0,1,4.186,4.186A11.265,11.265,0,0,1,23,11.5a11.265,11.265,0,0,1-1.541,5.773,11.418,11.418,0,0,1-4.186,4.186A11.265,11.265,0,0,1,11.5,23a11.265,11.265,0,0,1-5.773-1.541,11.418,11.418,0,0,1-4.186-4.186A11.266,11.266,0,0,1,0,11.5Zm1.909,0a9.274,9.274,0,0,0,2.415,6.325,13.162,13.162,0,0,1,3.5-4.117,11.434,11.434,0,0,1,4.669-2.461q-.345-.8-.667-1.449a27.946,27.946,0,0,1-8.556,1.265q-.9,0-1.334-.023,0,.092-.012.23T1.909,11.5Zm.3-2.369q.506.046,1.495.046a25.242,25.242,0,0,0,7.291-1.035A23.289,23.289,0,0,0,7.153,2.967,9.337,9.337,0,0,0,4.036,5.52,9.82,9.82,0,0,0,2.208,9.131Zm3.427,9.936a9.4,9.4,0,0,0,9.246,1.38,33.773,33.773,0,0,0-1.794-7.613,9.809,9.809,0,0,0-4.266,2.323A13.047,13.047,0,0,0,5.635,19.067ZM9.154,2.231A24.442,24.442,0,0,1,12.9,7.452a11.454,11.454,0,0,0,4.715-3.335A9.323,9.323,0,0,0,11.5,1.909,8.828,8.828,0,0,0,9.154,2.231Zm4.577,6.854q.345.736.782,1.863,1.7-.161,3.7-.161,1.426,0,2.829.069A9.234,9.234,0,0,0,18.791,5.29,11.38,11.38,0,0,1,13.731,9.085Zm1.357,3.473a33.013,33.013,0,0,1,1.587,6.992,9.6,9.6,0,0,0,2.967-3.013,9.29,9.29,0,0,0,1.38-3.979q-1.679-.115-3.059-.115Q16.7,12.443,15.088,12.558Z"/>
</svg>
