<svg id="heart_dots" xmlns="http://www.w3.org/2000/svg" xmlns:xlink="http://www.w3.org/1999/xlink" width="51" height="18.999" viewBox="0 0 51 18.999">
  <defs>
    <linearGradient id="linear-gradient" x1="1.533" y1="0.5" x2="-0.333" y2="1" gradientUnits="objectBoundingBox">
      <stop offset="0" stop-color="#ff6767"/>
      <stop offset="1" stop-color="#f18aa7"/>
    </linearGradient>
    <linearGradient id="linear-gradient-2" x1="0.5" y1="0" x2="0.5" xlink:href="#linear-gradient"/>
  </defs>
  <g id="Group_237" data-name="Group 237" transform="translate(-287 -83.001)">
    <circle id="Ellipse_9" data-name="Ellipse 9" cx="2.5" cy="2.5" r="2.5" transform="translate(290 97)" fill="#ff6767"/>
    <circle id="Ellipse_10" data-name="Ellipse 10" cx="2.5" cy="2.5" r="2.5" transform="translate(310 97)" fill="#f18a8a"/>
    <circle id="Ellipse_11" data-name="Ellipse 11" cx="2.5" cy="2.5" r="2.5" transform="translate(330 97)" fill="url(#linear-gradient)"/>
  </g>
  <path id="Icon_awesome-heart" data-name="Icon awesome-heart" d="M10.834,2.966a3.2,3.2,0,0,0-4.373.319L6,3.76l-.462-.476a3.2,3.2,0,0,0-4.373-.319A3.365,3.365,0,0,0,.932,7.838l4.535,4.683a.735.735,0,0,0,1.062,0l4.535-4.683a3.363,3.363,0,0,0-.23-4.873Z" transform="translate(0.001 -2.248)" fill="#ff6767"/>
  <path id="Icon_awesome-heart-2" data-name="Icon awesome-heart" d="M10.834,2.966a3.2,3.2,0,0,0-4.373.319L6,3.76l-.462-.476a3.2,3.2,0,0,0-4.373-.319A3.365,3.365,0,0,0,.932,7.838l4.535,4.683a.735.735,0,0,0,1.062,0l4.535-4.683a3.363,3.363,0,0,0-.23-4.873Z" transform="translate(19.501 -2.248)" fill="#f18a8a"/>
  <path id="Icon_awesome-heart-3" data-name="Icon awesome-heart" d="M10.834,2.966a3.2,3.2,0,0,0-4.373.319L6,3.76l-.462-.476a3.2,3.2,0,0,0-4.373-.319A3.365,3.365,0,0,0,.932,7.838l4.535,4.683a.735.735,0,0,0,1.062,0l4.535-4.683a3.363,3.363,0,0,0-.23-4.873Z" transform="translate(39.001 -2.248)" fill="url(#linear-gradient-2)"/>
</svg>
