<svg id="heart_fun" xmlns="http://www.w3.org/2000/svg" width="100" height="100.001" viewBox="0 0 100 100.001">
  <g id="Group_511" data-name="Group 511">
    <path id="Path_93" data-name="Path 93" d="M67.551,55.049a52.305,52.305,0,0,1,11.123-3.771,1.953,1.953,0,1,0-.808-3.821,56.776,56.776,0,0,0-12.838,4.466c-2.4-2.866-5.154-5.863-8.122-8.83-3.154-3.154-6.341-6.064-9.367-8.57a44.129,44.129,0,0,0,6.375-11.079,57.894,57.894,0,0,0,3.8-21.49,1.953,1.953,0,0,0-3.906,0c0,12.221-3.134,22.336-9.322,30.141-1.168-.89-2.3-1.709-3.381-2.439-5.793-3.9-9.236-4.819-11.163-2.961l-.042.038-.006.005h0a3.214,3.214,0,0,0-.914,1.807L.152,97.291a1.953,1.953,0,0,0,2.556,2.556h.005L71.453,71.02a3.208,3.208,0,0,0,1.674-.793c.034-.029.066-.059.1-.086.012-.012.026-.022.038-.035l.005-.006c.014-.013.026-.028.039-.041,1.858-1.927.942-5.375-2.961-11.162C69.52,57.666,68.582,56.381,67.551,55.049ZM15.491,86.086a13.141,13.141,0,0,1-1.75,4.9L5.6,94.4l8.268-19.712a21.7,21.7,0,0,1,1.623,11.4Zm12.017-6.609c-.788,4.489-2.876,6.657-3.47,7.19l-5.147,2.161c1.144-4.073,1.445-10.538-2.977-19.025l5.853-13.957c6.071,11.509,6.53,19.138,5.742,23.63Zm6.967,2.812-4.21,1.765a19.718,19.718,0,0,0,1.012-3.476C32.84,72.6,30.288,62.736,23.7,51.246l2.113-5.04a33.157,33.157,0,0,1,4.35,6.657,1.953,1.953,0,0,0,3.589-1.542,37.061,37.061,0,0,0-6.271-9.093l3.229-7.7c.565,1.037,1.267,2.173,2.106,3.419q.865,1.286,1.894,2.661A36.733,36.733,0,0,1,39.93,68.047a39.663,39.663,0,0,1-5.454,14.243Zm15.049-6.311-9.272,3.891a49.231,49.231,0,0,0,3.516-11.1A42.468,42.468,0,0,0,43.4,50.814q1.388,1.47,2.853,2.933c2.921,2.921,5.87,5.632,8.7,8.008-.283,9.225-4.512,13.424-5.423,14.223Zm6.732-2.824a26.384,26.384,0,0,0,2.38-8.433c1.179.9,2.322,1.729,3.413,2.463,1.247.84,2.383,1.541,3.42,2.106Zm6.87-9.975A115.728,115.728,0,0,1,49.014,50.985a115.709,115.709,0,0,1-12.2-14.115c-2.909-4.106-3.693-6.2-3.9-7.111.908.207,3.005.991,7.111,3.9.605.432,1.235.892,1.873,1.376-.137.141-.272.284-.412.423a1.955,1.955,0,1,0,2.762,2.767q.368-.368.725-.745c2.963,2.449,6.1,5.308,9.164,8.379,2.64,2.64,5.123,5.327,7.325,7.911q-.529.294-1.058.6a1.953,1.953,0,1,0,1.953,3.383c.542-.313,1.085-.614,1.627-.908.849,1.078,1.636,2.126,2.347,3.13,2.914,4.1,3.692,6.2,3.9,7.107-.908-.207-3.005-.991-7.111-3.9Z" transform="translate(0 0.001)" fill="#ff6767"/>
    <path id="Path_94" data-name="Path 94" d="M165.495,283.785a1.961,1.961,0,1,0,.067.168C165.543,283.9,165.518,283.836,165.495,283.785Z" transform="translate(-130.166 -227.431)" fill="#ff6767"/>
    <path id="Path_95" data-name="Path 95" d="M371.077,110.69a1.953,1.953,0,0,0,2.762,0c4.363-4.364,11.434-6.364,16.6-6.781a1.953,1.953,0,0,0-.314-3.891c-5.854.472-13.931,2.8-19.044,7.912a1.953,1.953,0,0,0,0,2.76Z" transform="translate(-298.14 -80.477)" fill="#ff6767"/>
    <path id="Path_96" data-name="Path 96" d="M493.9,101.542l-.169-.044a1.953,1.953,0,0,0-.944,3.79l.1.026a1.953,1.953,0,0,0,1.012-3.773Z" transform="translate(-395.349 -81.627)" fill="#ff6767"/>
    <path id="Path_97" data-name="Path 97" d="M65.457,51.433H67.41v1.953a1.953,1.953,0,0,0,3.906,0V51.433H73.27a1.953,1.953,0,1,0,0-3.906H71.316V45.574a1.953,1.953,0,0,0-3.906,0v1.953H65.457a1.953,1.953,0,0,0,0,3.906Z" transform="translate(-51.101 -35.101)" fill="#ff6767"/>
    <path id="Path_98" data-name="Path 98" d="M299.455,148.432h1.953v1.953a1.953,1.953,0,1,0,3.906,0v-1.953h1.956a1.953,1.953,0,1,0,0-3.906h-1.953v-1.953a1.953,1.953,0,1,0-3.906,0v1.953h-1.953a1.953,1.953,0,0,0,0,3.906Z" transform="translate(-239.396 -113.154)" fill="#ff6767"/>
    <path id="Path_99" data-name="Path 99" d="M406.27,401.524h-1.953v-1.953a1.953,1.953,0,0,0-3.906,0v1.953h-1.956a1.953,1.953,0,1,0,0,3.906h1.953v1.953a1.953,1.953,0,0,0,3.906,0V405.43h1.956a1.953,1.953,0,1,0,0-3.906Z" transform="translate(-319.059 -319.957)" fill="#ff6767"/>
    <path id="Path_100" data-name="Path 100" d="M365.828,11.72a5.859,5.859,0,1,0-5.859-5.859A5.859,5.859,0,0,0,365.828,11.72Zm0-7.812a1.953,1.953,0,1,1-1.953,1.953,1.953,1.953,0,0,1,1.953-1.953Z" transform="translate(-289.662 -0.001)" fill="#ff6767"/>
    <path id="Path_101" data-name="Path 101" d="M428.36,173.619a5.859,5.859,0,1,0,5.859,5.859,5.859,5.859,0,0,0-5.859-5.859Zm0,7.812a1.953,1.953,0,1,1,1.953-1.953,1.953,1.953,0,0,1-1.953,1.953Z" transform="translate(-339.981 -139.708)" fill="#ff6767"/>
    <path id="Path_102" data-name="Path 102" d="M174.362,47.339a5.859,5.859,0,1,0-5.862-5.857,5.859,5.859,0,0,0,5.862,5.857Zm0-7.812a1.953,1.953,0,1,1-1.953,1.953,1.953,1.953,0,0,1,1.953-1.953Z" transform="translate(-135.592 -28.663)" fill="#ff6767"/>
    <path id="Path_103" data-name="Path 103" d="M433.1,286.011a1.953,1.953,0,1,0-1.953,1.953,1.953,1.953,0,0,0,1.953-1.953Z" transform="translate(-345.363 -228.578)" fill="#ff6767"/>
    <path id="Path_104" data-name="Path 104" d="M327.142,78.966a1.953,1.953,0,1,0-1.953-1.953,1.953,1.953,0,0,0,1.953,1.953Z" transform="translate(-261.675 -60.4)" fill="#ff6767"/>
    <path id="Path_105" data-name="Path 105" d="M461.141,359.057a1.953,1.953,0,1,0,1.953,1.953A1.953,1.953,0,0,0,461.141,359.057Z" transform="translate(-369.502 -288.928)" fill="#ff6767"/>
    <path id="Path_106" data-name="Path 106" d="M131.145,13.907a1.953,1.953,0,1,0-1.953-1.953A1.953,1.953,0,0,0,131.145,13.907Z" transform="translate(-103.959 -8.047)" fill="#ff6767"/>
  </g>
</svg>
