<svg id="heart_roses" xmlns="http://www.w3.org/2000/svg" width="79.333" height="110.264" viewBox="0 0 79.333 110.264">
  <path id="Path_91" data-name="Path 91" d="M150.959,26.4c-1.136-3.657-7.81-10.745-13.342-15.216C126.181,1.94,117.024,0,111.356,0c-5.976,0-12.392,2.07-19.07,6.151a1.618,1.618,0,0,0,1.688,2.762c6.162-3.767,12.01-5.676,17.382-5.676,17.361,0,35.222,19.969,36.511,24.12.2.652-.184,2.167-1.875,4.463-.057.077-.116.155-.175.232a13.552,13.552,0,0,0,.07-1.378c0-6.695-4.9-10.534-13.443-10.534a18.859,18.859,0,0,0-7.575,1.37c.036-.4.057-.8.057-1.206,0-6.695-4.9-10.534-13.443-10.534S98.041,13.61,98.041,20.3c0,.407.021.808.057,1.206a18.86,18.86,0,0,0-7.575-1.37c-8.543,0-13.443,3.84-13.443,10.534a13.552,13.552,0,0,0,.07,1.378c-.059-.078-.118-.155-.175-.232-1.691-2.3-2.078-3.811-1.875-4.463.619-1.993,5.855-8.848,13.656-14.845a1.618,1.618,0,1,0-1.973-2.566C79.189,15.784,73.013,23.166,72.009,26.4a5.185,5.185,0,0,0-.185,1.814,76.476,76.476,0,0,0,3.245,13.726A112.6,112.6,0,0,0,90.643,72.771a1.618,1.618,0,0,0,2.631-1.886,108.022,108.022,0,0,1-16.343-34.12A67.718,67.718,0,0,0,90.59,47.494c4.489,2.71,13.172,7.255,20.894,7.255s16.405-4.546,20.894-7.255a67.674,67.674,0,0,0,13.678-10.748A101.652,101.652,0,0,1,142,48.657a1.618,1.618,0,0,0,3,1.227c5.1-12.45,6.106-21.3,6.146-21.673a5.4,5.4,0,0,0-.186-1.814ZM83.053,25.118a13.767,13.767,0,0,1,7.47-1.741,13.767,13.767,0,0,1,7.47,1.741c.122.081.24.165.354.251a65.309,65.309,0,0,1-8.1,5.737,51.617,51.617,0,0,1-7.61-5.685C82.768,25.316,82.906,25.214,83.053,25.118Zm7.47,15.763A10.218,10.218,0,0,1,80.316,30.674a7.858,7.858,0,0,1,.4-2.61c2.887,2.587,9.431,7.834,16.985,9.853A10.173,10.173,0,0,1,90.522,40.88Zm1.74,3.842q-.512-.309-1.018-.627a13.359,13.359,0,0,0,6.819-2.3,13.37,13.37,0,0,0,2.587,7.194,60.963,60.963,0,0,1-8.388-4.268Zm7.468-9.65a27.516,27.516,0,0,1-6.208-2.182,69.687,69.687,0,0,0,6.764-4.925,7.763,7.763,0,0,1,.441,2.708A10.145,10.145,0,0,1,99.731,35.073Zm4.284-20.325a13.767,13.767,0,0,1,7.47-1.741,13.767,13.767,0,0,1,7.47,1.741c.122.081.239.164.353.25a65.49,65.49,0,0,1-8.1,5.737,51.615,51.615,0,0,1-7.61-5.685C103.729,14.946,103.868,14.844,104.014,14.747Zm-2.332,2.946c2.887,2.587,9.431,7.834,16.985,9.853A10.2,10.2,0,0,1,101.278,20.3a7.858,7.858,0,0,1,.4-2.61Zm17.271,17.795c.122.081.239.164.353.25a65.506,65.506,0,0,1-8.1,5.737,51.64,51.64,0,0,1-7.61-5.685c.135-.1.273-.206.419-.3a13.767,13.767,0,0,1,7.47-1.741,13.766,13.766,0,0,1,7.469,1.741Zm-7.469,15.762a10.218,10.218,0,0,1-10.206-10.206,7.858,7.858,0,0,1,.4-2.61c2.887,2.587,9.431,7.834,16.985,9.853A10.172,10.172,0,0,1,111.484,51.251Zm9.208-5.807a27.515,27.515,0,0,1-6.208-2.182,69.653,69.653,0,0,0,6.764-4.925,7.764,7.764,0,0,1,.441,2.709A10.143,10.143,0,0,1,120.692,45.443Zm0-20.741a27.515,27.515,0,0,1-6.208-2.182,69.725,69.725,0,0,0,6.765-4.925,7.765,7.765,0,0,1,.441,2.709,10.145,10.145,0,0,1-1,4.4Zm4.284.415a13.767,13.767,0,0,1,7.47-1.741,13.767,13.767,0,0,1,7.47,1.741c.122.081.239.164.353.25a65.488,65.488,0,0,1-8.1,5.737,51.641,51.641,0,0,1-7.61-5.685c.134-.1.272-.206.419-.3Zm5.73,19.605a60.952,60.952,0,0,1-8.388,4.268A13.366,13.366,0,0,0,124.9,41.8a13.362,13.362,0,0,0,6.819,2.3q-.507.318-1.018.627Zm1.74-3.842a10.218,10.218,0,0,1-10.206-10.206,7.856,7.856,0,0,1,.4-2.61c2.887,2.587,9.431,7.834,16.985,9.853a10.173,10.173,0,0,1-7.183,2.964Zm9.208-5.807a27.515,27.515,0,0,1-6.208-2.182,69.723,69.723,0,0,0,6.765-4.925,7.764,7.764,0,0,1,.441,2.709A10.149,10.149,0,0,1,141.653,35.073Z" transform="translate(-71.814)" fill="#ff6767"/>
  <path id="Path_92" data-name="Path 92" d="M223.377,249.027a1.619,1.619,0,0,0-2.16.758,109.647,109.647,0,0,1-20.838,29.572c-1,.509-6.462,2.948-14.23-.079-2.518-2.557-4.933-5.258-7.181-8.036a1.618,1.618,0,0,0-2.516,2.036c2.215,2.738,4.587,5.4,7.059,7.935l-3.018,18.666a4.908,4.908,0,0,0,4.815,5.656H201.3a4.908,4.908,0,0,0,4.815-5.656l-1.891-11.7c3.038,3.881,7.588,8.152,13.373,9.116a1.618,1.618,0,1,0,.532-3.193c-6.036-1.006-10.7-6.7-13.217-10.545a18.623,18.623,0,0,0,3.6.345,22,22,0,0,0,8.585-1.776,1.618,1.618,0,0,0-1.371-2.932c-.064.029-5.71,2.583-11.511.853a112.792,112.792,0,0,0,19.923-28.86A1.619,1.619,0,0,0,223.377,249.027ZM202.549,301.72a1.618,1.618,0,0,1-1.25.577H185.308a1.647,1.647,0,0,1-1.62-1.9l2.837-17.548a21.331,21.331,0,0,0,13.577.122l2.817,17.426A1.616,1.616,0,0,1,202.549,301.72Z" transform="translate(-153.634 -195.271)" fill="#ff6767"/>
</svg>
