<svg id="instagram" xmlns="http://www.w3.org/2000/svg" width="36" height="28" viewBox="0 0 36 28">
  <g id="instagram-2" data-name="instagram" transform="translate(6 2)">
    <g id="Group_434" data-name="Group 434">
      <g id="instagram_light" data-name="instagram light">
        <path id="Icon_awesome-instagram" data-name="Icon awesome-instagram" d="M12.084,8.125a6.2,6.2,0,1,0,6.2,6.2A6.186,6.186,0,0,0,12.084,8.125Zm0,10.225a4.028,4.028,0,1,1,4.028-4.028,4.036,4.036,0,0,1-4.028,4.028ZM19.979,7.872a1.445,1.445,0,1,1-1.445-1.445A1.442,1.442,0,0,1,19.979,7.872Zm4.1,1.467a7.152,7.152,0,0,0-1.952-5.064,7.2,7.2,0,0,0-5.064-1.952c-2-.113-7.976-.113-9.971,0A7.189,7.189,0,0,0,2.032,4.269,7.176,7.176,0,0,0,.08,9.333c-.113,2-.113,7.976,0,9.971a7.152,7.152,0,0,0,1.952,5.064A7.208,7.208,0,0,0,7.1,26.32c2,.113,7.976.113,9.971,0a7.152,7.152,0,0,0,5.064-1.952A7.2,7.2,0,0,0,24.083,19.3c.113-2,.113-7.97,0-9.966ZM21.505,21.445a4.078,4.078,0,0,1-2.3,2.3c-1.591.631-5.366.485-7.124.485s-5.538.14-7.124-.485a4.078,4.078,0,0,1-2.3-2.3c-.631-1.591-.485-5.366-.485-7.124s-.14-5.538.485-7.124a4.078,4.078,0,0,1,2.3-2.3c1.591-.631,5.366-.485,7.124-.485s5.538-.14,7.124.485a4.078,4.078,0,0,1,2.3,2.3c.631,1.591.485,5.366.485,7.124S22.136,19.86,21.505,21.445Z" transform="translate(0.005 -2.238)" fill="#272727"/>
      </g>
    </g>
  </g>
  <g id="Group_587" data-name="Group 587" transform="translate(-215 -763)">
    <g id="Group_583" data-name="Group 583">
      <rect id="Rectangle_257" data-name="Rectangle 257" width="36" height="28" transform="translate(215 763)" fill="none"/>
    </g>
  </g>
</svg>
