<svg xmlns="http://www.w3.org/2000/svg" width="25.236" height="25.236" viewBox="0 0 25.236 25.236">
  <path id="Icon_simple-instagram" data-name="Icon simple-instagram" d="M12.618,0C9.19,0,8.762.016,7.416.076A9.3,9.3,0,0,0,4.353.662,6.179,6.179,0,0,0,2.118,2.118,6.157,6.157,0,0,0,.662,4.353,9.277,9.277,0,0,0,.076,7.416C.013,8.762,0,9.19,0,12.618s.016,3.856.076,5.2a9.31,9.31,0,0,0,.587,3.063,6.188,6.188,0,0,0,1.455,2.235,6.17,6.17,0,0,0,2.235,1.455,9.316,9.316,0,0,0,3.063.587c1.346.063,1.774.076,5.2.076s3.856-.016,5.2-.076a9.337,9.337,0,0,0,3.063-.587,6.449,6.449,0,0,0,3.691-3.691,9.31,9.31,0,0,0,.587-3.063c.063-1.346.076-1.774.076-5.2s-.016-3.856-.076-5.2a9.331,9.331,0,0,0-.587-3.063,6.193,6.193,0,0,0-1.455-2.235A6.148,6.148,0,0,0,20.883.662,9.283,9.283,0,0,0,17.82.076C16.474.013,16.046,0,12.618,0Zm0,2.271c3.368,0,3.77.017,5.1.075a6.952,6.952,0,0,1,2.342.436,4.152,4.152,0,0,1,2.4,2.394,6.967,6.967,0,0,1,.434,2.342c.06,1.331.074,1.731.074,5.1s-.016,3.77-.078,5.1a7.1,7.1,0,0,1-.443,2.342,4.006,4.006,0,0,1-.945,1.453,3.937,3.937,0,0,1-1.451.942,7.018,7.018,0,0,1-2.35.434c-1.34.06-1.734.074-5.109.074s-3.771-.016-5.109-.078a7.155,7.155,0,0,1-2.351-.443,3.908,3.908,0,0,1-1.45-.945,3.831,3.831,0,0,1-.946-1.451,7.161,7.161,0,0,1-.442-2.35c-.047-1.325-.064-1.734-.064-5.093s.017-3.771.064-5.111A7.153,7.153,0,0,1,2.73,5.142,3.74,3.74,0,0,1,3.676,3.69a3.732,3.732,0,0,1,1.45-.944A6.984,6.984,0,0,1,7.461,2.3C8.8,2.255,9.2,2.24,12.571,2.24l.047.032Zm0,3.867A6.479,6.479,0,1,0,19.1,12.618,6.479,6.479,0,0,0,12.618,6.139Zm0,10.685a4.206,4.206,0,1,1,4.206-4.206A4.2,4.2,0,0,1,12.618,16.824Zm8.25-10.941A1.514,1.514,0,1,1,19.354,4.37,1.515,1.515,0,0,1,20.868,5.883Z" transform="translate(0)" fill="#bbb"/>
</svg>
