<svg id="linkedin" xmlns="http://www.w3.org/2000/svg" width="36" height="28" viewBox="0 0 36 28">
  <g id="Group_584" data-name="Group 584" transform="translate(-258 -762)">
    <g id="linkedin-2" data-name="linkedin" transform="translate(265 765)">
      <path id="Icon_awesome-linkedin-in" data-name="Icon awesome-linkedin-in" d="M4.771,21.314H.352V7.084H4.771ZM2.559,5.143A2.571,2.571,0,1,1,5.118,2.56,2.581,2.581,0,0,1,2.559,5.143Zm18.75,16.171H16.9V14.387c0-1.651-.033-3.768-2.3-3.768-2.3,0-2.649,1.794-2.649,3.649v7.046H7.539V7.084h4.238V9.025h.062a4.643,4.643,0,0,1,4.181-2.3c4.472,0,5.294,2.945,5.294,6.77v7.817Z" transform="translate(0 -0.001)" fill="#272727"/>
    </g>
    <rect id="Rectangle_258" data-name="Rectangle 258" width="36" height="28" transform="translate(258 762)" fill="none"/>
  </g>
</svg>
