<svg id="people" xmlns="http://www.w3.org/2000/svg" width="102" height="71.4" viewBox="0 0 102 71.4">
  <path id="Icon_awesome-users" data-name="Icon awesome-users" d="M15.3,32.85A10.2,10.2,0,1,0,5.1,22.65,10.209,10.209,0,0,0,15.3,32.85Zm71.4,0a10.2,10.2,0,1,0-10.2-10.2A10.209,10.209,0,0,0,86.7,32.85Zm5.1,5.1H81.6a10.17,10.17,0,0,0-7.188,2.964A23.312,23.312,0,0,1,86.381,58.35H96.9a5.1,5.1,0,0,0,5.1-5.1v-5.1A10.209,10.209,0,0,0,91.8,37.95Zm-40.8,0A17.85,17.85,0,1,0,33.15,20.1,17.841,17.841,0,0,0,51,37.95Zm12.24,5.1H61.917a24.645,24.645,0,0,1-21.834,0H38.76A18.365,18.365,0,0,0,20.4,61.41V66a7.652,7.652,0,0,0,7.65,7.65h45.9A7.652,7.652,0,0,0,81.6,66V61.41A18.365,18.365,0,0,0,63.24,43.05ZM27.588,40.914A10.17,10.17,0,0,0,20.4,37.95H10.2A10.209,10.209,0,0,0,0,48.15v5.1a5.1,5.1,0,0,0,5.1,5.1H15.6A23.371,23.371,0,0,1,27.588,40.914Z" transform="translate(0 -2.25)"/>
</svg>
