<svg id="phone" xmlns="http://www.w3.org/2000/svg" width="85.711" height="94.4" viewBox="0 0 85.711 94.4">
  <path id="Icon_material-phonelink-ring" data-name="Icon material-phonelink-ring" d="M80.666,30.249,76.375,34.54c7.724,7.724,7.724,19.738,0,27.891l4.291,4.291c10.727-9.869,10.727-26.175,0-36.473ZM71.655,39.26l-4.291,4.291a8.371,8.371,0,0,1,0,9.869l4.291,4.291c5.149-5.149,5.149-12.873,0-18.451ZM54.491,1.5H11.582A8.607,8.607,0,0,0,3,10.082V87.319A8.607,8.607,0,0,0,11.582,95.9H54.491a8.607,8.607,0,0,0,8.582-8.582V10.082A8.607,8.607,0,0,0,54.491,1.5Zm0,81.528H11.582V14.373H54.491Z" transform="translate(-3 -1.5)" fill="#272727"/>
</svg>
