<svg id="project" xmlns="http://www.w3.org/2000/svg" width="89.25" height="71.4" viewBox="0 0 89.25 71.4">
  <path id="Icon_awesome-project-diagram" data-name="Icon awesome-project-diagram" d="M53.55,44.625H35.7a4.463,4.463,0,0,0-4.463,4.463v17.85A4.463,4.463,0,0,0,35.7,71.4H53.55a4.463,4.463,0,0,0,4.463-4.463V49.088A4.463,4.463,0,0,0,53.55,44.625ZM26.775,4.463A4.463,4.463,0,0,0,22.313,0H4.463A4.463,4.463,0,0,0,0,4.463v17.85a4.463,4.463,0,0,0,4.463,4.463H17.811l10.2,17.856A8.9,8.9,0,0,1,35.7,40.163h.039L26.775,24.476V17.85H58.013V8.925H26.775ZM84.788,0H66.938a4.463,4.463,0,0,0-4.463,4.463v17.85a4.463,4.463,0,0,0,4.463,4.463h17.85a4.463,4.463,0,0,0,4.463-4.463V4.463A4.463,4.463,0,0,0,84.788,0Z"/>
</svg>
