<svg id="switch" xmlns="http://www.w3.org/2000/svg" width="94" height="73.445" viewBox="0 0 94 73.445">
  <path id="Icon_awesome-exchange-alt" data-name="Icon awesome-exchange-alt" d="M0,24.5V21.565a4.406,4.406,0,0,1,4.406-4.406H70.5V8.346a4.41,4.41,0,0,1,7.522-3.116L92.71,19.918a4.406,4.406,0,0,1,0,6.231L78.022,40.837A4.409,4.409,0,0,1,70.5,37.721V28.909H4.406A4.406,4.406,0,0,1,0,24.5ZM89.594,52.409H23.5V43.6a4.41,4.41,0,0,0-7.522-3.116L1.29,55.168a4.406,4.406,0,0,0,0,6.231L15.978,76.087A4.409,4.409,0,0,0,23.5,72.971V64.159H89.594A4.406,4.406,0,0,0,94,59.753V56.815A4.406,4.406,0,0,0,89.594,52.409Z" transform="translate(0 -3.936)" fill="#272727"/>
</svg>
