<svg id="talk" xmlns="http://www.w3.org/2000/svg" width="82.17" height="75.814" viewBox="0 0 82.17 75.814">
  <path id="Icon_ionic-ios-text" data-name="Icon ionic-ios-text" d="M44.44,4.5C21.756,4.5,3.375,19.347,3.375,37.668c0,12.813,9,23.928,22.171,29.457C24.52,72.218,21.4,76.4,18.932,79.069a.783.783,0,0,0,.711,1.244,31.765,31.765,0,0,0,10.069-2.507c4.245-1.955,7.956-5.943,9.141-7.285a52.558,52.558,0,0,0,5.627.316c22.685,0,41.065-14.847,41.065-33.168C85.506,19.347,67.125,4.5,44.44,4.5Z" transform="translate(-3.375 -4.5)"/>
  <g id="Group_517" data-name="Group 517" transform="translate(-1018 -2470)">
    <circle id="Ellipse_55" data-name="Ellipse 55" cx="4.5" cy="4.5" r="4.5" transform="translate(1036 2499)" fill="#fff"/>
    <circle id="Ellipse_56" data-name="Ellipse 56" cx="4.5" cy="4.5" r="4.5" transform="translate(1053 2499)" fill="#fff"/>
    <circle id="Ellipse_57" data-name="Ellipse 57" cx="4.5" cy="4.5" r="4.5" transform="translate(1072 2499)" fill="#fff"/>
  </g>
</svg>
