<svg id="xvrback" xmlns="http://www.w3.org/2000/svg" width="727" height="532" viewBox="0 0 727 532">
  <rect id="Rectangle_386" data-name="Rectangle 386" width="727" height="532" fill="none"/>
  <g id="Group_1060" data-name="Group 1060" transform="translate(85 78)">
    <path id="Path_1" data-name="Path 1" d="M831.938,218.956a32.74,32.74,0,0,1,32.695-31.029c1,0,1.978.052,2.95.139a43.5,43.5,0,0,1,75.194-.036c.82-.062,1.646-.1,2.482-.1a32.74,32.74,0,0,1,32.695,31.028" transform="translate(-428.676 -131.517)" fill="#f2f2f2"/>
    <path id="Path_2" data-name="Path 2" d="M844.569,214.29a32.74,32.74,0,0,1,32.694-31.029c1,0,1.978.052,2.95.139a43.5,43.5,0,0,1,75.194-.036c.82-.062,1.646-.1,2.482-.1a32.74,32.74,0,0,1,32.695,31.028" transform="translate(-434.488 -129.37)" fill="none" stroke="#3f3d56" stroke-miterlimit="10" stroke-width="1"/>
    <path id="Path_3" data-name="Path 3" d="M155.988,457.3A108.362,108.362,0,0,1,264.2,354.6c3.293,0,6.545.172,9.764.459a143.972,143.972,0,0,1,248.875-.118c2.715-.2,5.449-.342,8.216-.342A108.363,108.363,0,0,1,639.268,457.3" transform="translate(-117.644 -185.36)" fill="#f2f2f2"/>
    <path id="Path_4" data-name="Path 4" d="M197.794,441.862a108.362,108.362,0,0,1,108.212-102.7c3.293,0,6.545.172,9.764.459a143.972,143.972,0,0,1,248.875-.118c2.715-.2,5.449-.342,8.216-.342a108.362,108.362,0,0,1,108.212,102.7" transform="translate(-136.881 -178.256)" fill="none" stroke="#3f3d56" stroke-miterlimit="10" stroke-width="1"/>
    <path id="Path_5" data-name="Path 5" d="M84.962,179.149A44.3,44.3,0,0,1,129.2,137.165c1.346,0,2.676.07,3.992.188a58.857,58.857,0,0,1,101.741-.048c1.11-.083,2.227-.14,3.359-.14a44.3,44.3,0,0,1,44.238,41.983" transform="translate(-84.962 -104.666)" fill="#f2f2f2"/>
    <path id="Path_6" data-name="Path 6" d="M102.053,172.837a44.3,44.3,0,0,1,44.238-41.984c1.346,0,2.676.07,3.992.188a58.857,58.857,0,0,1,101.741-.048c1.11-.083,2.228-.14,3.359-.14a44.3,44.3,0,0,1,44.238,41.983" transform="translate(-92.826 -101.762)" fill="none" stroke="#3f3d56" stroke-miterlimit="10" stroke-width="1"/>
    <path id="Path_7" data-name="Path 7" d="M492.767,336.921s7.558,18.355-3.779,22.674c0,0,16.2,7.018,19.975,5.4s6.478-5.4,6.478-6.478-3.779-1.62-3.779-1.62-7.018.54-1.62-17.276Z" transform="translate(-270.871 -209.968)" fill="#fbbebe"/>
    <circle id="Ellipse_3" data-name="Ellipse 3" cx="13.496" cy="13.496" r="13.496" transform="translate(217.037 109.678)" fill="#fbbebe"/>
    <ellipse id="Ellipse_4" data-name="Ellipse 4" cx="11.877" cy="16.736" rx="11.877" ry="16.736" transform="translate(209.749 103.469)" fill="#ff6584"/>
    <ellipse id="Ellipse_5" data-name="Ellipse 5" cx="11.877" cy="16.736" rx="11.877" ry="16.736" transform="translate(201.111 98.071)" fill="#ff6584"/>
    <ellipse id="Ellipse_6" data-name="Ellipse 6" cx="5.938" cy="8.368" rx="5.938" ry="8.368" transform="translate(195.173 94.292)" fill="#ff6584"/>
    <path id="Path_8" data-name="Path 8" d="M536.988,313.817s3.239-6.478,15.116-9.717,35.091-42.109,35.091-42.109-1.08-23.214,4.319-16.2,1.08,21.055,1.08,21.055l-13.931,24.062a52.41,52.41,0,0,1-9.649,12.107c-8.613,8.017-24,22.136-25.548,22.136C541.307,325.154,536.988,313.817,536.988,313.817Z" transform="translate(-292.957 -167.429)" fill="#fbbebe"/>
    <path id="Path_9" data-name="Path 9" d="M501.988,543.921s3.779,45.888,2.7,50.207-4.319,12.957,1.08,38.33-1.08,23.754-1.08,23.754l17.276,7.558s-5.938-29.152-4.859-37.25.54-24.834,3.779-36.171,3.779-43.189,3.779-43.189Z" transform="translate(-276.853 -305.217)" fill="#fbbebe"/>
    <path id="Path_10" data-name="Path 10" d="M501.988,543.921s3.779,45.888,2.7,50.207-4.319,12.957,1.08,38.33-1.08,23.754-1.08,23.754l17.276,7.558s-5.938-29.152-4.859-37.25.54-24.834,3.779-36.171,3.779-43.189,3.779-43.189Z" transform="translate(-276.853 -305.217)" opacity="0.1"/>
    <path id="Path_11" data-name="Path 11" d="M520.8,748.832c-1.339.93-4.777,1.873-11.2-4.956,0,0-3.779-5.4-7.018,0s-1.08,5.938,1.08,8.638c2.085,2.606,18.758,20.3,25.74,19.585a3.335,3.335,0,0,0,.714-.15c6.478-2.159-2.7-9.178-2.7-9.178s-6.017-9.257-6.051-13.628a.36.36,0,0,0-.559-.311Z" transform="translate(-276.365 -396.12)" fill="#3f3d56"/>
    <path id="Path_12" data-name="Path 12" d="M414.26,533.921s-9.178,21.054-12.957,31.852c-1.984,5.669-7.986,7.468-13.239,7.9a45.279,45.279,0,0,0-18.5,5.575c-7.556,4.241-17.866,9.054-24.405,8.12-11.337-1.62-2.159,16.2-2.159,16.2s16.736-10.257,32.392-11.337,32.392-2.7,39.95-12.417,25.913-40.489,25.913-40.489Z" transform="translate(-202.081 -300.616)" fill="#fbbebe"/>
    <path id="Path_13" data-name="Path 13" d="M331.926,641.2s-5.4-3.779-1.08-7.558a26.11,26.11,0,0,0,5.938-7.018s-7.558-8.1-10.257-3.779-14.576,23.754-11.877,29.692,5.4,7.558,8.638,1.08S334.7,642.033,334.7,642.033Z" transform="translate(-190.469 -340.947)" fill="#3f3d56"/>
    <path id="Path_14" data-name="Path 14" d="M506.529,374.677s-1.795,3.589-18.472.134a10.244,10.244,0,0,0-11.287,5.265c-2.092,4.184-2.362,10.257,4.926,17.815,0,0,12.957,14.576,6.478,20.515s30.772-3.779,30.772-3.779-4.859-3.239-.54-12.957c3.393-7.635,3.121-11.938.491-15.264a16.673,16.673,0,0,1-3.152-7.044c-.737-3.614-2.558-8.143-7.057-8.464,0,0-4.729-.277-5.064.941S507.608,374.137,506.529,374.677Z" transform="translate(-264.658 -225.59)" fill="#5ac3ff"/>
    <path id="Path_15" data-name="Path 15" d="M438.972,390.406c-.112-.761-.248-1.518-.344-2.281-.326-2.606-1.565-8.922-5.852-7.835-5.378,1.363-11.316,14.86-11.316,14.86s-4.859,15.116-11.877,18.9-26.453,23.214-26.453,23.214-16.2,4.319-10.257,8.638,13.5-2.7,13.5-2.7l19.094-11.456A54.661,54.661,0,0,0,422.3,415.906c3.978-5.761,8.959-12.419,12.116-14.619a10.408,10.408,0,0,0,4.08-5.333,12.382,12.382,0,0,0,.472-5.548Z" transform="translate(-216.839 -229.866)" fill="#fbbebe"/>
    <path id="Path_16" data-name="Path 16" d="M452.005,452.216s-24.833-3.239-38.87,13.5-24.294,11.877-23.214,14.576,52.906,34.551,83.138,30.772c18.405-2.3,28.207-4.4,33.058-5.693a9.418,9.418,0,0,0,5.2-3.491,9.559,9.559,0,0,1,2.631-2.39,4.673,4.673,0,0,0,1.257-6.593c-8.562-12.388-31.807-45.2-38.372-46.077C468.741,445.738,452.005,452.216,452.005,452.216Z" transform="translate(-225.25 -260.48)" fill="#5ac3ff"/>
    <ellipse id="Ellipse_7" data-name="Ellipse 7" cx="8.638" cy="6.208" rx="8.638" ry="6.208" transform="translate(222.166 102.39)" fill="#ff6584"/>
    <path id="Path_17" data-name="Path 17" d="M815.2,177a61.211,61.211,0,0,1,2.251-8.4c.976-2.668,2.21-4.945,3.586-4.945,3.335,0-11.674-14.175-11.674-14.175s-.942,1.751-2.5,4.111a58.163,58.163,0,0,1-3.736,5.086,27.886,27.886,0,0,1-6.27,5.812C790.19,168.658,815.2,177,815.2,177Z" transform="translate(-412.015 -123.719)" fill="#a0616a"/>
    <path id="Path_18" data-name="Path 18" d="M909.99,302.834s33.437,21.126,23.135,24.6-27.371-21.348-27.371-21.348Z" transform="translate(-462.641 -194.283)" fill="#a0616a"/>
    <path id="Path_19" data-name="Path 19" d="M815.9,213.469s16.015,11.678,20.695,20.561,29.012,28.623,29.012,28.623-5.024,9.926-7.452,9.327-52.5-37.85-57.77-40.866S803.15,209.465,815.9,213.469Z" transform="translate(-413.405 -152.904)" fill="#5ac3ff"/>
    <path id="Path_20" data-name="Path 20" d="M815.9,213.469s16.015,11.678,20.695,20.561,29.012,28.623,29.012,28.623-5.024,9.926-7.452,9.327-52.5-37.85-57.77-40.866S803.15,209.465,815.9,213.469Z" transform="translate(-413.405 -152.904)" opacity="0.1"/>
    <path id="Path_21" data-name="Path 21" d="M915.456,252.964s37.523,12.508,28.35,18.344-31.686-14.175-31.686-14.175Z" transform="translate(-465.571 -171.336)" fill="#a0616a"/>
    <path id="Path_22" data-name="Path 22" d="M862.846,567.737s15.843-6.671,14.175,3.335-9.172,19.178-9.172,24.181S853.674,611.1,851.173,608.6s4.169-12.508,2.5-18.344-3.335-19.178-3.335-19.178Z" transform="translate(-437.143 -315.174)" fill="#55536e"/>
    <path id="Path_23" data-name="Path 23" d="M862.846,567.737s15.843-6.671,14.175,3.335-9.172,19.178-9.172,24.181S853.674,611.1,851.173,608.6s4.169-12.508,2.5-18.344-3.335-19.178-3.335-19.178Z" transform="translate(-437.143 -315.174)" opacity="0.1"/>
    <path id="Path_24" data-name="Path 24" d="M853.579,581.638s15.843-6.671,14.175,3.335-9.172,19.178-9.172,24.181S844.407,625,841.906,622.5s4.169-12.507,2.5-18.344-3.335-19.178-3.335-19.178Z" transform="translate(-432.879 -321.57)" fill="#55536e"/>
    <path id="Path_25" data-name="Path 25" d="M796.178,470.744s49.2,46.695,47.529,50.864S831.2,534.949,831.2,534.949,793.676,485.753,796.178,470.744Z" transform="translate(-412.166 -271.545)" fill="#3f3d56"/>
    <path id="Path_26" data-name="Path 26" d="M796.178,470.744s49.2,46.695,47.529,50.864S831.2,534.949,831.2,534.949,793.676,485.753,796.178,470.744Z" transform="translate(-412.166 -271.545)" opacity="0.1"/>
    <path id="Path_27" data-name="Path 27" d="M745.373,313.166s12.508,12.508,9.172,36.689,2.5,47.529,9.172,55.033S797.9,455.751,797.9,455.751s-11.674,19.178-20.846,9.172-36.689-50.864-36.689-50.864-25.015-49.2-27.517-62.537-3.335-34.187,3.335-38.356S745.373,313.166,745.373,313.166Z" transform="translate(-373.035 -198.185)" fill="#3f3d56"/>
    <path id="Path_28" data-name="Path 28" d="M812.961,154.093c9.739,2.018,8.772,2.41,14.759,4.511.033-.1.067-.183.1-.267.917-2.185,1.492.684,2.818.684,3.335,0-11.674-14.175-11.674-14.175s-.567,1.051-1.543,2.627c-.292.459-.609.959-.959,1.484-.292.442-.609.909-.942,1.393Z" transform="translate(-419.944 -121.587)" opacity="0.1"/>
    <circle id="Ellipse_8" data-name="Ellipse 8" cx="15.843" cy="15.843" r="15.843" transform="translate(394.852 12.42)" fill="#a0616a"/>
    <path id="Path_29" data-name="Path 29" d="M756.111,175.737s24.181,2.5,29.184,13.341-30.852,63.371-33.353,64.2-37.522,5-37.522,5,1.668-53.365,34.187-73.377C748.607,184.909,756.111,181.574,756.111,175.737Z" transform="translate(-374.601 -135.801)" fill="#5ac3ff"/>
    <path id="Path_30" data-name="Path 30" d="M804.768,186.527s18.344,7.5,25.015,15.009S864.8,222.382,864.8,222.382s-2.5,10.84-5,10.84-60.036-24.181-65.873-25.849S791.426,185.693,804.768,186.527Z" transform="translate(-409.916 -140.754)" fill="#5ac3ff"/>
    <path id="Path_31" data-name="Path 31" d="M839.124,138.331s4.169-4.169-4.169-7.5c0,0,8.338-3.335,10.006-8.338s7.5-13.341,12.508,0,14.175,30.852-15.843,30.852c0,0-7.5,1.668-7.5-5a12.508,12.508,0,0,1,5-10.006Z" transform="translate(-429.68 -107.984)" fill="#3f3d56"/>
  </g>
</svg>
